<svg class="icon" width="200" height="200" viewBox="0 0 1024 1024" xmlns="http://www.w3.org/2000/svg"><path d="M1022.848 825.664V290.24a64 64 0 0 0-70.976-70.784s-422.976.576-400.896 0a47.104 47.104 0 0 1-36.096-12.8s-16.832-29.312-47.104-75.52c-32-48.576-68.672-40.384-68.672-40.384H87.296A84.032 84.032 0 0 0 0 174.4v646.4c0 92.992 69.824 81.92 69.824 81.92h887.872c75.584.32 65.152-77.056 65.152-77.056z"/><path d="M956.48 923.968H66.304a65.472 65.472 0 0 1-65.728-65.28V217.856h956.48a65.472 65.472 0 0 1 65.728 65.28v574.72a66.048 66.048 0 0 1-66.304 66.112z"/></svg>