<svg class="icon" width="200" height="200" viewBox="0 0 1024 1024" xmlns="http://www.w3.org/2000/svg"><path d="M512 76.8a435.2 435.2 0 1 1 0 870.4 435.2 435.2 0 0 1 0-870.4zm0 51.2a384 384 0 1 0 0 768 384 384 0 0 0 0-768zm-5.12 530.125a33.946 33.946 0 1 1 0 67.891 33.946 33.946 0 0 1 0-67.891zm4.3-388.301l9.882.358a146.278 146.278 0 0 1 95.59 44.698 129.536 129.536 0 0 1 36.353 96.973c-2.407 41.984-18.944 70.912-69.479 120.064-36.864 37.376-48.69 53.76-48.69 69.734-1.383 14.541-13.671 26.931-27.7 26.829h-2.56a27.7 27.7 0 0 1-25.088-30.26c3.174-33.33 20.173-59.903 65.331-104.14l12.954-12.954c31.539-32.46 40.294-49.254 40.294-72.396a74.445 74.445 0 0 0-21.657-56.116 90.01 90.01 0 0 0-65.23-27.852c-47.974 0-86.834 38.912-86.937 88.064a27.7 27.7 0 0 1-25.958 18.739 27.75 27.75 0 0 1-26.573-19.456 141.773 141.773 0 0 1 139.469-142.285z"/></svg>