<svg class="icon" width="200" height="200" viewBox="0 0 1024 1024" xmlns="http://www.w3.org/2000/svg"><path d="M512 188.632c178.58 0 323.368 144.788 323.368 323.368S690.58 835.368 512 835.368 188.632 690.58 188.632 512 333.42 188.632 512 188.632zm0 44.085c-154.247 0-279.283 125.036-279.283 279.283S357.753 791.283 512 791.283 791.283 666.247 791.283 512 666.247 232.717 512 232.717zm.485 88.2a112.532 112.532 0 0 0-110.7 112.909c3.369 9.755 11.75 15.548 21.073 15.467a21.99 21.99 0 0 0 20.588-14.901c.108-39.02 30.962-69.875 69.04-69.875a71.437 71.437 0 0 1 51.765 22.097 59.11 59.11 0 0 1 17.165 44.517c0 18.378-6.925 31.717-31.96 57.479l-10.266 10.267c-35.867 35.139-49.368 56.212-51.9 82.674a21.99 21.99 0 0 0 19.913 24.037h2.048c11.157.081 20.885-9.755 21.99-21.315 0-12.665 9.404-25.681 38.669-55.35 40.07-38.993 53.22-61.979 55.107-95.313a102.831 102.831 0 0 0-28.833-76.962 116.116 116.116 0 0 0-83.726-35.732zm-30.37 335.117a26.947 26.947 0 1 0 53.895 0 26.947 26.947 0 1 0-53.895 0z"/></svg>