<svg class="icon" width="200" height="200" viewBox="0 0 1024 1024" xmlns="http://www.w3.org/2000/svg"><path d="M512 76.8c116.992 0 226.662 46.387 307.712 127.488A433.818 433.818 0 0 1 947.2 512a433.818 433.818 0 0 1-127.488 307.712A433.818 433.818 0 0 1 512 947.2a433.818 433.818 0 0 1-307.712-127.488A433.818 433.818 0 0 1 76.8 512c0-116.992 46.387-226.662 127.488-307.712A433.818 433.818 0 0 1 512 76.8zm0 51.2a382.669 382.669 0 0 0-271.514 112.486A382.669 382.669 0 0 0 128 512c0 103.27 40.909 199.987 112.486 271.514A382.669 382.669 0 0 0 512 896a382.669 382.669 0 0 0 271.514-112.486A382.669 382.669 0 0 0 896 512a382.669 382.669 0 0 0-112.486-271.514A382.669 382.669 0 0 0 512 128zm-2.15 568.013a51.2 51.2 0 1 1 0 102.4 51.2 51.2 0 0 1 0-102.4zM512 243.712a153.6 153.6 0 0 1 35.584 303.104l-9.984 1.946v61.9a25.6 25.6 0 0 1-20.992 25.19l-4.608.41a25.6 25.6 0 0 1-25.19-20.992l-.41-4.608v-85.35a25.6 25.6 0 0 1 25.6-25.6 102.4 102.4 0 1 0-102.4-102.4 25.6 25.6 0 0 1-51.2 0 153.6 153.6 0 0 1 153.6-153.6z"/></svg>