<svg class="icon" width="200" height="200" viewBox="0 0 1024 1024" xmlns="http://www.w3.org/2000/svg"><path d="M128 960a64 64 0 0 1-64-64V128a64 64 0 0 1 64-64h596.672a89.6 89.6 0 0 1 70.016 34.112l146.24 186.496a87.744 87.744 0 0 1 19.2 54.72v556.8a64 64 0 0 1-64 64zm0-64h768V361.28a90.176 90.176 0 0 0-19.2-54.72L768 168.064v88a64 64 0 0 1-64 64H320a64 64 0 0 1-64-64v-128H128zm192-640h384V128.64a93.056 93.056 0 0 0-10.24-.64H320zm0 320a192 192 0 0 1 192-192 192 192 0 0 1 192 192 192 192 0 0 1-192 192 192 192 0 0 1-192-192zm64 0a128 128 0 0 0 128 128 128 128 0 0 0 128-128 128 128 0 0 0-128-128 128 128 0 0 0-128 128z"/></svg>