<svg class="icon" width="200" height="88.39" viewBox="0 0 2317 1024" xmlns="http://www.w3.org/2000/svg"><path d="M2008.872 0c46.134 0 83.322 37.295 83.322 83.267v809.769c0 46.188-37.295 83.267-83.322 83.267H83.322A83.213 83.213 0 0 1 0 893.036V83.267C0 37.08 37.295 0 83.321 0zm-18.755 51.362H102.077c-30.72 0-55.566 25.222-55.566 56.05v761.533a56.05 56.05 0 0 0 55.512 56.05h1888.094c30.72 0 55.566-25.222 55.566-56.05V107.466a56.05 56.05 0 0 0-55.512-56.05zm-18.594 51.415c15.522 0 27.702 12.288 27.702 27.433v715.937a27.486 27.486 0 0 1-27.702 27.433H120.67a27.432 27.432 0 0 1-27.702-27.433V130.21a27.486 27.486 0 0 1 27.702-27.487zm251.527 205.555c30.181 0 55.134 24.791 55.134 55.404V612.62c0 30.72-24.683 55.404-55.134 55.404h-84.345V308.332z"/></svg>