<svg class="icon" width="200" height="200" viewBox="0 0 1024 1024" xmlns="http://www.w3.org/2000/svg"><path d="M838.656 818.688a20.01 20.01 0 0 1 0 39.979H185.344a20.01 20.01 0 0 1 0-40.022h653.312zM726.272 208.341c39.04 39.083 39.04 102.4 0 141.44L398.848 677.163a126.677 126.677 0 0 1-49.493 30.634L254.123 739.5a46.677 46.677 0 0 1-59.008-59.008l31.744-95.232c6.186-18.646 16.682-35.584 30.592-49.494l327.381-327.424a100.01 100.01 0 0 1 141.44 0zm-436.181 351.36l-4.352 4.395a86.656 86.656 0 0 0-20.907 33.877l-31.787 95.19a6.656 6.656 0 0 0 8.448 8.448l95.232-31.744a87.13 87.13 0 0 0 33.835-20.907l4.395-4.395-84.864-84.864zM586.752 263.04L318.379 531.413l84.864 84.907 268.373-268.416-84.864-84.864zm28.33-28.245l84.78 84.778a59.99 59.99 0 0 0-84.78-84.778z"/></svg>