<svg class="icon" width="200" height="200" viewBox="0 0 1024 1024" xmlns="http://www.w3.org/2000/svg"><path d="M526.925 307.2a25.6 25.6 0 0 1 2.995 51.02l-2.995.18H372.634a14.234 14.234 0 0 0-14.055 11.904l-.179 2.304v278.784c0 7.066 5.146 12.928 11.904 14.029l2.304.179h278.784a14.234 14.234 0 0 0 14.029-11.904l.179-2.304V497.075a25.6 25.6 0 0 1 51.02-2.995l.18 2.995v154.291a65.434 65.434 0 0 1-61.133 65.28l-4.3.154H372.633a65.434 65.434 0 0 1-65.28-61.133l-.154-4.3V372.633a65.434 65.434 0 0 1 61.133-65.28l4.3-.154h154.292zm170.496 19.38a25.6 25.6 0 0 1 0 36.223L516.403 543.795a25.6 25.6 0 0 1-36.224-36.198l181.018-180.992a25.6 25.6 0 0 1 36.224 0z"/></svg>