<svg class="icon" width="200" height="200" viewBox="0 0 1024 1024" xmlns="http://www.w3.org/2000/svg"><path d="M512 0a512 512 0 1 1 0 1024A512 512 0 0 1 512 0zm44.8 736h-89.6v89.6h89.6V736zM512 198.4a172.8 172.8 0 0 0-172.8 172.8h89.6l.448-8.512A83.2 83.2 0 0 1 595.2 371.2c0 10.432-3.008 18.304-24.832 50.944l-42.048 61.76c-41.472 62.528-61.12 109.824-61.12 166.656h89.6l.32-8.832c2.432-35.2 19.584-70.528 55.744-122.88l30.08-43.264c6.08-9.088 11.072-16.96 15.616-24.64 17.088-28.864 26.24-53.76 26.24-79.744A172.8 172.8 0 0 0 512 198.4z"/></svg>