<svg class="icon" width="200" height="199.8" viewBox="0 0 1025 1024" xmlns="http://www.w3.org/2000/svg"><path d="M995.776 945.92a29.568 29.568 0 0 1 0 59.136H29.888a29.568 29.568 0 0 1 0-59.2h966.4zm-166.4-902.4a147.968 147.968 0 0 1 0 209.152l-484.224 484.16a187.328 187.328 0 0 1-73.216 45.312l-140.8 46.912A69.056 69.056 0 0 1 43.84 741.76l46.976-140.8a186.752 186.752 0 0 1 45.248-73.216L620.224 43.52a147.904 147.904 0 0 1 209.152 0zM184.32 563.136l-6.4 6.4a128 128 0 0 0-30.912 50.112l-47.04 140.8a9.856 9.856 0 0 0 12.8 12.8l140.8-46.976a128.896 128.896 0 0 0 50.048-30.912l6.4-6.4zm438.72-438.72l-396.8 396.8 125.504 125.568 396.8-396.8zm41.92-41.792L790.336 208A88.704 88.704 0 0 0 664.96 82.624z"/></svg>