<svg class="icon" width="200" height="200" viewBox="0 0 1024 1024" xmlns="http://www.w3.org/2000/svg"><path d="M755.2 204.8a51.2 51.2 0 0 1 51.2 51.2v563.2a51.2 51.2 0 0 1-51.2 51.2H268.8a51.2 51.2 0 0 1-51.2-51.2V256a51.2 51.2 0 0 1 51.2-51.2h102.4v25.6H268.8a25.6 25.6 0 0 0-25.536 23.68L243.2 256v563.2a25.6 25.6 0 0 0 23.68 25.536l1.92.064h486.4a25.6 25.6 0 0 0 25.536-23.68l.064-1.92V256a25.6 25.6 0 0 0-23.68-25.536l-1.92-.064H652.8v-25.6h102.4z"/><path d="M345.6 332.8h332.8a25.6 25.6 0 0 1 25.6 25.6v371.2a25.6 25.6 0 0 1-25.6 25.6H345.6a25.6 25.6 0 0 1-25.6-25.6V358.4a25.6 25.6 0 0 1 25.6-25.6z"/><path d="M396.8 422.4h230.4a12.8 12.8 0 0 1 0 25.6H396.8a12.8 12.8 0 0 1 0-25.6zm0 89.6h230.4a12.8 12.8 0 0 1 0 25.6H396.8a12.8 12.8 0 0 1 0-25.6zm0 89.6h166.4a12.8 12.8 0 0 1 0 25.6H396.8a12.8 12.8 0 0 1 0-25.6zm211.2-448a44.8 44.8 0 0 1 44.8 44.8v38.4a44.8 44.8 0 0 1-44.8 44.8H416a44.8 44.8 0 0 1-44.8-44.8v-38.4a44.8 44.8 0 0 1 44.8-44.8h192zm0 25.6H416a19.2 19.2 0 0 0-19.11 17.357l-.09 1.843v38.4a19.2 19.2 0 0 0 17.357 19.11L416 256h192a19.2 19.2 0 0 0 19.11-17.357l.09-1.843v-38.4a19.2 19.2 0 0 0-17.357-19.11L608 179.2z"/></svg>