<svg class="icon" width="200" height="200" viewBox="0 0 1024 1024" xmlns="http://www.w3.org/2000/svg"><path d="M950.857 73.143V1024H73.143V73.143h877.714zm-73.143 73.143H146.286v804.571h731.428V146.286z"/><path d="M704.878 377.125l53.101 50.322-303.908 320.585-187.977-198.363 53.028-50.323L453.998 641.61zM292.571 0h73.143v219.429h-73.143z"/><path d="M658.286 0v73.143H292.57V0zm0 73.143v73.143H365.714V73.143zm0 73.143v73.143H292.57v-73.143zm0-146.286h73.143v219.429h-73.143z"/><path d="M731.429 0v219.429H292.57V0h438.86zm-73.143 73.143H365.714v73.143h292.572V73.143z"/></svg>