<svg class="icon" width="200" height="200" viewBox="0 0 1024 1024" xmlns="http://www.w3.org/2000/svg"><path d="M665.6 40.96c42.414 0 76.8 34.386 76.8 76.8v20.48h46.08c72.786 0 131.927 58.414 133.105 130.918l.015 2.202v583.68c0 72.786-58.414 131.927-130.918 133.105l-2.202.015H235.52c-72.786 0-131.927-58.414-133.105-130.918l-.015-2.202V271.36c0-72.786 58.414-131.927 130.918-133.105l2.202-.015h46.08v-20.48c0-41.882 33.52-75.93 75.192-76.785l1.608-.015zm76.8 220.16c0 42.414-34.386 76.8-76.8 76.8H358.4c-42.414 0-76.8-34.386-76.8-76.8v-20.48h-46.08a30.72 30.72 0 0 0-30.7 29.568l-.02 1.152v583.68a30.72 30.72 0 0 0 29.568 30.7l1.152.02h552.96a30.72 30.72 0 0 0 30.7-29.568l.02-1.152V271.36a30.72 30.72 0 0 0-29.568-30.7l-1.152-.02H742.4zM640 143.36H384v92.16h256v-92.16zM322.56 435.2h378.88a30.72 30.72 0 0 1 0 61.44H322.56a30.72 30.72 0 1 1 0-61.44zm0 133.12h276.48a30.72 30.72 0 0 1 0 61.44H322.56a30.72 30.72 0 0 1 0-61.44z"/></svg>