<svg class="icon" width="200" height="200" viewBox="0 0 1024 1024" xmlns="http://www.w3.org/2000/svg"><path d="M880.64 557.44a227.712 227.712 0 0 0 46.08-136.96 231.36 231.36 0 0 0-69.12-162.56A228.672 228.672 0 0 0 696.32 192h-4.48a243.712 243.712 0 0 0-37.76 3.2A275.584 275.584 0 0 0 419.84 64H416a277.312 277.312 0 0 0-277.76 272.64A272.448 272.448 0 0 0 208 517.76 382.464 382.464 0 0 0 0 857.6 102.4 102.4 0 0 0 102.4 960h627.84a101.184 101.184 0 0 0 94.08-64h115.2a84.928 84.928 0 0 0 84.48-85.12 294.4 294.4 0 0 0-143.36-253.44zM102.4 896A38.4 38.4 0 0 1 64 857.6a318.656 318.656 0 0 1 213.12-300.16 32.384 32.384 0 0 0 21.12-25.6 31.168 31.168 0 0 0-12.8-30.08 207.936 207.936 0 0 1-83.2-165.12 207.36 207.36 0 0 1 63.36-148.48A208.768 208.768 0 0 1 412.8 128h3.84a209.088 209.088 0 0 1 173.44 87.68 192.896 192.896 0 0 1 29.44 56.96A191.04 191.04 0 0 1 630.4 336a208.256 208.256 0 0 1-83.2 165.76l-.64.64a30.976 30.976 0 0 0-12.16 29.44 31.296 31.296 0 0 0 21.12 25.6 283.648 283.648 0 0 1 42.88 19.2A316.416 316.416 0 0 1 766.72 832c.64 8.32 1.28 17.28 1.28 25.6a37.696 37.696 0 0 1-10.88 26.88A35.84 35.84 0 0 1 730.24 896zm837.12-64H831.36A381.632 381.632 0 0 0 624 517.76a270.72 270.72 0 0 0 70.4-182.4 266.432 266.432 0 0 0-12.16-78.72 77.44 77.44 0 0 1 12.16-.64 169.152 169.152 0 0 1 118.4 47.36 168.576 168.576 0 0 1 49.92 117.12 162.816 162.816 0 0 1-55.68 122.24 32 32 0 0 0-10.24 29.44 32.448 32.448 0 0 0 19.2 24.32 230.976 230.976 0 0 1 144 214.4A20.736 20.736 0 0 1 939.52 832z"/></svg>