<svg class="icon" width="200" height="200" viewBox="0 0 1024 1024" xmlns="http://www.w3.org/2000/svg"><path d="M768 387.328C750.592 241.92 599.68 127.936 417.088 127.936c-194.496 0-352.768 129.152-352.768 288a269.184 269.184 0 0 0 126.272 218.688 356.672 356.672 0 0 0 38.4 24.64L213.376 721.6c5.632 2.624 11.136 5.44 16.896 7.872l78.976-39.424c11.52 3.008 23.68 4.928 35.712 6.976 7.68 1.344 15.36 2.752 23.296 3.712a407.296 407.296 0 0 0 147.2-8.448 283.648 283.648 0 0 0 11.648 62.912A488.512 488.512 0 0 1 416.96 768a480 480 0 0 1-98.944-10.88l-143.36 71.424a32 32 0 0 1-45.376-36.288l25.6-103.04A333.632 333.632 0 0 1 0 416C0 221.568 186.624 64 416.896 64 635.52 64 814.528 206.208 832 387.008a165.888 165.888 0 0 0-64 0z"/><path d="M861.44 590.656a192.96 192.96 0 0 0-62.656-27.072 57.6 57.6 0 1 1 57.6-57.6 157.12 157.12 0 0 0 21.504 53.952 131.2 131.2 0 0 1 35.136 59.008 86.976 86.976 0 0 1-51.2-28.288zM966.784 728.64a155.264 155.264 0 0 0-53.76 21.76 130.56 130.56 0 0 1-58.752 35.52 87.168 87.168 0 0 1 27.968-51.904 193.472 193.472 0 0 0 26.752-62.848 57.6 57.6 0 1 1 57.6 57.6zm-229.44 24.96a192.704 192.704 0 0 0 62.464 27.328 57.6 57.6 0 1 1-57.6 57.6 156.288 156.288 0 0 0-21.312-54.016 131.072 131.072 0 0 1-34.88-59.2 86.848 86.848 0 0 1 51.2 28.672zM633.6 614.784a155.136 155.136 0 0 0 53.76-21.76 130.56 130.56 0 0 1 58.816-35.456 87.36 87.36 0 0 1-27.968 51.84 193.728 193.728 0 0 0-26.752 62.912 57.6 57.6 0 1 1-57.6-57.6z"/></svg>