<svg class="icon" width="200" height="200" viewBox="0 0 1024 1024" xmlns="http://www.w3.org/2000/svg"><path d="M512 588.8a38.08 38.08 0 0 0 38.144-33.024l.256-4.352V203.776A37.888 37.888 0 0 0 512 166.4a38.08 38.08 0 0 0-38.144 33.024l-.256 4.352v347.648c0 20.672 17.216 37.376 38.4 37.376zm23.552 260.736l3.584-3.2 230.4-230.4a38.4 38.4 0 0 0-50.688-57.472l-3.584 3.2L512 764.8 308.736 561.664a38.4 38.4 0 0 0-50.688-3.2l-3.584 3.2a38.4 38.4 0 0 0-3.2 50.688l3.2 3.584 230.4 230.4a38.4 38.4 0 0 0 50.688 3.2z"/></svg>