<svg class="icon" width="200" height="200" viewBox="0 0 1024 1024" xmlns="http://www.w3.org/2000/svg"><path d="M512 435.2c19.712 0 35.904 14.4 38.144 33.024l.256 4.352v347.648A37.888 37.888 0 0 1 512 857.6a38.08 38.08 0 0 1-38.144-33.024l-.256-4.352V472.576c0-20.672 17.216-37.376 38.4-37.376zm23.552-260.736l3.584 3.2 230.4 230.4a38.4 38.4 0 0 1-50.688 57.472l-3.584-3.2L512 259.2 308.736 462.336a38.4 38.4 0 0 1-50.688 3.2l-3.584-3.2a38.4 38.4 0 0 1-3.2-50.688l3.2-3.584 230.4-230.4a38.4 38.4 0 0 1 50.688-3.2z"/></svg>