<svg class="icon" width="200" height="200" viewBox="0 0 1024 1024" xmlns="http://www.w3.org/2000/svg"><path d="M915.968 502.156c-2.816 1.582-281.623 160.349-349.766 193.233-52.945 25.6-97.792 1.094-101.027-.768-.535-.326-.698-.396-1.28-.698L106.24 502.97a29.626 29.626 0 0 0-40.425 13.01 31.023 31.023 0 0 0 12.707 41.355l357.213 190.697c6.028 3.421 37.656 20.2 81.222 20.2a170.59 170.59 0 0 0 74.845-17.407c69.911-33.746 341.783-188.533 353.303-195.119a31.046 31.046 0 0 0 11.637-41.705 29.626 29.626 0 0 0-40.774-11.869zm0 191.93c-2.816 1.606-281.623 160.349-349.766 193.233-52.945 25.6-97.792 1.094-101.027-.744l-1.28-.745L106.24 694.924a29.65 29.65 0 0 0-40.425 13.01 31.023 31.023 0 0 0 12.707 41.378l357.213 190.673c6.028 3.445 37.656 20.224 81.222 20.224a170.59 170.59 0 0 0 74.845-17.408c69.911-33.768 341.783-188.555 353.303-195.118a31.046 31.046 0 0 0 11.637-41.728 29.626 29.626 0 0 0-40.774-11.87zm46.988-425.798c-6.517-6.796-15.523-12.916-27.579-18.688C884.643 225.28 583.54 69.772 570.415 62.976c-5.33-2.91-30.511-15.686-64.908-15.686-22.063 0-43.31 5.213-63.209 15.477L94.906 242.199c-3.723 1.35-10.612 4.166-17.827 8.448-23.272 13.824-29.323 30.906-30.3 42.822-.746 9.24.953 23.25 13.381 37.492 7.517 8.611 18.223 16.5 32.745 24.134 63.697 33.443 320.838 165.958 347.229 179.573 8.425 5.98 31.232 19.549 64.907 19.549 22.924 0 46.383-6.237 69.726-18.549A192447.72 192447.72 0 0 1 935.26 347.252c11.916-4.259 39.028-16.965 40.937-44.893.582-8.61-1.234-21.527-13.266-34.071zM547.305 481.14c-14.778 7.797-28.975 11.73-42.264 11.73-17.803 0-28.625-7.075-30.487-8.402a20.76 20.76 0 0 0-5.283-3.467c-2.792-1.443-282.368-145.501-348.998-180.48a128.233 128.233 0 0 1-2.7-1.466 35.5 35.5 0 0 0 2.538-1.164l349.207-180.364a78.196 78.196 0 0 1 36.189-8.913c19.945 0 34.862 7.517 36.398 8.331l1.071.559c11.985 6.19 276.2 142.708 353.583 181.085-58.95 30.767-293.237 152.995-349.254 182.551z"/></svg>