<svg class="icon" width="200" height="200" viewBox="0 0 1024 1024" xmlns="http://www.w3.org/2000/svg"><path d="M512 0c282.764 0 512 229.236 512 512s-229.236 512-512 512S0 794.764 0 512 229.236 0 512 0zm0 69.818C267.8 69.818 69.818 267.8 69.818 512S267.8 954.182 512 954.182 954.182 756.2 954.182 512 756.2 69.818 512 69.818zm104.285 197.749a139.636 139.636 0 0 1 139.427 139.52 139.636 139.636 0 0 1-139.404 139.52 34.607 34.607 0 0 1-34.443-34.56c0-19.038 15.406-34.467 34.443-34.467h.28-.303a70.563 70.563 0 0 0 70.47-70.517c0-38.865-31.604-70.493-70.47-70.493a70.563 70.563 0 0 0-70.446 70.517v209.687c0 76.916-57.158 139.52-134.051 139.52a139.636 139.636 0 0 1-139.404-139.52 139.636 139.636 0 0 1 139.404-139.52v.07c18.036 0 32.79 13.707 34.443 31.208l.163 3.328a34.513 34.513 0 0 1-36.073 34.49l1.467-.093a70.563 70.563 0 0 0-70.447 70.517c0 38.865 31.604 70.516 70.447 70.516a70.563 70.563 0 0 0 70.47-70.516V407.087c0-76.94 57.157-139.52 134.05-139.52z"/></svg>