<svg class="icon" width="200" height="193.94" viewBox="0 0 1056 1024" xmlns="http://www.w3.org/2000/svg"><path d="M93.09 992.97a31.03 31.03 0 0 1-31.03-31.03V93.09a31.03 31.03 0 0 1 31.03-31.03h558.546a31.03 31.03 0 0 1 31.03 31.03v124.122a31.03 31.03 0 0 1-62.06 0v-93.09H124.121v806.787h496.485v-93.09a31.03 31.03 0 1 1 62.06 0v124.12a31.03 31.03 0 0 1-31.03 31.03zm722.76-313.78a31.03 31.03 0 0 1 0-43.877l76.83-76.769H341.334a31.03 31.03 0 1 1 0-62.06H892.68l-76.831-76.77a31.03 31.03 0 1 1 43.877-43.876l124.12 124.121a30.286 30.286 0 0 1 8.565 24.824c0 .993.559 1.862.559 2.793s-.497 1.862-.559 2.793a30.41 30.41 0 0 1-8.564 24.824L859.726 679.315a31.03 31.03 0 0 1-43.877 0z"/></svg>