<svg class="icon" width="200" height="200" viewBox="0 0 1024 1024" xmlns="http://www.w3.org/2000/svg"><path d="M466.936 821.73h-26.799C196.748 534.937 354.87 343.21 596.36 205.452L524.678 82.755c-5.071-8.647-4.948-19.157.909-26.955 5.818-7.717 15.97-11.035 25.5-8.318l368.39 59.182c13.01 3.712 21.03 17.41 17.702 30.43L804.415 480.815c-1.594 6.51-5.685 11.737-11.056 14.757-2.722 1.59-5.833 2.57-9.005 2.955-9.798 1.147-19.081-4.08-24.107-12.707l-70.394-120.43c-237.07 135.172-319.61 264.162-222.948 456.334l.03.005zm393.831 155.715h-697.56c-85.611 0-155.01-69.414-155.01-155.01V202.389c0-85.61 69.399-155.01 155.01-155.01h155.01v72.662h-155.01c-42.849 0-77.515 34.707-77.515 77.515v629.743c0 42.828 34.671 77.508 77.515 77.508h697.565c42.768 0 77.51-34.667 77.51-77.508V434.914h77.51v387.531c0 85.606-69.419 155.01-155.03 155.01l.005-.01zm0 0"/></svg>