<svg class="icon" width="200" height="200" viewBox="0 0 1024 1024" xmlns="http://www.w3.org/2000/svg"><path d="M512 0c282.764 0 512 229.236 512 512s-229.236 512-512 512S0 794.764 0 512 229.236 0 512 0zm0 69.818C267.8 69.818 69.818 267.8 69.818 512S267.8 954.182 512 954.182 954.182 756.2 954.182 512 756.2 69.818 512 69.818zm11.636 209.455a34.91 34.91 0 0 1 34.91 34.909V648.82l56.18-56.203A34.91 34.91 0 0 1 664.11 642l-115.2 115.2c-6.982 6.959-16.152 10.357-25.275 10.217a34.793 34.793 0 0 1-22.574-7.773l-2.7-2.444-115.2-115.2a34.91 34.91 0 0 1 46.732-51.781l2.653 2.397 56.157 56.18.023-334.615a34.91 34.91 0 0 1 34.91-34.91z"/></svg>