<svg class="icon" width="200" height="200" viewBox="0 0 1024 1024" xmlns="http://www.w3.org/2000/svg"><path d="M327.008 64c75.392 0 136.256 84.768 150.208 193.088 8.352 69.888-4.704 134.624-36.928 171.52-9.92 12.48-22.496 22.4-36.576 29.088l-5.568 2.4 5.728 12.704a756.464 756.464 0 0 0 16.192 32.704l8.672 16.064a648.479 648.479 0 0 0 30.304 49.856l9.408 13.632.384-.288c17.024-13.504 38.656-20.928 63.296-22.144l7.488-.192c43.904 0 93.952 21.12 139.424 57.024 81.6 64.64 119.168 158.368 85.504 222.4a71.04 71.04 0 0 1-6.528 11.936 219.264 219.264 0 0 1-75.488 76.672 184.48 184.48 0 0 1-94.624 29.44l-8.448.064c-131.648 0-282.272-116.928-381.632-289.92l-6.272-11.136C61.28 425.088 64.448 176.192 209.792 91.392a203.968 203.968 0 0 1 99.456-26.4l6.912.16 2.112-.48a44.412 44.412 0 0 1 3.52-.512l5.248-.16zm1.056 64.064l-2.112.48a33.28 33.28 0 0 1-4.704.608h-4.288a140.288 140.288 0 0 0-75.328 17.76c-107.008 62.432-109.696 273.504 5.856 480.896 87.136 157.312 218.784 263.36 324.8 268l7.712.16a120.704 120.704 0 0 0 61.568-15.52l7.104-4.288a157.76 157.76 0 0 0 50.432-48.8l5.024-8c.704-1.024 1.28-2.112 2.784-5.248 17.76-33.888-7.456-96.832-67.584-144.448-35.008-27.648-71.904-43.232-99.712-43.232-16.32 0-27.36 4.096-34.336 11.616l-2.432 2.976a32 32 0 0 1-6.944 7.136 57.01 57.01 0 0 1-21.536 9.92l-5.888 1.056-3.84.224c-11.456 0-22.304-4.8-30.016-13.056l-3.968-4.48a722.784 722.784 0 0 1-57.92-89.312 816.298 816.298 0 0 1-35.04-70.752l-7.68-18.24-1.28-3.712c-3.296-12.16-2.24-25.088 3.072-36.544a32 32 0 0 1 10.912-12.896l3.68-2.208 2.4-1.216a32 32 0 0 1 8.416-2.88l4.48-.512c11.072-.544 21.44-5.888 29.408-15.904 19.456-22.272 28.96-69.44 22.592-122.656-9.92-77.312-48.384-133.024-83.008-136.8l-2.624-.128zM582.56 357.632a81.152 81.152 0 0 1 81.344 80.96 32 32 0 1 1-64 0 17.088 17.088 0 0 0-14.528-16.736l-2.816-.224a32 32 0 1 1 0-64zm49.344-146.816c99.392 0 180.064 80 180.064 178.816a32 32 0 1 1-64 0c0-63.36-51.904-114.816-116.064-114.816a32 32 0 0 1 0-64zm0-146.816C813.024 64 960 209.728 960 389.632a32 32 0 0 1-64 0C896 245.216 777.824 128 631.904 128a32 32 0 0 1 0-64z"/></svg>