<svg class="icon" width="200" height="200" viewBox="0 0 1024 1024" xmlns="http://www.w3.org/2000/svg"><path d="M512 557.176c140.288 0 256 65.085 256 150.589 0 81.317-100.503 120.47-256 120.47s-256-39.153-256-120.47c0-85.504 115.712-150.589 256-150.589zm0 30.118c-125.862 0-225.882 56.26-225.882 120.47 0 56.923 85.775 90.354 225.882 90.354s225.882-33.43 225.882-90.353c0-64.211-100.02-120.47-225.882-120.47zm0-391.53a165.647 165.647 0 1 1 0 331.295 165.647 165.647 0 0 1 0-331.294zm0 30.118a135.53 135.53 0 1 0 0 271.06 135.53 135.53 0 0 0 0-271.06z"/></svg>