<svg class="icon" width="200" height="200" viewBox="0 0 1024 1024" xmlns="http://www.w3.org/2000/svg"><path d="M341.862 153.6A68.25 68.25 0 0 1 409.6 93.85h204.8c34.816 0 63.54 26.112 67.738 59.75H827.75c37.684 0 68.25 30.566 68.25 68.25v640c0 37.734-30.566 68.3-68.25 68.3h-631.5a68.25 68.25 0 0 1-68.25-68.3v-640c0-37.684 30.566-68.25 68.25-68.25h145.612zm0 51.2H196.25a17.05 17.05 0 0 0-17.05 17.05v640c0 9.42 7.68 17.1 17.05 17.1h631.5c9.421 0 17.05-7.68 17.05-17.1v-640a17.05 17.05 0 0 0-17.05-17.05H682.138a68.3 68.3 0 0 1-67.738 59.75H409.6c-34.816 0-63.54-26.112-67.738-59.75zm67.738-59.75a17.05 17.05 0 0 0-17.05 17.1v34.1c0 9.42 7.63 17.1 17.05 17.1h204.8c9.42 0 17.05-7.68 17.05-17.1v-34.1a17.05 17.05 0 0 0-17.05-17.1H409.6zm52.89 463.104l186.777-186.778a25.6 25.6 0 0 1 36.25 36.198l-201.882 201.83a25.754 25.754 0 0 1-11.315 8.96 24.934 24.934 0 0 1-30.515-8.498l-105.78-105.78a25.6 25.6 0 1 1 36.199-36.198l90.266 90.266z"/></svg>