<svg class="icon" width="200" height="200" viewBox="0 0 1024 1024" xmlns="http://www.w3.org/2000/svg"><path d="M512 0C230.4 0 0 230.4 0 512s230.4 512 512 512 512-230.4 512-512S793.6 0 512 0zm0 921.6c-225.28 0-409.6-184.32-409.6-409.6S286.72 102.4 512 102.4 921.6 286.72 921.6 512 737.28 921.6 512 921.6z"/><path d="M343.04 512a168.96 168.96 0 1 0 337.92 0 168.96 168.96 0 1 0-337.92 0z"/><path d="M512 0c-25.6 0-40.96 20.48-40.96 40.96v168.96c0 25.6 15.36 46.08 40.96 46.08s40.96-20.48 40.96-40.96V40.96C552.96 20.48 537.6 0 512 0zM215.04 471.04H40.96C20.48 471.04 0 486.4 0 512s20.48 40.96 40.96 40.96h168.96c25.6 0 46.08-15.36 46.08-40.96s-20.48-40.96-40.96-40.96zM512 768c-25.6 0-40.96 20.48-40.96 40.96v168.96c0 25.6 20.48 40.96 40.96 40.96 25.6 0 40.96-20.48 40.96-40.96V808.96c0-20.48-15.36-40.96-40.96-40.96zm471.04-296.96H814.08c-25.6 0-46.08 15.36-46.08 40.96s20.48 40.96 40.96 40.96h168.96c25.6 0 40.96-20.48 40.96-40.96 5.12-25.6-15.36-40.96-35.84-40.96z" opacity=".5"/></svg>