<svg class="icon" width="200" height="200" viewBox="0 0 1024 1024" xmlns="http://www.w3.org/2000/svg"><path d="M62.997 484.062h423.162V60.9H62.997v423.162zM168.788 166.69H380.37v211.581H168.79v-211.58zM539.055 60.9v423.163h423.163V60.9H539.055zm317.371 317.371h-211.58v-211.58h211.58v211.58zm-634.743-52.894h105.79V219.585h-105.79v105.792zM62.997 960.12h423.162V536.957H62.997V960.12zm105.791-317.372H380.37v211.58H168.79v-211.58zm634.744-423.163H697.74v105.79h105.79v-105.79zM539.055 960.12h105.79V854.33h-105.79v105.79zm105.79-317.372v211.58h105.791v-211.58h-105.79zM856.427 854.33h-105.79v105.79h211.58V748.538h-105.79V854.33zm0-211.582h105.79v-105.79h-105.79v105.79zm-317.37-105.79v105.79h105.79v-105.79h-105.79zM221.682 801.433h105.79v-105.79h-105.79v105.79z"/></svg>