<svg class="icon" width="200" height="200" viewBox="0 0 1024 1024" xmlns="http://www.w3.org/2000/svg"><path d="M841.152 1024v-73.088h182.944V1024zm-292.576 0v-73.088h-73.088V804.608h73.088v146.304h73.088V1024zm-548.48 0V621.664h219.488v-73.088h73.088v73.088H402.4V1024zm73.088-73.088h256v-256h-256zm694.88 0v-73.248h73.088v73.248zm-146.304 0V731.424h73.152v219.488zm292.576-73.248v-73.088h36.576v-73.088h73.184v73.088H987.52v73.088zm-768 0V768h109.76v109.696zm621.696-73.184v-73.088h73.088v73.088zm-292.576-73.088v-109.76h73.088v109.76zm365.632-36.672v-73.088h183.008v73.088zm-146.24 0v-73.088h73.248v73.088zm-73.152-73.088v-73.088H292.608v-73.088h182.816V365.728h73.088v109.728h146.304V621.6zm329.152-73.088v-73.088h73.248v73.088zm-182.816 0v-73.088h146.272v73.088zm-621.696 0v-73.088h73.248v73.088zm-146.272 0v-73.088h73.088v73.088zm73.088-73.088v-73.088H.096V0H402.24v402.336h-256v73.088zm0-146.272h256v-256h-256zm548.576 73.184V0h402.368v402.336zm73.088-73.184h256v-256h-256zm-219.328-36.672v-73.088h73.088v73.088zM768.096 256V146.24h109.76V256zM146.4 256V146.24h109.696V256zm329.152-109.6V36.608h73.088V146.4z"/></svg>