<svg class="icon" width="200" height="200" viewBox="0 0 1024 1024" xmlns="http://www.w3.org/2000/svg"><path d="M819.302 1024H204.186a153.6 153.6 0 0 1-153.6-153.6V153.6A153.6 153.6 0 0 1 204.186 0h463.052a151.45 151.45 0 0 1 114.586 52.736l69.018 76.595 80.486 95.13a151.552 151.552 0 0 1 40.96 102.4v544.051A153.6 153.6 0 0 1 819.302 1024zm-493.67-559.718a69.12 69.12 0 0 0-46.592 17.817 69.837 69.837 0 0 0-10.24 92.16l122.88 139.674a71.68 71.68 0 0 0 53.043 23.45h1.024a67.994 67.994 0 0 0 52.736-26.113l226.304-279.142v-3.482a69.12 69.12 0 0 0 19.559-74.342 68.71 68.71 0 0 0-60.928-47.206h-5.12a69.222 69.222 0 0 0-61.952 37.58l-175.821 215.04-68.096-77.516a69.018 69.018 0 0 0-46.387-18.023z"/></svg>