<svg class="icon" width="200" height="200" viewBox="0 0 1024 1024" xmlns="http://www.w3.org/2000/svg"><path d="M191.616 960a38.784 38.784 0 0 1-5.44-.32c-39.424-4.736-48.96-54.144-52.544-72.704a363.456 363.456 0 0 1-5.632-70.4c.512-234.368 207.744-479.104 437.952-495.104v-130.88a56.448 56.448 0 0 1 16.896-45.184 60.416 60.416 0 0 1 84.544-.32l276.352 301.44a64 64 0 0 1 .448 84.672L665.92 834.944a59.392 59.392 0 0 1-99.2-51.2l-.96-123.776c-121.088 10.176-252.8 133.696-309.312 243.2-8.384 17.728-30.72 56.832-64.832 56.832zm405.376-575.552c-209.408 0-404.544 222.72-404.992 432.256a300.8 300.8 0 0 0 4.48 58.176c0 1.152.448 2.24.64 3.328a42.304 42.304 0 0 0 1.472-3.008l.64-1.28c72.128-140.16 239.168-279.616 396.8-279.616h33.6l1.024 184.704 266.24-290.816-268.608-291.2 1.664 187.52h-32.96z"/></svg>