<svg class="icon" width="200" height="200" viewBox="0 0 1024 1024" xmlns="http://www.w3.org/2000/svg"><path d="M469.333 192a21.333 21.333 0 0 1 3.84 42.325l-3.84.342H234.667v554.666h554.666V554.667a21.333 21.333 0 0 1 17.494-20.992l3.84-.342a21.333 21.333 0 0 1 20.992 17.494l.341 3.84v256a21.333 21.333 0 0 1-17.493 20.992l-3.84.341H213.333a21.333 21.333 0 0 1-20.992-17.493l-.341-3.84V213.333a21.333 21.333 0 0 1 17.493-20.992l3.84-.341h256zm341.334 0h.512c.853 0 1.749.085 2.645.213l-3.157-.213a21.419 21.419 0 0 1 15.104 6.23l.469.554a21.461 21.461 0 0 1 1.408 1.664l-1.877-2.219a21.419 21.419 0 0 1 5.888 11.264l.128.768a21.461 21.461 0 0 1 .213 2.219v150.187a21.333 21.333 0 0 1-42.325 3.84l-.342-3.84v-97.878L527.104 527.104a21.333 21.333 0 0 1-32.64-27.221l2.432-2.987 262.23-262.23h-97.793a21.333 21.333 0 0 1-20.992-17.493l-.341-3.84a21.333 21.333 0 0 1 17.493-20.992l3.84-.341h149.334z"/></svg>