<svg class="icon" width="200" height="200" viewBox="0 0 1024 1024" xmlns="http://www.w3.org/2000/svg"><path d="M403.2 147.2l108.8 128h384c25.6 0 44.8 19.2 44.8 44.8v512c0 25.6-19.2 44.8-44.8 44.8H128c-25.6 0-44.8-19.2-44.8-44.8V192c0-25.6 19.2-44.8 44.8-44.8h275.2m0-64H128C70.4 83.2 19.2 134.4 19.2 192v640c0 57.6 44.8 108.8 108.8 108.8h768c57.6 0 108.8-44.8 108.8-108.8V320c0-57.6-44.8-108.8-108.8-108.8H544l-89.6-102.4c-12.8-12.8-32-25.6-51.2-25.6zM512 736c-19.2 0-32-12.8-32-32V448c0-19.2 12.8-32 32-32s32 12.8 32 32v256c0 19.2-12.8 32-32 32zm128-128H384c-19.2 0-32-12.8-32-32s12.8-32 32-32h256c19.2 0 32 12.8 32 32s-12.8 32-32 32z"/></svg>