<svg class="icon" width="200" height="200" viewBox="0 0 1024 1024" xmlns="http://www.w3.org/2000/svg"><path d="M448 1024a127.552 127.552 0 0 1-128-128V768H192A127.552 127.552 0 0 1 64 640V192A128 128 0 0 1 192 64h448a128.448 128.448 0 0 1 128 128v128h128a128.384 128.384 0 0 1 128 128v448a128 128 0 0 1-128 128zm-64-576v448a64 64 0 0 0 64 64h448a64 64 0 0 0 64-64V448a64 64 0 0 0-64-64H448a64 64 0 0 0-64 64zM128 192v448a64 64 0 0 0 64 64h128V448a128 128 0 0 1 128-128h256V192a64 64 0 0 0-64-64H192a64 64 0 0 0-64 64zm512 608v-96h-96a32 32 0 0 1-32-32 32 32 0 0 1 32-32h96v-96a32 32 0 0 1 32-32 32 32 0 0 1 32 32v96h96a32 32 0 0 1 32 32 32 32 0 0 1-32 32h-96v96a32 32 0 0 1-32 32 32 32 0 0 1-32-32z"/></svg>