<svg class="icon" width="200" height="200" viewBox="0 0 1024 1024" xmlns="http://www.w3.org/2000/svg"><path d="M832 0a96 96 0 0 1 95.84 90.368L928 96v302.016a32 32 0 0 1-63.776 3.744l-.224-3.744V96a32 32 0 0 0-28.256-31.776L832 64H192a32 32 0 0 0-31.776 28.256L160 96v832a32 32 0 0 0 28.256 31.776L192 960h158.816a32 32 0 0 1 3.744 63.776l-3.744.224H192a96 96 0 0 1-95.84-90.368L96 928V96A96 96 0 0 1 186.368.16L192 0h640zm-19.04 520.832a64 64 0 0 1 90.496 0l53.632 53.632a64 64 0 0 1 0 90.496L656.704 965.376a64 64 0 0 1-31.36 17.216l-118.08 26.24a32 32 0 0 1-38.144-38.208l26.24-118.016a64 64 0 0 1 17.184-31.36zm45.248 45.248L557.824 866.496l-15.36 68.928 68.96-15.296L911.84 619.712l-53.632-53.632zM448 576a32 32 0 0 1 0 64H320a32 32 0 0 1 0-64h128zm256-192a32 32 0 0 1 0 64H320a32 32 0 0 1 0-64h384zm0-192a32 32 0 0 1 0 64H320a32 32 0 1 1 0-64h384z"/></svg>