<svg class="icon" width="200" height="200" viewBox="0 0 1024 1024" xmlns="http://www.w3.org/2000/svg"><path d="M910.222 170.667H796.444v-56.89A114.12 114.12 0 0 0 682.667 0H398.222a114.12 114.12 0 0 0-113.778 113.778v56.889H170.667A114.12 114.12 0 0 0 56.889 284.444v568.89A114.12 114.12 0 0 0 170.667 967.11h739.555A114.12 114.12 0 0 0 1024 853.333V284.444a114.12 114.12 0 0 0-113.778-113.777zm-512-56.89h284.445v56.89H398.222zm512 739.556H170.667V568.89h256a56.889 56.889 0 0 0 56.889 56.889h113.777a56.889 56.889 0 0 0 56.89-56.89h256zM796.444 455.111H654.222a56.889 56.889 0 0 0-56.889-56.889H483.556a56.889 56.889 0 0 0-56.89 56.89h-256V284.443h739.556V455.11z"/></svg>