<svg class="icon" width="200" height="200" viewBox="0 0 1024 1024" xmlns="http://www.w3.org/2000/svg"><path d="M466.24 88c69.44 0 125.536 53.536 128.864 121.664l.16 6.432-.032 40.896h171.296a127.36 127.36 0 0 1 79.744 28.096l5.536 4.672 5.312 4.992c23.36 21.76 36.48 50.56 38.208 82.848l.192 7.52v476.64h43.424c14.528 0 26.976 10.88 28.864 23.872l.256 3.296-.192 3.072a30.944 30.944 0 0 1-26.944 30.048l-3.488.192H118.4A30.88 30.88 0 0 1 88 892c0-15.104 12.128-28.224 26.944-30.016l3.456-.224h55.36V216.096a127.872 127.872 0 0 1 116-127.456l6.592-.48 6.464-.16h163.456zM595.2 317.44l.032 544.352h9.696l2.208-.736 1.952-.448a19.616 19.616 0 0 1 2.976-.256l221.12 1.376V385.12c0-16.544-5.184-30.848-16-43.392l-4.32-4.608a61.44 61.44 0 0 0-40.384-19.36l-5.952-.256-171.328-.064zM467.744 148.48H304.288c-34.56 0-64.032 28.128-66.56 62.848l-.128 4.768-.032 645.696h298.336V216.096c0-35.488-28.128-64.96-63.328-67.456l-4.832-.16zm-9.312 413.216c17.6 0 30.56 13.92 30.56 31.04 0 15.488-12.128 28.992-27.072 30.848l-3.488.224H315.136c-16.48 0-30.56-14.4-30.56-31.04 0-15.488 12.128-28.992 27.072-30.848l3.488-.224h143.296zm309.856 0c16.512 0 30.56 14.4 30.56 31.04 0 15.488-12.128 28.992-27.072 30.848l-3.488.224H656.992c-17.6 0-30.56-13.92-30.56-31.04 0-15.488 12.128-28.992 27.072-30.848l3.488-.224h111.296zM458.432 376c18.016 0 30.56 12.832 30.56 31.04 0 15.488-12.128 28.992-27.072 30.848l-3.488.224H315.136c-16.48 0-30.56-14.4-30.56-31.04 0-15.488 12.128-28.992 27.072-30.848l3.488-.224h143.296z"/></svg>