<svg class="icon" width="200" height="200" viewBox="0 0 1024 1024" xmlns="http://www.w3.org/2000/svg"><path d="M647.33 482.91a217.367 217.367 0 0 0 83.085-171.125c0-120.157-97.7-217.856-217.856-217.856S294.703 191.628 294.703 311.76a217.833 217.833 0 0 0 83.083 171.125 364.009 364.009 0 0 0-123.81 81.57 363.194 363.194 0 0 0-107.009 258.56c0 20.201 0 41.752.14 61.673.163 19.875 16.29 36.027 36.189 36.027h658.665c19.898 0 36.189-16.152 36.189-36.05v-61.673c0-97.675-37.981-189.486-107.055-258.536a364.079 364.079 0 0 0-123.764-81.571zM367.08 311.784a145.687 145.687 0 0 1 145.455-145.501 145.687 145.687 0 0 1 145.501 145.5A145.687 145.687 0 0 1 512.56 457.264c-80.222.162-145.478-65.28-145.478-145.478zm438.692 512v24.552H219.345v-25.32c0-161.769 131.608-293.237 293.237-293.237 161.745 0 293.236 131.468 293.236 293.237v.744zm152.598-271.08a305.268 305.268 0 0 0-100.422-86.249A179.293 179.293 0 0 0 909.8 339.828a178.735 178.735 0 0 0-36.934-109.312 181.946 181.946 0 0 0-93.324-63.767 30.138 30.138 0 0 0-16.57 57.88 120.343 120.343 0 0 1 86.691 115.2A119.552 119.552 0 0 1 784.08 446.72c-10.868 5.585-17.338 17.175-16.43 29.393 1.047 12.195 9.332 22.622 20.945 26.229a240.756 240.756 0 0 1 169.31 230.656v50.665c0 16.57 13.405 30.161 29.998 30.3h.14c16.593 0 30.161-13.428 30.161-30.021V733.16a301.242 301.242 0 0 0-59.857-180.457zm-728.064-50.246c11.753-3.607 20.061-14.01 20.945-26.228a30.045 30.045 0 0 0-16.43-29.394 119.552 119.552 0 0 1-65.583-106.891 120.18 120.18 0 0 1 86.691-115.2c15.989-4.655 25.181-21.248 20.666-37.237a30.208 30.208 0 0 0-37.236-20.643 181.923 181.923 0 0 0-93.324 63.768 178.735 178.735 0 0 0-36.933 109.312c0 48.407 18.99 93.486 51.851 126.65A306.735 306.735 0 0 0 60.556 552.82 299.287 299.287 0 0 0 .698 733.324v50.804c0 16.593 13.568 30.022 30.138 30.022H31c16.57 0 30.138-13.591 29.999-30.325v-50.641a240.64 240.64 0 0 1 169.309-230.68z"/></svg>