<svg class="icon" width="200" height="200" viewBox="0 0 1024 1024" xmlns="http://www.w3.org/2000/svg"><path d="M486.4 153.6a25.6 25.6 0 0 1 4.608 50.79l-4.608.41H204.8v614.4h614.4V537.6a25.6 25.6 0 0 1 20.992-25.19l4.608-.41a25.6 25.6 0 0 1 25.19 20.992l.41 4.608v307.2a25.6 25.6 0 0 1-20.992 25.19l-4.608.41H179.2a25.6 25.6 0 0 1-25.19-20.992l-.41-4.608V179.2a25.6 25.6 0 0 1 20.992-25.19l4.608-.41h307.2zm287.795 34.406a25.6 25.6 0 0 1 36.199 36.199l-253.44 253.44a25.6 25.6 0 1 1-36.148-36.25z"/></svg>