<svg class="icon" width="200" height="200" viewBox="0 0 1024 1024" xmlns="http://www.w3.org/2000/svg"><path d="M318.976 397.824h137.882a27.546 27.546 0 1 1 0 55.091h-137.83a27.546 27.546 0 0 1 0-55.142zm0 165.376h386.048a27.546 27.546 0 0 1 0 55.142H318.976a27.546 27.546 0 0 1 0-55.142zM585.83 177.254a27.546 27.546 0 0 1 3.175 54.938l-3.175.154H208.742a27.597 27.597 0 0 0-27.392 24.37l-.204 3.226v485.223c0 14.131 10.65 25.805 24.37 27.392l3.226.153h606.516a27.597 27.597 0 0 0 27.392-24.32l.204-3.225V410.829a27.546 27.546 0 0 1 54.938-3.226l.154 3.226v334.336c0 44.032-34.407 80.025-77.824 82.534l-4.864.154H208.742c-44.032 0-80.076-34.407-82.585-77.824l-.103-4.864V259.942c0-44.032 34.407-80.076 77.824-82.585l4.864-.103H585.83zm267.674 5.786a27.546 27.546 0 0 1 36.352 41.267l-2.56 2.253-289.434 224.512a27.546 27.546 0 0 1-36.352-41.267l2.56-2.304L853.504 183.04z"/></svg>