<svg class="icon" width="200" height="199.22" viewBox="0 0 1028 1024" xmlns="http://www.w3.org/2000/svg"><path d="M602.437 179.2c-9.6-16-22.4-28.8-38.4-41.6l-6.4-3.2c-57.6-32-128-12.8-163.2 38.4l-70.4 208-262.4 188.8c-57.6 32-80 105.6-44.8 163.2l86.4 150.4 3.2 6.4c38.4 54.4 108.8 70.4 166.4 38.4l294.4-131.2 214.4 41.6c19.2 0 38.4-6.4 54.4-16 57.6-32 80-105.6 44.8-163.2l-278.4-480zm-361.6 694.4c-28.8 9.6-57.6 3.2-76.8-19.2L74.437 704c-9.6-28.8 0-57.6 22.4-76.8l41.6-28.8 147.2 256-44.8 19.2zm563.2-105.6c-6.4 3.2-12.8 6.4-19.2 6.4l-224-48-217.6 99.2-153.6-265.6 195.2-137.6 70.4-217.6c16-22.4 44.8-28.8 70.4-22.4 6.4 3.2 9.6 6.4 12.8 12.8l294.4 508.8c12.8 19.2-9.6 54.4-28.8 64zm57.6-387.2l137.6-80c16-9.6 19.2-28.8 12.8-44.8s-28.8-19.2-44.8-12.8l-137.6 80c-16 9.6-19.2 28.8-12.8 44.8 9.6 16 28.8 19.2 44.8 12.8zm-137.6-121.6c16 3.2 35.2-6.4 38.4-22.4l25.6-92.8c3.2-16-6.4-35.2-22.4-38.4-16-3.2-35.2 6.4-38.4 22.4l-25.6 92.8c-3.2 16 6.4 35.2 22.4 38.4zm262.4 224h-96c-19.2 0-32 12.8-32 32s12.8 32 32 32h96c19.2 0 32-12.8 32-32 0-16-16-32-32-32z"/></svg>