<svg class="icon" width="200" height="200" viewBox="0 0 1024 1024" xmlns="http://www.w3.org/2000/svg"><path d="M219.853 186.675a25.6 25.6 0 0 1 0 36.25A399.667 399.667 0 0 0 102.4 506.522c0 107.827 42.7 208.844 117.453 283.596a25.6 25.6 0 1 1-36.199 36.199A450.867 450.867 0 0 1 51.2 506.522c0-121.6 48.23-235.572 132.454-319.847a25.6 25.6 0 0 1 36.199 0zm603.392 0A450.867 450.867 0 0 1 955.75 506.522c0 121.548-48.23 235.52-132.505 319.795a25.6 25.6 0 1 1-36.199-36.199A399.667 399.667 0 0 0 904.55 506.47c0-107.827-42.752-208.844-117.504-283.545a25.6 25.6 0 1 1 36.199-36.25zm-90.47 90.522a323.277 323.277 0 0 1 94.975 229.325 323.277 323.277 0 0 1-94.976 229.273 25.6 25.6 0 1 1-36.198-36.198 272.077 272.077 0 0 0 79.974-193.075 272.077 272.077 0 0 0-79.974-193.127 25.6 25.6 0 0 1 36.198-36.198zm-422.4 0a25.6 25.6 0 0 1 0 36.198A272.077 272.077 0 0 0 230.4 506.522c0 73.42 29.082 142.182 79.974 193.024a25.6 25.6 0 0 1-36.198 36.25A323.277 323.277 0 0 1 179.2 506.521c0-87.194 34.56-168.91 94.976-229.325a25.6 25.6 0 0 1 36.198 0zM571.34 395.57c58.777 0 107.059 45.517 107.059 102.4 0 39.987-20.224 76.083-55.245 113.255l-12.032 12.288-6.656 6.45-25.6 23.758c-17.459 15.155-38.041 30.208-61.798 45.107a25.6 25.6 0 0 1-27.239 0 466.432 466.432 0 0 1-71.782-54.272l-28.416-27.239-5.888-6.144c-34.97-37.12-55.194-73.216-55.194-113.203 0-56.883 48.23-102.4 107.008-102.4 23.962 0 46.644 7.578 65.024 20.992l2.868 2.304 2.918-2.304c16.077-11.776 35.43-18.995 56.064-20.633zm0 51.2c-19.303 0-36.762 9.011-46.95 23.501a25.6 25.6 0 0 1-41.831 0l-4.147-5.171a57.856 57.856 0 0 0-42.803-18.33c-31.232 0-55.86 23.245-55.86 51.2 0 23.86 14.439 49.613 41.319 78.183l10.752 10.956 19.046 18.125 12.903 11.623c7.424 6.4 15.616 12.8 24.524 19.25l15.156 10.548 11.827-8.192a367.754 367.754 0 0 0 27.904-21.606l10.598-9.524 21.35-20.224 10.753-10.956c26.88-28.57 41.318-54.272 41.318-78.183 0-27.955-24.678-51.2-55.808-51.2z"/></svg>