<svg class="icon" width="200" height="200" viewBox="0 0 1024 1024" xmlns="http://www.w3.org/2000/svg"><path d="M742.4 512a25.6 25.6 0 0 1 25.6 25.6v128h128a25.6 25.6 0 1 1 0 51.2H768v128a25.6 25.6 0 1 1-51.2 0v-128h-128a25.6 25.6 0 1 1 0-51.2h128v-128a25.6 25.6 0 0 1 25.6-25.6zm-73.216-358.4A252.416 252.416 0 0 1 921.6 406.016c0 22.272-8.909 59.392-12.493 67.38-4.045 8.96-13.414 21.913-26.368 21.913a26.88 26.88 0 0 1-26.777-26.829c0-4.454 2.662-12.493 2.662-12.493 5.786-17.408 8.909-33.945 8.909-50.022a199.168 199.168 0 0 0-198.759-198.759 198.758 198.758 0 0 0-138.444 56.32l-18.79 18.279-18.74-18.33a198.758 198.758 0 0 0-138.496-56.32 199.885 199.885 0 0 0-199.168 198.861c0 141.158 244.736 326.963 355.994 398.438a25.907 25.907 0 0 1 12.492 22.324 26.88 26.88 0 0 1-26.828 26.828c-4.916 0-13.824-4.044-13.824-4.044s-.922-.461-1.332-.87C393.165 790.117 102.4 583.68 102.4 405.964A252.416 252.416 0 0 1 512 208.538 250.368 250.368 0 0 1 669.184 153.6z"/></svg>