<?xml version="1.0" standalone="no"?><!DOCTYPE svg PUBLIC "-//W3C//DTD SVG 1.1//EN" "http://www.w3.org/Graphics/SVG/1.1/DTD/svg11.dtd"><svg t="1622622621142" class="icon" viewBox="0 0 1024 1024" version="1.1" xmlns="http://www.w3.org/2000/svg" p-id="8276" xmlns:xlink="http://www.w3.org/1999/xlink" width="32" height="32"><defs><style type="text/css"></style></defs><path d="M910.279111 56.888889h-739.555555a113.777778 113.777778 0 0 0-113.777778 113.777778v568.888889a113.777778 113.777778 0 0 0 113.777778 113.777777h557.795555l295.537778 113.777778V170.666667a113.777778 113.777778 0 0 0-113.777778-113.777778z m0 682.666667v61.838222l-140.856889-54.272-19.740444-7.566222H170.723556V170.666667h739.555555z" p-id="8277"></path><path d="M341.390222 398.279111h398.222222a56.888889 56.888889 0 0 0 0-113.777778h-398.222222a56.888889 56.888889 0 0 0 0 113.777778z" p-id="8278"></path><path d="M341.390222 568.945778h284.444445a56.888889 56.888889 0 0 0 0-113.777778h-284.444445a56.888889 56.888889 0 0 0 0 113.777778z" p-id="8279"></path></svg>