<svg class="icon" width="200" height="200" viewBox="0 0 1024 1024" xmlns="http://www.w3.org/2000/svg"><path d="M290.93 318.52L448.683 201.9a161.223 161.223 0 0 1 150.414-20.537l250.937 93.184c16.668 6.314 34.133 8.988 50.745 8.988h41.529c11.946 0 22.186 8.989 22.186 20.65v299.464a22.187 22.187 0 0 1-22.186 21.504h-54.386a35.499 35.499 0 0 0-21.22 7.225l-12.003 9.785c-2.788 2.73-7.396 1.82-10.183-.854l-292.41-346.112a24.576 24.576 0 0 0-30.492-5.347l-133.802 72.647a103.424 103.424 0 0 1-87.61 4.437 29.355 29.355 0 0 1-15.758-38.57c0-3.584 2.788-7.168 6.429-9.842zM84.31 624.3h46.99l33.223-39.481c29.582-34.987 83.057-39.481 119.068-10.81 12.914 10.81 23.04 25.146 27.648 41.302 28.615 7.168 50.745 28.672 59.05 56.49 20.31 6.259 38.742 18.774 48.925 37.661 17.522 2.674 34.134 10.752 47.047 23.325 26.738 27.762 32.256 69.006 11.947 102.172l-4.551 8.078v.91a49.55 49.55 0 0 0 67.3-11.662c7.395-10.808 10.24-23.324 7.395-35.84v-.91h.967l3.698 3.584a51.37 51.37 0 0 0 62.691 6.258 46.421 46.421 0 0 0 19.343-47.502v-.91h.967l3.698 3.584a51.2 51.2 0 0 0 62.748 6.257 46.933 46.933 0 0 0 20.252-47.502v-.853h.968l3.697 3.584a49.948 49.948 0 0 0 59.051 7.11 46.99 46.99 0 0 0 22.073-28.899 45.739 45.739 0 0 0-11.037-42.837l-29.525-34.93L529.01 340.025a8.533 8.533 0 0 0-10.183-1.764L404.48 400.156a147.456 147.456 0 0 1-120.036 8.875 76.345 76.345 0 0 1-46.99-44.828 77.198 77.198 0 0 1 8.25-63.716 10.183 10.183 0 0 0 .852-8.078 10.524 10.524 0 0 0-5.404-6.258c-1.877-.853-3.698-.853-5.575-.853H79.7a22.073 22.073 0 0 0-15.473 5.86 20.821 20.821 0 0 0-6.713 14.79v298.496c4.608 10.81 14.79 19.798 26.737 19.798h.057zm166.115-21.504a42.325 42.325 0 0 0-53.533 10.695l-32.37 38.57c-13.823 17.067-11.946 42.098 5.576 55.58h.91l4.608 3.642c12.914 9.842 31.346 10.695 45.227 3.584.91-.91 1.82 0 2.73.853v1.764c-2.844 14.563 2.845 29.411 14.791 38.627l3.755 2.674a43.69 43.69 0 0 0 44.203 4.494c.967-.967 2.844 0 2.844.854v.91c-1.877 13.426 4.551 26.908 15.645 35.84l2.73 1.82c12.516 10.013 30.151 11.492 44.317 3.584.91-.91 2.787 0 2.787.854v.967c1.82 9.841 7.396 18.773 15.645 25.03l1.877.968c18.432 13.426 44.26 10.695 58.084-7.225a18.773 18.773 0 0 1 3.754-4.437l5.519-9.842a40.05 40.05 0 0 0-7.396-51.2 43.406 43.406 0 0 0-45.227-7.168c-.91 0-.91 0-1.82-.853v-.91a41.7 41.7 0 0 0-38.798-42.098 54.784 54.784 0 0 0-16.612 2.673c-6.428.91-4.551-4.55-4.551-4.55a39.538 39.538 0 0 0-22.187-51.94 43.35 43.35 0 0 0-35.043 1.763c-4.608.91-3.698-3.584-3.698-3.584 11.947-17.066 5.575-41.244-13.824-51.94z"/></svg>