<svg class="icon" width="200" height="200" viewBox="0 0 1024 1024" xmlns="http://www.w3.org/2000/svg"><path d="M692.064 564.544a30.336 30.336 0 0 1 32.352 4.576c88.256 73.216 139.104 203.2 138.752 324.48 0 19.712-13.12 43.296-31.168 43.296-18.016 0-34.048-23.552-34.048-43.2.32-99.04-41.088-207.968-113.12-267.776a37.376 37.376 0 0 1-12.576-32.96c1.504-12.672 9.056-23.52 19.808-28.416zM506.944 64c64.224 0 125.824 26.464 171.2 73.568a255.904 255.904 0 0 1 70.944 177.536c0 66.56-25.504 130.464-70.88 177.536a237.76 237.76 0 0 1-171.2 73.504c-161.376.32-292.128 169.12-292.32 336.48 0 18.944-14.816 34.24-33.056 34.24-18.24 0-33.024-15.296-33.024-34.24.768-151.744 89.856-321.152 225.504-378.016-89.472-60.8-129.792-175.36-99.136-281.664C305.6 136.64 399.968 63.872 506.976 64zm26.24 630.528C551.84 738.208 576 800.224 576 827.712c0 38.848-64 65.92-64 65.92s-64-27.072-64-65.92c0-27.488 24.128-89.44 42.816-133.184 13.312 7.52 29.056 7.52 42.368 0zM806.24 97.408l3.424 1.184c54.592 22.688 97.92 72.768 115.264 137.248 24.032 89.792-7.552 186.56-77.696 237.952 106.336 48.032 176.192 163.136 176.768 291.36 0 15.968-11.584 28.928-25.888 28.928-14.304 0-25.92-12.96-25.92-28.928C972.032 637.856 888.8 533.12 780 513.088l-.8.16c-11.072.96-21.76-4.992-27.744-15.456a37.216 37.216 0 0 1-.96-34.688c5.408-10.88 15.712-17.536 26.88-17.344 60.96-17.344 103.68-78.656 103.808-148.96-.064-63.552-35.008-120.544-88.064-143.52-.576-1.44-2.24-3.104-5.088-4.992l-2.336-1.44A27.008 27.008 0 0 1 806.24 97.44zm-588.48 0a27.008 27.008 0 0 1 20.544 49.44l-2.336 1.44c-2.816 1.888-4.512 3.52-5.12 4.992-53.024 22.976-88 79.968-88 143.52.096 70.304 42.816 131.616 103.808 148.96 11.136-.192 21.44 6.496 26.88 17.344 5.376 10.88 5.024 24.192-.96 34.688-6.016 10.464-16.704 16.416-27.776 15.456l-.8-.16C135.2 533.12 51.968 637.856 51.776 765.152c0 15.968-11.584 28.928-25.888 28.928C11.584 794.08 0 781.12 0 765.152c.576-128.224 70.4-243.328 176.768-291.36-70.144-51.392-101.76-148.16-77.696-237.952 17.376-64.48 60.672-114.56 115.264-137.248zm294.304 497.568c17.664 0 31.936 14.88 31.936 33.184 0 18.336-14.336 33.184-32 33.184s-32-14.848-32-33.184c0-18.304 14.272-33.152 32.064-33.184zM595.2 156.96a170.816 170.816 0 0 0-176.224-.064c-54.528 32.64-88.16 92.96-88.16 158.272 0 100.928 78.848 182.784 176.192 182.784 97.344.032 176.256-81.76 176.288-182.72 0-65.28-33.568-125.632-88.096-158.272z"/></svg>