<svg class="icon" width="200" height="200" viewBox="0 0 1024 1024" xmlns="http://www.w3.org/2000/svg"><path d="M907.378 196.836l-5.69-.57h-73.955L586.524 79.077a186.766 186.766 0 0 0-52.906-17.636 190.009 190.009 0 0 0-39.822-4.551h-4.552a116.736 116.736 0 0 0-21.048 1.707h-9.103l-12.515 3.413a192.569 192.569 0 0 0-34.702 11.947 217.259 217.259 0 0 0-56.89 36.977l-6.826 6.258-6.258 6.827-56.889 69.404h-153.6A128.455 128.455 0 0 0 31.29 241.21 141.54 141.54 0 0 0 0 325.404V660.48l3.413 13.084a139.435 139.435 0 0 0 116.623 106.952l7.964 1.137h46.08l142.791 123.45a239.9 239.9 0 0 0 162.702 62.008 277.333 277.333 0 0 0 118.33-26.169l7.964-3.982 7.964-4.551 235.52-158.151a163.157 163.157 0 0 0 43.236 7.395h7.964l7.396-1.137A130.844 130.844 0 0 0 1024 647.964V326.542a128.455 128.455 0 0 0-116.622-129.706zM550.116 837.404a164.295 164.295 0 0 1-70.543 15.93 129.195 129.195 0 0 1-88.177-34.134L233.813 682.667a59.506 59.506 0 0 0-39.822-14.791h-58.595a27.477 27.477 0 0 1-21.618-20.48V328.249a24.292 24.292 0 0 1 5.689-15.36 14.28 14.28 0 0 1 11.946-5.689h62.01a120.548 120.548 0 0 0-18.205 40.96 142.222 142.222 0 0 0 58.595 155.307l3.983 2.844 4.55 1.707a169.301 169.301 0 0 0 77.938 20.48 166.172 166.172 0 0 0 98.418-31.29l26.17-17.635L744.106 707.13zm360.106-188.302a17.067 17.067 0 0 1-14.79 18.774c-19.912-.57-30.152-10.81-51.2-27.307l-11.379-8.533-50.062-38.116L460.8 348.729a31.061 31.061 0 0 0-12.516-7.965 28.444 28.444 0 0 0-7.395 2.845L353.28 404.48a55.524 55.524 0 0 1-31.289 10.24h-.569a57.287 57.287 0 0 1-25.6-6.827 26.795 26.795 0 0 1-10.24-31.857 9.102 9.102 0 0 1 4.551-7.965l43.805-54.044 81.35-99.556 14.792-18.204a108.487 108.487 0 0 1 29.582-18.774 42.894 42.894 0 0 1 13.654-4.55c1.137 0 2.275-.57 3.413-.57a47.388 47.388 0 0 1 12.515-1.706h3.983a58.71 58.71 0 0 1 17.066 2.275 91.591 91.591 0 0 1 26.738 8.534l199.111 97.28 1.707.568 47.218 22.756a56.206 56.206 0 0 0 21.049 6.258 43.292 43.292 0 0 0 11.946 1.706H896a15.758 15.758 0 0 1 14.222 16.498z"/></svg>