<svg class="icon" width="200" height="200" viewBox="0 0 1024 1024" xmlns="http://www.w3.org/2000/svg"><path d="M524.8 512c-41.42 0-78.758-26.496-94.592-67.162-15.86-40.652-7.104-87.45 22.182-118.566 29.287-31.117 73.344-40.422 111.604-23.59C602.24 319.526 627.2 359.194 627.2 403.2c-.064 60.058-45.875 108.736-102.4 108.8zm-12.032 268.8c91.648 0 172.16-16.333 172.16-95.206 0-78.848-74.291-142.797-165.926-142.797-91.648 0-178.381 63.936-178.381 142.81 0 78.847 80.512 95.193 172.16 95.193z"/><path d="M667.904 153.6L832 333.709v471.974c0 35.75-27.238 64.717-60.826 64.717H252.826c-33.588 0-60.826-28.966-60.826-64.717V218.317c0-35.75 27.238-64.717 60.826-64.717h415.078zm-12.89 32.358H252.838c-16.05 0-29.184 13.197-30.336 29.94l-.09 2.419v587.366c0 17.063 12.417 31.04 28.148 32.269l2.266.09h518.348c16.039 0 29.172-13.197 30.336-29.94l.077-2.419V346.83L655.014 185.96z"/><path d="M519.002 514.47a120.73 120.73 0 0 1-85.325-206.054 120.653 120.653 0 0 1 206.003 85.35c-.077 66.637-54.054 120.64-120.678 120.704zm0-212.992a92.288 92.288 0 0 0-92.288 92.288 92.288 92.288 0 1 0 184.576 0 92.378 92.378 0 0 0-92.288-92.288z"/><path d="M337.626 733.197c-8.128 0-14.72-7.232-14.72-16.167 0-85.721 48.307-162.483 121.305-192.716 72.999-30.234 155.392-7.63 206.887 56.768 5.376 6.72 4.761 16.934-1.344 22.835-6.106 5.888-15.412 5.248-20.775-1.472-43.405-54.26-112.857-73.306-174.361-47.821-61.517 25.472-102.247 90.163-102.26 162.406 0 4.288-1.548 8.41-4.313 11.444a14.08 14.08 0 0 1-10.42 4.736zm181.363-269.735c-27.52 0-51.789-19.072-59.802-47.001-1.254-4.352-.205-9.088 2.727-12.416 2.93-3.328 7.308-4.736 11.494-3.712 4.186 1.024 7.526 4.352 8.78 8.704 4.916 17.216 19.866 28.979 36.814 28.979 16.947 0 31.897-11.776 36.825-28.966 1.242-4.352 4.583-7.68 8.768-8.717 4.186-1.024 8.576.384 11.507 3.712 2.932 3.328 3.968 8.064 2.714 12.416-7.91 28.019-32.269 47.155-59.827 47.001zm105.843 238.004c-8.46 0-15.322-7.104-15.322-15.872 0-8.756 6.861-15.872 15.322-15.872h90.048c5.478.025 10.534 3.059 13.26 7.961 2.727 4.915 2.727 10.97-.025 15.872a15.232 15.232 0 0 1-13.286 7.91h-89.984z"/><path d="M654.758 732.966v-94.72c0-8.896 6.759-16.115 15.092-16.115 8.32 0 15.078 7.22 15.078 16.115v94.72c0 4.276-1.587 8.372-4.416 11.392a14.592 14.592 0 0 1-10.675 4.71c-8.32 0-15.079-7.206-15.079-16.102z"/></svg>