<svg class="icon" width="200" height="200" viewBox="0 0 1024 1024" xmlns="http://www.w3.org/2000/svg"><path d="M1016.283 487.188c-131.15-179.594-307.2-290.265-504.123-290.265S139.188 307.593 8.037 486.793a42.93 42.93 0 0 0 0 50.02c131.151 179.593 307.2 290.264 504.123 290.264s372.973-110.67 504.123-289.87a42.93 42.93 0 0 0 0-50.02zM708.69 526.572a196.923 196.923 0 1 1-209.527-211.495 196.923 196.923 0 0 1 209.92 209.92z"/><path d="M504.677 393.846a118.154 118.154 0 1 0 125.637 125.637 118.154 118.154 0 0 0-125.637-125.637z"/></svg>