<svg class="icon" width="200" height="200" viewBox="0 0 1024 1024" xmlns="http://www.w3.org/2000/svg"><path d="M1002.057 899.657L855.771 753.371c138.972-182.857 124.343-446.171-43.885-614.4C716.8 43.886 599.77 0 475.429 0 351.086 0 234.057 43.886 138.97 138.971c-182.857 182.858-182.857 490.058 0 672.915 95.086 95.085 212.115 138.971 336.458 138.971 95.085 0 197.485-29.257 277.942-95.086l146.286 146.286 102.4-102.4zM241.371 709.486c-131.657-131.657-131.657-336.457 0-468.115 65.829-58.514 146.286-95.085 234.058-95.085s168.228 36.571 234.057 95.085C768 299.886 804.57 387.657 804.57 475.43S768 643.657 709.486 709.486C650.97 768 563.2 804.57 475.429 804.57S307.2 768 241.37 709.486z"/></svg>