<svg class="icon" width="200" height="200" viewBox="0 0 1024 1024" xmlns="http://www.w3.org/2000/svg"><path d="M682.667 682.667A284.444 284.444 0 0 1 967.11 967.11H56.89a284.444 284.444 0 0 1 284.444-284.444h341.334m0-56.89H341.333A341.333 341.333 0 0 0 0 967.112 56.889 56.889 0 0 0 56.889 1024H967.11a56.889 56.889 0 0 0 56.89-56.889 341.333 341.333 0 0 0-341.333-341.333zM512 56.89a227.556 227.556 0 1 1-227.556 227.555A227.556 227.556 0 0 1 512 56.89M512 0a284.444 284.444 0 1 0 284.444 284.444A284.444 284.444 0 0 0 512 0z"/></svg>