<svg class="icon" width="200" height="200" viewBox="0 0 1024 1024" xmlns="http://www.w3.org/2000/svg"><path d="M987.429 146.286H36.57a36.571 36.571 0 0 0 0 73.143h88.503l77.532 698.514a36.571 36.571 0 0 0 36.571 32.914H784.09a36.571 36.571 0 0 0 36.572-32.914l78.263-698.514h88.503a36.571 36.571 0 0 0 0-73.143zM594.65 219.429l-24.137 658.285H453.486L429.349 219.43zm-395.702 0h157.257l24.137 658.285h-107.52zm552.228 658.285H644.39l24.137-658.285h157.257zM328.411 73.143h365.715a36.571 36.571 0 1 0 0-73.143H328.41a36.571 36.571 0 0 0 0 73.143z"/></svg>