<svg class="icon" width="200" height="200" viewBox="0 0 1024 1024" xmlns="http://www.w3.org/2000/svg"><path d="M773.12 640H250.88A250.88 250.88 0 0 0 0 890.88v35.2A98.56 98.56 0 0 0 98.56 1024h826.88a98.56 98.56 0 0 0 98.56-98.56v-35.2A250.88 250.88 0 0 0 773.12 640zM960 925.44A34.56 34.56 0 0 1 925.44 960H98.56A34.56 34.56 0 0 1 64 925.44v-35.2A186.88 186.88 0 0 1 250.88 704h522.24A186.88 186.88 0 0 1 960 890.88zM512 576a288 288 0 1 0-288-288 288.64 288.64 0 0 0 288 288zm0-512a224 224 0 1 1-224 224A224 224 0 0 1 512 64z"/></svg>