<svg class="icon" width="200" height="200" viewBox="0 0 1024 1024" xmlns="http://www.w3.org/2000/svg"><path d="M739.553 287.867v-89.883A197.97 197.97 0 0 0 541.582.014H427.806a197.97 197.97 0 0 0-200.247 197.97v89.883A258.272 258.272 0 0 0 .007 543.864v221.295A259.41 259.41 0 0 0 259.417 1024h448.847a259.41 259.41 0 0 0 258.841-259.41V543.864a258.272 258.272 0 0 0-227.552-255.997zm-398.217-89.883a84.194 84.194 0 0 1 84.194-84.195h113.776a84.194 84.194 0 0 1 86.47 84.195v86.47h-284.44zm511.993 568.882a145.634 145.634 0 0 1-145.634 143.358H259.417A145.634 145.634 0 0 1 113.783 764.59V543.864A145.634 145.634 0 0 1 259.417 398.23h448.847A145.634 145.634 0 0 1 853.33 543.864z"/><path d="M483.556 512.007a85.332 85.332 0 0 0-28.444 165.544v90.452a28.444 28.444 0 0 0 56.888 0v-90.452a85.332 85.332 0 0 0-28.444-165.544z"/></svg>