<svg class="icon" width="200" height="200" viewBox="0 0 1024 1024" xmlns="http://www.w3.org/2000/svg"><path d="M661.05 512H306.065A306.062 306.062 0 0 0 .002 818.062V921.6a101.831 101.831 0 0 0 101.83 102.4h763.45a101.831 101.831 0 0 0 101.83-101.831V818.062A306.062 306.062 0 0 0 661.052 512zm192.285 398.222H113.779v-92.16a192.853 192.853 0 0 1 192.285-192.284h354.418a192.853 192.853 0 0 1 192.853 192.284zm-369.778-455.11a227.556 227.556 0 1 0-227.555-227.556A227.556 227.556 0 0 0 483.557 455.11zm0-341.334A113.778 113.778 0 1 1 369.78 227.556a113.778 113.778 0 0 1 113.778-113.778z"/><path d="M483.557 625.778l-85.333 170.666 85.333 113.778 85.334-113.778-85.334-170.666z"/></svg>