<svg class="icon" width="200" height="200" viewBox="0 0 1024 1024" xmlns="http://www.w3.org/2000/svg"><path d="M113.778 227.556h170.666v56.888H113.778zm227.555 0H512v56.888H341.333zM113.778 398.222h170.666v56.89H113.778zm227.555 0H512v56.89H341.333zm398.223 56.89h113.777V512H739.556zm0 113.777h113.777v56.889H739.556zm-625.778 0h170.666v56.889H113.778zm227.555 0H512v56.889H341.333zm625.778-284.445H625.778V56.89A56.889 56.889 0 0 0 568.888 0h-512A56.889 56.889 0 0 0 0 56.889V967.11A56.889 56.889 0 0 0 56.889 1024H967.11a56.889 56.889 0 0 0 56.89-56.889V341.333a56.889 56.889 0 0 0-56.889-56.889zM568.89 967.111h-512V56.89h512v910.22zm398.222 0H625.778V341.333H967.11z"/></svg>