<svg class="icon" width="200" height="138.47" viewBox="0 0 1479 1024" xmlns="http://www.w3.org/2000/svg"><path d="M1373.298 0H105.813A105.813 105.813 0 0 0 0 105.813v812.374A105.813 105.813 0 0 0 105.813 1024h1267.485a105.813 105.813 0 0 0 105.813-105.813V105.813A105.813 105.813 0 0 0 1373.298 0zm-7.965 910.222H113.778V113.778h1251.555z"/><path d="M227.556 227.556h113.777v113.777H227.556zm227.555 0H568.89v113.777H455.11zm227.556 0h113.777v113.777H682.667zm227.555 0H1024v113.777H910.222zM227.556 455.11H455.11v113.78H227.556zm341.333 0h113.778v113.78H568.889zm227.555 0h113.778v113.78H796.444zM1024 568.89h227.556V227.556h-113.778V455.11H1024v113.78zM227.556 682.667h113.777v113.777H227.556zm227.555 0H1024v113.777H455.111zm682.667 0h113.778v113.777h-113.778z"/></svg>