<svg class="icon" width="200" height="200" viewBox="0 0 1024 1024" xmlns="http://www.w3.org/2000/svg"><path d="M992.098 448.197l-70.104-39.385a455.68 455.68 0 0 0 29.932-83.889 39.385 39.385 0 0 0-76.406-18.51 373.76 373.76 0 0 1-725.858 0 39.385 39.385 0 0 0-76.407 18.51 455.286 455.286 0 0 0 29.933 83.89l-70.105 39.384a39.385 39.385 0 0 0 39.385 68.135l70.104-39.384a450.954 450.954 0 0 0 111.065 111.458l-39.385 69.71a39.385 39.385 0 0 0 68.136 39.386l39.384-69.711a450.954 450.954 0 0 0 150.843 41.747v78.77a39.385 39.385 0 0 0 78.77 0v-78.77a450.954 450.954 0 0 0 152.024-39.384l39.385 69.71a39.385 39.385 0 0 0 68.135-39.384l-39.384-69.71a450.954 450.954 0 0 0 111.064-111.46l70.105 39.385a39.385 39.385 0 0 0 39.384-68.135z"/></svg>