<svg class="icon" width="200" height="200" viewBox="0 0 1024 1024" xmlns="http://www.w3.org/2000/svg"><path d="M910.222 341.333H56.89A56.889 56.889 0 0 0 0 398.223V967.11A56.889 56.889 0 0 0 56.889 1024h853.333a56.889 56.889 0 0 0 56.89-56.889V398.222a56.889 56.889 0 0 0-56.89-56.889zm0 625.778H56.89V398.222h853.333zM113.778 284.444a28.444 28.444 0 0 0 38.115-13.653 369.209 369.209 0 0 1 667.307 0 28.444 28.444 0 0 0 51.2-24.462 426.098 426.098 0 0 0-770.276 0 28.444 28.444 0 0 0 13.654 38.115zM455.11 568.89H512v227.555h-56.889z"/></svg>