<svg class="icon" width="200" height="200" viewBox="0 0 1024 1024" xmlns="http://www.w3.org/2000/svg"><path d="M714.525 170.667h-34.703A198.542 198.542 0 0 0 483.556 0a198.542 198.542 0 0 0-196.267 170.667h-34.702A252.587 252.587 0 0 0 .001 423.253v347.591a252.587 252.587 0 0 0 252.586 253.155h461.369A252.587 252.587 0 0 0 967.11 771.413v-348.16a252.587 252.587 0 0 0-252.586-252.586zm-230.97-56.89a85.333 85.333 0 0 1 80.783 56.89H402.774a85.333 85.333 0 0 1 80.782-56.89zm369.778 657.636a139.378 139.378 0 0 1-138.808 138.809H252.587a139.378 139.378 0 0 1-138.809-138.81V423.254a139.378 139.378 0 0 1 138.81-138.809h461.368a139.378 139.378 0 0 1 139.377 138.81z"/><path d="M768 512H568.89v-22.756a34.133 34.133 0 0 0-34.134-34.133h-102.4a34.133 34.133 0 0 0-34.133 34.133V512H199.112a28.444 28.444 0 0 0 0 56.889h199.11v22.755a34.133 34.133 0 0 0 34.134 34.133h102.4a34.133 34.133 0 0 0 34.133-34.133V568.89H768a28.444 28.444 0 0 0 0-56.89z"/></svg>