<svg class="icon" width="200" height="200" viewBox="0 0 1024 1024" xmlns="http://www.w3.org/2000/svg"><path d="M682.73 299.804a56.889 56.889 0 0 0-113.779 0v455.112a151.324 151.324 0 0 1-145.635 155.306h-163.84A151.324 151.324 0 0 1 113.84 753.778V270.222a151.324 151.324 0 0 1 145.636-156.444 56.889 56.889 0 0 0 0-113.778A265.102 265.102 0 0 0 .063 270.222V753.21A265.102 265.102 0 0 0 259.476 1024h163.84a265.102 265.102 0 0 0 259.413-270.222z"/><path d="M707.76 0H600.81a265.102 265.102 0 0 0-259.414 270.222v455.111a56.889 56.889 0 1 0 113.778 0v-455.11a151.324 151.324 0 0 1 145.635-156.445h107.52a151.324 151.324 0 0 1 145.067 156.444V753.21A151.324 151.324 0 0 1 707.76 910.222a56.889 56.889 0 0 0 0 113.778 265.102 265.102 0 0 0 259.414-270.222V270.222A265.102 265.102 0 0 0 707.76 0z"/></svg>