<svg class="icon" width="200" height="200" viewBox="0 0 1024 1024" xmlns="http://www.w3.org/2000/svg"><path d="M705.422 0H261.69A261.689 261.689 0 0 0 0 261.689V762.31A261.689 261.689 0 0 0 261.689 1024h443.733a261.689 261.689 0 0 0 261.69-261.689V261.69A261.689 261.689 0 0 0 705.421 0zm147.911 762.311a148.48 148.48 0 0 1-147.91 147.911H261.688a148.48 148.48 0 0 1-147.911-147.91V261.688a148.48 148.48 0 0 1 147.91-147.911h443.734a148.48 148.48 0 0 1 147.911 147.91z"/><path d="M654.222 284.444H512V256a28.444 28.444 0 0 0-56.889 0v28.444h-56.889a113.778 113.778 0 0 0 0 227.556h56.89v113.778h-113.78v-44.942a28.444 28.444 0 1 0-56.889 0v73.386a28.444 28.444 0 0 0 28.445 28.445H455.11v28.444a28.444 28.444 0 0 0 56.889 0v-28.444h56.889a113.778 113.778 0 0 0 0-227.556H512V341.333h113.778v44.943a28.444 28.444 0 1 0 56.889 0v-73.387a28.444 28.444 0 0 0-28.445-28.445zM568.89 512a56.889 56.889 0 0 1 0 113.778H512V512zm-113.78-56.889h-56.889a56.889 56.889 0 0 1 0-113.778h56.89z"/></svg>