<svg class="icon" width="200" height="200" viewBox="0 0 1024 1024" xmlns="http://www.w3.org/2000/svg"><path d="M825.6 64h-19.2c-105.6 3.2-208 35.2-294.4 96-86.4-60.8-188.8-92.8-294.4-96h-19.2c-57.6 0-112 9.6-166.4 28.8v800C89.6 873.6 147.2 864 208 864c108.8 0 214.4 32 304 96 89.6-64 195.2-96 304-96 60.8 0 118.4 9.6 176 28.8v-800C937.6 73.6 883.2 64 825.6 64zM96 809.6V140.8c32-6.4 67.2-12.8 102.4-12.8h16c92.8 3.2 182.4 32 259.2 83.2l6.4 6.4v649.6C396.8 822.4 304 800 208 800c-38.4 0-76.8 3.2-112 9.6zm832 0c-35.2-6.4-73.6-9.6-112-9.6-96 0-188.8 22.4-272 67.2V214.4l3.2-3.2c76.8-51.2 166.4-80 259.2-83.2h16c35.2 0 70.4 6.4 102.4 12.8v668.8zM608 304c-16 9.6-22.4 28.8-12.8 41.6 6.4 9.6 16 16 28.8 16 6.4 0 9.6 0 16-3.2 64-32 137.6-48 211.2-41.6 19.2 0 32-12.8 35.2-28.8 0-19.2-12.8-32-28.8-35.2C768 249.6 684.8 265.6 608 304zm246.4 112c-83.2-6.4-169.6 9.6-246.4 48-16 9.6-22.4 28.8-12.8 41.6 6.4 9.6 16 16 28.8 16 6.4 0 9.6 0 16-3.2 64-32 137.6-48 211.2-41.6 19.2 0 32-12.8 35.2-28.8-3.2-16-16-28.8-32-32zm0 160c-83.2-6.4-169.6 9.6-246.4 48-16 9.6-22.4 28.8-12.8 41.6 6.4 9.6 16 16 28.8 16 6.4 0 9.6 0 16-3.2 64-32 137.6-48 211.2-41.6 19.2 0 32-12.8 35.2-28.8s-16-28.8-32-32z"/></svg>