<svg class="icon" width="200" height="200" viewBox="0 0 1024 1024" xmlns="http://www.w3.org/2000/svg"><path d="M434.29 719.076a258.674 258.674 0 1 1 258.9 258.446 259.015 259.015 0 0 1-258.9-258.446zm142.222 64.568a25.884 25.884 0 0 0 25.998 25.657h64.683v64.683a25.828 25.828 0 1 0 51.655 0v-64.683h64.569a25.77 25.77 0 1 0 0-51.541h-64.569v-25.998h64.569a25.884 25.884 0 0 0 25.998-25.657 26.169 26.169 0 0 0-25.998-25.998H602.51a26.169 26.169 0 0 0-25.998 25.998 25.884 25.884 0 0 0 25.998 25.657h64.683v25.998H602.51a26.055 26.055 0 0 0-25.998 25.77zm26.34-225.109a24.576 24.576 0 0 0-7.453 17.977 26.055 26.055 0 0 0 7.453 18.546l70.2 70.087 2.447 2.219a25.657 25.657 0 0 0 34.133-2.22l70.2-70.086 2.106-2.56a25.543 25.543 0 0 0-2.105-34.134l-2.219-2.104a24.804 24.804 0 0 0-15.986-5.69 26.112 26.112 0 0 0-18.318 7.68l-51.882 51.997-52.338-51.996-2.446-2.105a23.609 23.609 0 0 0-15.759-5.69 26.055 26.055 0 0 0-18.033 8.08zM176.185 879.218c-67.129-29.014-103.88-67.641-103.88-108.544V641.308c0 41.131 37.434 80.1 106.099 109.455a609.849 609.849 0 0 0 186.424 42.666 339.968 339.968 0 0 0 62.578 132.096 656.725 656.725 0 0 1-250.994-46.307zm-22.756-191.659c-52.565-27.534-81.35-62.236-81.35-97.792V460.231c0 41.472 37.432 80.441 106.097 109.796a618.155 618.155 0 0 0 195.129 43.349 339.513 339.513 0 0 0-17.067 105.472c0 7.452 0 15.132.91 22.756a567.694 567.694 0 0 1-203.264-54.045zm12.004-174.99c-60.245-28.445-93.355-65.309-93.355-103.993V279.381c0 41.472 37.433 80.441 106.098 109.796a672.825 672.825 0 0 0 255.659 45.511 799.175 799.175 0 0 0 86.869-4.665A339.172 339.172 0 0 0 394.581 563.03a616.505 616.505 0 0 1-228.693-50.517zm537.77-129.65c60.018-28.444 92.786-65.195 92.786-103.538v119.467a341.333 341.333 0 0 0-92.103-15.986zM72.079 227.67c0-85.674 162.361-155.25 361.757-155.25s362.097 69.576 362.097 155.25-162.36 155.023-362.097 155.023S72.42 313.002 72.42 227.669z"/></svg>