<svg class="icon" width="200" height="200" viewBox="0 0 1024 1024" xmlns="http://www.w3.org/2000/svg"><path d="M512 76.8A358.502 358.502 0 0 1 866.816 384H896a51.2 51.2 0 0 1 51.2 51.2v256a51.2 51.2 0 0 1-51.2 51.2h-29.542c-38.144 62.925-110.132 111.872-198.861 136.397l-1.997.46V896a51.2 51.2 0 0 1-45.21 50.842l-5.99.358H409.6a51.2 51.2 0 0 1-51.2-51.2v-51.2a51.2 51.2 0 0 1 51.2-51.2h204.8a51.2 51.2 0 0 1 48.026 33.331c59.238-17.715 108.39-47.616 140.697-84.48l-9.523-.051a51.2 51.2 0 0 1-51.2-51.2v-256a51.2 51.2 0 0 1 51.2-51.2h21.35a307.302 307.302 0 0 0-605.9 0h21.35a51.2 51.2 0 0 1 51.2 51.2v256a51.2 51.2 0 0 1-51.2 51.2H128a51.2 51.2 0 0 1-51.2-51.2v-256A51.2 51.2 0 0 1 128 384h29.184A358.502 358.502 0 0 1 512 76.8zm102.4 768H409.6V896h204.8v-51.2zm-384-409.6H128v256h102.4v-256zm665.6 0H793.6v256H896v-256z"/></svg>