<svg class="icon" width="200" height="200" viewBox="0 0 1024 1024" xmlns="http://www.w3.org/2000/svg"><path d="M502.208.608c16.544-.32 30.112 14.144 30.112 31.296v45.504H938.4c36.992 0 67.008 31.04 67.008 69.408V718.4c0 38.336-30.016 69.408-67.008 69.408H532.32v34.88L715.872 966.72a31.264 31.264 0 0 1 10.144 34.176 29.664 29.664 0 0 1-28.032 20.832 28.768 28.768 0 0 1-17.824-6.208l-147.84-116-18.208-13.248a19.488 19.488 0 0 0-22.912-.064 944.64 944.64 0 0 0-17.984 13.28l-147.84 116.032a28.736 28.736 0 0 1-29.568 4.256 30.496 30.496 0 0 1-18.048-24.672 31.104 31.104 0 0 1 11.936-28.384l183.52-144v-34.912H67.2c-37.024 0-67.008-31.104-67.008-69.44v-571.52c0-38.336 29.984-69.44 67.008-69.44h406.08V31.232c0-16.64 12.864-30.272 28.96-30.592zm436.16 138.016H67.2a8.064 8.064 0 0 0-7.904 8.192V718.4c0 4.48 3.52 8.192 7.904 8.192h871.2a8.064 8.064 0 0 0 7.936-8.192V146.816a8.064 8.064 0 0 0-7.936-8.192zM832 315.072l3.872.16a29.28 29.28 0 0 1 19.872 11.2 31.36 31.36 0 0 1-4.384 43.04l-232.32 194.56a28.864 28.864 0 0 1-35.168 1.568L357.216 406.272l-164.64 153.504a28.8 28.8 0 0 1-28.928 6.368 30.24 30.24 0 0 1-19.776-22.752 31.264 31.264 0 0 1 9.152-29.12L334.88 344.736a28.768 28.768 0 0 1 36.352-2.56l227.68 160 215.264-180.32a28.832 28.832 0 0 1 21.696-6.624z"/></svg>