<svg class="icon" width="200" height="200" viewBox="0 0 1024 1024" xmlns="http://www.w3.org/2000/svg"><path d="M851.776 376.077a71.923 71.923 0 0 0 7.014-69.453c-9.804-22.784-30.604-38.387-54.528-40.922-23.936-2.534-47.347 8.397-61.388 28.672l-.256.384-168.244-80.32c6.541-27.443-3.545-56.281-25.536-72.972a65.216 65.216 0 0 0-74.777-3.213c-23.258 14.758-35.61 42.624-31.283 70.528a83.78 83.78 0 0 0 1.075 5.453L277.12 293.81c-15.744-22.08-42.534-32.512-68.403-26.662-25.869 5.85-46.029 26.905-51.507 53.773-5.479 26.88 4.748 54.592 26.124 70.81 7.36 5.35 15.616 9.254 24.32 11.506v221.466a68.544 68.544 0 0 0-41.497 27.571c-21.555 31.309-14.669 74.778 15.398 97.28 30.08 22.49 72.013 15.54 93.824-15.565.32-.448.64-.921.935-1.382l166.988 79.706c-5.478 27.75 5.76 56.179 28.455 71.936a65.178 65.178 0 0 0 74.931-.128c22.643-15.821 33.792-44.288 28.237-72.013l166.912-79.68c12.48 19.008 33.203 30.4 55.373 30.464 3.61 0 7.232-.307 10.803-.909 26.841-4.48 48.448-25.293 54.72-52.736 6.285-27.443-3.994-56.102-26.035-72.614a67.814 67.814 0 0 0-27.264-12.084V403.79a67.251 67.251 0 0 0 42.342-27.712zm-89.05-66.816a42.253 42.253 0 0 1 34.714-18.368c19.738.038 36.864 14.093 41.472 34.01 4.582 19.903-4.57 40.486-22.144 49.791-17.587 9.306-39.014 4.903-51.853-10.65a45.62 45.62 0 0 1-2.176-54.783zM474.534 171.75c11.93-17.14 33.882-23.143 52.404-14.337 18.534 8.82 28.492 29.978 23.77 50.56-4.711 20.557-22.785 34.816-43.137 34.036-20.365-.781-37.376-16.384-40.601-37.261a45.594 45.594 0 0 1 7.552-32.999zm-20.672 65.663c12.43 18.599 32.768 29.773 54.592 30.004 21.799.217 42.368-10.522 55.168-28.852.218-.307.423-.665.64-.985l168.013 80.205a72.563 72.563 0 0 0-.115 34.265l-167.936 80.717c-12.467-18.509-32.794-29.606-54.554-29.786-21.76-.179-42.24 10.573-54.988 28.864l-.73 1.114-165.978-79.757a72.627 72.627 0 0 0-.179-36.505l166.067-79.258zm30.26 271.194c-19.124-14.336-23.424-42.048-9.6-61.888 13.824-19.84 40.537-24.294 59.648-9.946 19.123 14.35 23.424 42.061 9.6 61.888a42.253 42.253 0 0 1-27.828 17.92 41.254 41.254 0 0 1-31.82-7.974zm-295.68-199.36a42.266 42.266 0 0 1 34.7-18.368c19.738.038 36.877 14.093 41.472 34.01 4.583 19.916-4.556 40.499-22.144 49.792-17.574 9.305-39.014 4.902-51.84-10.637a45.62 45.62 0 0 1-2.188-54.797zm67.123 409.843c-11.93 17.127-33.869 23.143-52.403 14.336-18.522-8.806-28.48-29.952-23.77-50.521 4.698-20.57 22.758-34.816 43.11-34.048 20.365.768 37.376 16.358 40.615 37.222a45.658 45.658 0 0 1-7.552 33.011zm30.784-9.69c6.349-27.558-4.07-56.37-26.343-72.78a61.363 61.363 0 0 0-27.852-12.135V404.147a64.986 64.986 0 0 0 44.979-27.993l166.579 79.974c-6.374 27.622 3.968 56.486 26.176 73.088a68.134 68.134 0 0 0 27.162 12.006v216.55a67.264 67.264 0 0 0-42.176 27.649c-.768 1.088-1.575 2.189-2.266 3.328l-166.272-79.335zm257.408 142.823c-13.824 19.84-40.525 24.282-59.648 9.946-19.123-14.336-23.424-42.048-9.6-61.888 13.824-19.84 40.537-24.282 59.648-9.946 19.097 14.362 23.385 42.048 9.6 61.888zm21.888-63.68a67.66 67.66 0 0 0-16.922-18.803 68.352 68.352 0 0 0-27.174-12.122V541.286a69.414 69.414 0 0 0 42.265-27.724 71.642 71.642 0 0 0 10.624-57.639l167.91-80.704c4.276 6.375 9.55 11.955 15.617 16.512a68.224 68.224 0 0 0 26.957 12.058V624.64a65.434 65.434 0 0 0-42.074 27.622 71.68 71.68 0 0 0-10.88 56.884l-166.31 79.398zM839.526 686.08c3.226 20.864-8.192 41.178-27.276 48.525-19.085 7.36-40.525-.295-51.2-18.279-10.676-17.984-7.63-41.28 7.296-55.667a41.523 41.523 0 0 1 54.041-3.456 44.3 44.3 0 0 1 17.152 28.877z"/><path d="M565.658 788.557a67.66 67.66 0 0 0-16.935-18.803 68.352 68.352 0 0 0-27.174-12.122V541.286a69.414 69.414 0 0 0 42.265-27.724 71.642 71.642 0 0 0 10.624-57.639l167.91-80.704c4.276 6.375 9.55 11.955 15.617 16.512a68.224 68.224 0 0 0 26.957 12.058V624.64a65.434 65.434 0 0 0-42.074 27.622 71.68 71.68 0 0 0-10.88 56.884l-166.31 79.398z"/></svg>