<svg class="icon" width="200" height="200" viewBox="0 0 1024 1024" xmlns="http://www.w3.org/2000/svg"><path d="M351.394 835.368a160.283 160.283 0 0 1 296.96-85.153 322.452 322.452 0 0 0 172.463-204.8 53.464 53.464 0 0 1 51.685-39.343 44.57 44.57 0 0 1 14.551 2.155 54.434 54.434 0 0 1 37.727 66.237A430.511 430.511 0 0 1 670.397 857.95a160.23 160.23 0 0 1-319.003-22.582zm130.425-44.732a33.307 33.307 0 0 0-9.162 8.623 55.08 55.08 0 0 0 0 72.219 33.792 33.792 0 0 0 9.162 8.57A57.02 57.02 0 0 0 512 889.262a53.895 53.895 0 0 0 0-107.79 57.02 57.02 0 0 0-30.181 9.217zm-276.48-31.26a430.565 430.565 0 0 1-121.802-301.27 454.117 454.117 0 0 1 4.311-61.387 162.223 162.223 0 0 1 99.706-288.93 161.684 161.684 0 0 1 5.39 322.83 236.813 236.813 0 0 0-1.618 27.486 320.243 320.243 0 0 0 91.621 225.82 54.326 54.326 0 0 1-1.67 76.53 52.979 52.979 0 0 1-37.188 15.036 54.757 54.757 0 0 1-38.75-16.114zm-70.602-489.902a52.817 52.817 0 1 0 52.817-53.895 53.517 53.517 0 0 0-52.817 53.895zm541.103 0a159.367 159.367 0 0 1 19.402-76.477A317.979 317.979 0 0 0 512 134.737a300.032 300.032 0 0 0-79.225 10.24 54.703 54.703 0 0 1-65.752-39.343 53.895 53.895 0 0 1 39.343-65.213A405.504 405.504 0 0 1 512 26.947a427.17 427.17 0 0 1 265.162 92.16 155.217 155.217 0 0 1 59.284-11.318A161.684 161.684 0 1 1 675.84 269.474zm107.79 0a52.817 52.817 0 1 0 52.816-53.895 53.517 53.517 0 0 0-52.817 53.895z"/></svg>