<svg class="icon" width="200" height="200" viewBox="0 0 1024 1024" xmlns="http://www.w3.org/2000/svg"><path d="M881.803 517.689a212.935 212.935 0 0 0 28.445-102.4 191.83 191.83 0 0 0-193.422-193.422 175.16 175.16 0 0 0-73.956 17.066A247.353 247.353 0 0 0 329.981 73.956 242.574 242.574 0 0 0 147.937 307.2a238.933 238.933 0 0 0 39.822 136.533A341.845 341.845 0 0 0 .026 745.244a218.567 218.567 0 0 0 221.866 221.867h358.4A231.48 231.48 0 0 0 716.826 921.6h136.533a171.179 171.179 0 0 0 170.667-170.667A261.689 261.689 0 0 0 881.803 517.69zM398.248 170.667A138.41 138.41 0 0 1 534.78 307.2a96.711 96.711 0 0 1-5.689 39.822v5.69a110.023 110.023 0 0 1-28.444 51.2 130.844 130.844 0 0 1-193.422 0 130.844 130.844 0 0 1 0-193.423 123.733 123.733 0 0 1 91.022-39.822zm267.378 637.155a103.31 103.31 0 0 1-91.023 45.511h-352.71a111.9 111.9 0 0 1-108.09-108.089 212.48 212.48 0 0 1 125.156-199.11 80.612 80.612 0 0 1 62.578-5.69 200.988 200.988 0 0 0 96.71 22.756 265.728 265.728 0 0 0 96.712-17.067c11.378-5.689 17.067-11.377 28.444-11.377a105.472 105.472 0 0 1 39.823 11.377 255.317 255.317 0 0 1 73.955 62.578 218.453 218.453 0 0 1 51.2 142.222 101.092 101.092 0 0 1-22.755 56.89zm51.2-312.889a105.472 105.472 0 0 1-39.823-11.377 73.956 73.956 0 0 1-45.51-68.267 79.644 79.644 0 1 1 159.288 0 73.956 73.956 0 0 1-45.511 68.267c-5.689 11.377-17.067 11.377-28.444 11.377zm136.533 312.89H790.78a202.126 202.126 0 0 0 11.378-56.89 308.395 308.395 0 0 0-34.133-142.222h22.755a147.342 147.342 0 0 1 125.156 147.911 67.584 67.584 0 0 1-62.578 51.2z"/></svg>