<svg class="icon" width="200" height="200" viewBox="0 0 1024 1024" xmlns="http://www.w3.org/2000/svg"><path d="M64 544a480 480 0 1 1 480 480A480.512 480.512 0 0 1 64 544zm64 0a416 416 0 1 0 416-416 416.512 416.512 0 0 0-416 416zm268.352 239.872a112.512 112.512 0 0 1-77.12-30.144A110.336 110.336 0 0 1 320 597.12l1.408-1.28 123.008-121.088a113.28 113.28 0 0 1 157.184-3.2 34.304 34.304 0 1 1-46.784 50.112 44.8 44.8 0 0 0-61.76 1.472L368 646.4a41.408 41.408 0 0 0-.832 58.432 44.352 44.352 0 0 0 60.672-2.624l32.96-32.832a34.304 34.304 0 0 1 48.128 48.832l-32.768 32.384a111.68 111.68 0 0 1-79.488 33.216zM563.2 646.784a112.256 112.256 0 0 1-76.8-30.272 34.24 34.24 0 1 1 46.784-49.984 44.8 44.8 0 0 0 62.016-1.408L720.256 441.6a41.216 41.216 0 0 0 .512-58.304 44.224 44.224 0 0 0-60.608 2.624l-33.28 32.768a34.24 34.24 0 0 1-24.32 9.92 34.688 34.688 0 0 1-24.192-10.24 34.304 34.304 0 0 1 .32-48.512l32.96-32a113.088 113.088 0 0 1 157.056-3.136A110.336 110.336 0 0 1 768 491.008l-1.6 1.472-122.944 120.96a111.36 111.36 0 0 1-79.488 33.344z"/></svg>