<svg class="icon" width="200" height="200" viewBox="0 0 1024 1024" xmlns="http://www.w3.org/2000/svg"><path d="M563.2 179.2a25.6 25.6 0 0 1 4.608 50.79l-4.608.41H230.4v563.2h332.8a25.6 25.6 0 0 1 25.19 20.992l.41 4.608a25.6 25.6 0 0 1-20.992 25.19l-4.608.41H204.8a25.6 25.6 0 0 1-25.19-20.992l-.41-4.608V204.8a25.6 25.6 0 0 1 20.992-25.19l4.608-.41h358.4zm-128 307.2h409.6q25.6 0 25.6 25.6t-25.6 25.6H435.2q-25.6 0-25.6-25.6t25.6-25.6zm247.296-153.446a25.6 25.6 0 0 1 32.666-2.97l3.532 2.97 160.922 160.921a25.6 25.6 0 0 1 2.97 32.666l-2.97 3.584-160.922 160.921a25.6 25.6 0 0 1-39.168-32.665l2.97-3.584L825.293 512 682.445 369.152a25.6 25.6 0 0 1-2.919-32.614l2.97-3.584z"/></svg>