<svg class="icon" width="200" height="200" viewBox="0 0 1024 1024" xmlns="http://www.w3.org/2000/svg"><path d="M838.4 409.6L912 336l9.6-9.6c89.6-96 121.6-214.4 67.2-268.8C934.4 3.2 816 32 716.8 124.8l-80 80L275.2 67.2c-32-9.6-67.2-3.2-96 16-16 12.8-38.4 32-38.4 60.8 0 19.2 6.4 35.2 25.6 51.2 12.8 12.8 150.4 134.4 256 227.2C368 480 320 537.6 281.6 592c-28.8-3.2-60.8-9.6-89.6-9.6-44.8-6.4-92.8 12.8-124.8 44.8C12.8 684.8 32 720 48 736c9.6 9.6 19.2 12.8 28.8 16 19.2 6.4 67.2 22.4 105.6 38.4-3.2 25.6 0 48 12.8 60.8 12.8 12.8 35.2 16 60.8 9.6 12.8 38.4 28.8 83.2 35.2 102.4 3.2 12.8 9.6 22.4 19.2 32 6.4 6.4 19.2 16 38.4 16s41.6-9.6 67.2-35.2c35.2-32 51.2-76.8 44.8-121.6-3.2-28.8-6.4-60.8-12.8-89.6 54.4-38.4 112-83.2 169.6-140.8C710.4 729.6 832 867.2 844.8 880l3.2 3.2c12.8 12.8 28.8 22.4 44.8 22.4h3.2c25.6-3.2 44.8-22.4 57.6-38.4 19.2-28.8 25.6-64 16-99.2L838.4 409.6zM204.8 147.2c3.2-3.2 6.4-6.4 12.8-9.6 9.6-9.6 25.6-12.8 38.4-9.6l329.6 128L464 377.6C361.6 284.8 220.8 160 204.8 147.2c3.2 0 0 0 0 0zm-105.6 544c3.2-3.2 6.4-9.6 16-19.2 19.2-19.2 44.8-28.8 70.4-25.6 19.2 3.2 38.4 3.2 57.6 6.4-16 25.6-28.8 51.2-38.4 76.8-41.6-16-86.4-32-105.6-38.4zm204.8-16c57.6-89.6 128-176 204.8-252.8L755.2 176l6.4-6.4c35.2-35.2 76.8-57.6 121.6-73.6 19.2-6.4 41.6-6.4 57.6 3.2 9.6 19.2 12.8 38.4 3.2 57.6-12.8 44.8-38.4 89.6-73.6 121.6l-3.2 3.2-3.2 3.2L620.8 528C544 604.8 460.8 675.2 368 732.8c-35.2 35.2-76.8 54.4-121.6 67.2 9.6-44.8 28.8-86.4 57.6-124.8zM400 864c3.2 25.6-6.4 51.2-25.6 70.4-9.6 9.6-16 12.8-19.2 16-6.4-19.2-22.4-64-35.2-102.4 22.4-9.6 48-22.4 76.8-38.4 0 12.8 0 32 3.2 54.4zm508.8-35.2c-6.4 6.4-9.6 9.6-9.6 12.8l-3.2-3.2c-12.8-12.8-134.4-153.6-227.2-256l121.6-121.6 128 329.6c3.2 12.8 0 25.6-9.6 38.4z"/></svg>