<svg class="icon" width="200" height="200" viewBox="0 0 1024 1024" xmlns="http://www.w3.org/2000/svg"><path d="M192 960A128 128 0 0 1 64 832V256a128 128 0 0 1 128-128h704a128 128 0 0 1 128 128v576a128 128 0 0 1-128 128zm-64-704v576a64 64 0 0 0 64 64h704a64 64 0 0 0 64-64V256a64 64 0 0 0-64-64H192a64 64 0 0 0-64 64zm384 480v-32a128 128 0 0 0-256 0v32h-64v-32a192 192 0 0 1 99.136-168 128 128 0 1 1 185.6 0A192 192 0 0 1 576 704v32zM320 448a64 64 0 1 0 64-64 64 64 0 0 0-64 64zm352 192a32 32 0 0 1 0-64h128a32 32 0 1 1 0 64zm0-128a32 32 0 0 1 0-64h128a32 32 0 1 1 0 64z"/></svg>