<svg class="icon" width="200" height="200" viewBox="0 0 1024 1024" xmlns="http://www.w3.org/2000/svg"><path d="M563.2 410.455h209.92a30.72 30.72 0 0 1 0 61.44H563.2a30.72 30.72 0 1 1 0-61.44zm0 143.36h107.52a30.72 30.72 0 1 1 0 61.44H563.2a30.72 30.72 0 1 1 0-61.44zm-220.16-163.84c67.866 0 122.88 55.014 122.88 122.88s-55.014 122.88-122.88 122.88-122.88-55.014-122.88-122.88 55.014-122.88 122.88-122.88zm0 51.2c-39.588 0-71.68 32.092-71.68 71.68s32.092 71.68 71.68 71.68 71.68-32.092 71.68-71.68-32.092-71.68-71.68-71.68zM860.16 128H163.84c-73.523 0-133.12 59.597-133.12 133.12v501.76C30.72 836.403 90.317 896 163.84 896h696.32c73.523 0 133.12-59.597 133.12-133.12V261.12c0-73.523-59.597-133.12-133.12-133.12zM163.84 230.4h696.32a30.72 30.72 0 0 1 30.72 30.72v501.76a30.72 30.72 0 0 1-30.72 30.72H163.84a30.72 30.72 0 0 1-30.72-30.72V261.12a30.72 30.72 0 0 1 30.72-30.72z"/></svg>