<svg class="icon" width="200" height="200" viewBox="0 0 1024 1024" xmlns="http://www.w3.org/2000/svg"><path d="M613.073 34.91a128 128 0 0 1 90.531 37.468L881.78 250.601a128 128 0 0 1 37.493 90.507v519.983a128 128 0 0 1-128 128H232.727a128 128 0 0 1-128-128V162.909a128 128 0 0 1 128-128zm0 69.817H232.727a58.182 58.182 0 0 0-58.182 58.182v698.182a58.182 58.182 0 0 0 58.182 58.182h558.546a58.182 58.182 0 0 0 58.182-58.182V341.108a58.182 58.182 0 0 0-17.036-41.146l-178.223-178.2a58.182 58.182 0 0 0-41.146-17.035zM347.695 372.364c12.986 0 23.97 9.076 26.717 21.76l.465 2.792.14 2.77v34.304h13.754c13.265 0 24.32 9.425 26.81 21.946l.396 2.746.116 2.63c0 14.196-10.822 25.856-24.669 27.183l-2.653.14h-13.754v95.906c0 16.012 10.984 29.556 25.786 33.28l2.793.582 2.909.349 2.792.093a27.322 27.322 0 1 1 0 54.644 88.972 88.972 0 0 1-88.506-80.384l-.302-4.282-.117-4.282v-95.907h-13.754c-13.265 0-24.297-9.449-26.787-21.97l-.419-2.722-.116-2.63c0-14.196 10.845-25.88 24.67-27.206l2.652-.116h13.754v-34.304c0-13.266 9.45-24.297 21.97-26.787l2.723-.419 2.63-.116zm308.13 0c12.963 0 23.971 9.076 26.694 21.76l.466 2.792.14 2.77v34.304h13.777c13.242 0 24.297 9.425 26.763 21.946l.42 2.746.116 2.63c0 14.196-10.822 25.856-24.67 27.183l-2.63.14h-13.777v95.906c0 16.012 10.985 29.556 25.787 33.28l2.792.582 2.91.349 2.815.093a27.322 27.322 0 1 1 0 54.644 88.972 88.972 0 0 1-88.53-80.384l-.302-4.282-.116-4.282v-95.907h-13.73c-13.266 0-24.32-9.449-26.811-21.97l-.396-2.722-.14-2.63c0-14.196 10.846-25.88 24.693-27.206l2.63-.116h13.754v-34.304c0-13.266 9.449-24.297 21.97-26.787l2.722-.419 2.63-.116zm-87.482 64.232c11.73 5.586 17.78 18.502 14.825 31.14l-.768 2.699-1.07 2.56-38.26 80.733 38.26 80.756a27.322 27.322 0 0 1-8.24 33.513l-2.28 1.536-2.467 1.327a27.345 27.345 0 0 1-33.443-8.216l-1.629-2.327-1.303-2.444-19.153-40.354-19.27 40.704-1.35 2.443a27.322 27.322 0 0 1-49.687-20.922l.79-2.7 1.048-2.56 38.237-80.78-38.237-80.71a27.322 27.322 0 0 1 8.239-33.512l2.28-1.536 2.467-1.326a27.345 27.345 0 0 1 33.467 8.215l1.582 2.327 1.35 2.444 19.084 40.331 19.316-40.68 1.35-2.444a27.322 27.322 0 0 1 34.862-10.193z"/></svg>