<svg class="icon" width="200" height="172.83" viewBox="0 0 1185 1024" xmlns="http://www.w3.org/2000/svg"><path d="M1024 0a161.684 161.684 0 0 1 161.684 161.684v700.632A161.684 161.684 0 0 1 1024 1024H161.684A161.684 161.684 0 0 1 0 862.316V161.684A161.684 161.684 0 0 1 161.684 0zm0 107.79H161.684a53.895 53.895 0 0 0-53.895 53.894l.027 538.031c118.596-105.633 212.885-141.285 282.84-106.873C503.431 648.3 503.431 691.55 576.674 691.55c73.27 0 112.478-298.98 346.731-298.98 62.976 0 114.5 13.85 154.544 41.606l-.054-272.492A53.895 53.895 0 0 0 1024 107.79zM363.79 269.473a94.316 94.316 0 1 1 0 188.631 94.316 94.316 0 0 1 0-188.631z"/></svg>