<svg class="icon" width="200" height="200" viewBox="0 0 1024 1024" xmlns="http://www.w3.org/2000/svg"><path d="M1024 512c0-28.8-3.2-57.6-6.4-83.2 0-3.2-3.2-6.4-3.2-9.6 0-6.4-3.2-12.8-3.2-19.2-3.2-9.6-3.2-19.2-6.4-28.8-3.2-6.4-3.2-12.8-6.4-16l-9.6-28.8c-3.2-6.4-3.2-9.6-6.4-12.8-3.2-9.6-9.6-22.4-16-32-3.2-3.2-3.2-6.4-6.4-9.6-6.4-12.8-12.8-22.4-19.2-35.2 0-3.2-3.2-3.2-3.2-6.4L908.8 192c-22.4-32-44.8-54.4-70.4-76.8C748.8 44.8 633.6 0 512 0 387.2 0 275.2 44.8 185.6 115.2c-25.6 22.4-48 44.8-67.2 70.4-12.8 12.8-22.4 25.6-28.8 38.4 0 3.2-3.2 3.2-3.2 6.4-9.6 12.8-16 22.4-22.4 35.2-3.2 3.2-3.2 6.4-6.4 9.6-6.4 9.6-9.6 22.4-16 32 0 6.4-3.2 9.6-3.2 12.8-3.2 9.6-6.4 19.2-12.8 32-3.2 6.4-3.2 9.6-6.4 16-3.2 9.6-6.4 19.2-6.4 32 0 6.4-3.2 12.8-3.2 16 0 3.2-3.2 6.4-3.2 12.8C3.2 454.4 0 483.2 0 512c0 220.8 137.6 406.4 332.8 480 6.4 3.2 9.6 3.2 16 6.4s12.8 3.2 19.2 6.4c9.6 3.2 19.2 6.4 28.8 6.4 6.4 0 12.8 3.2 19.2 3.2 9.6 3.2 19.2 3.2 32 3.2 6.4 0 12.8 3.2 19.2 3.2 12.8 0 28.8 3.2 41.6 3.2h12.8c12.8 0 28.8 0 41.6-3.2 6.4 0 12.8 0 16-3.2 9.6 0 22.4-3.2 32-6.4 6.4 0 12.8-3.2 19.2-3.2 9.6-3.2 19.2-3.2 28.8-6.4 6.4-3.2 9.6-3.2 16-6.4s9.6-3.2 16-6.4C886.4 918.4 1024 732.8 1024 512zM608 950.4c-9.6 3.2-22.4 3.2-32 6.4-6.4 0-9.6 3.2-16 3.2h-48c-16 0-32 0-48-3.2-3.2 0-9.6 0-12.8-3.2-12.8-3.2-22.4-3.2-32-6.4h-6.4c3.2-28.8 6.4-54.4 6.4-83.2 0-217.6-134.4-406.4-332.8-480v-3.2c3.2-16 9.6-28.8 16-41.6L112 320c3.2-9.6 6.4-16 12.8-25.6 0-6.4 3.2-12.8 9.6-19.2 3.2-6.4 9.6-12.8 12.8-19.2 3.2-9.6 9.6-16 12.8-22.4 6.4-6.4 9.6-12.8 16-19.2 3.2-3.2 6.4-9.6 9.6-12.8C278.4 278.4 390.4 320 512 320c121.6 0 233.6-41.6 323.2-115.2 3.2 3.2 6.4 9.6 12.8 12.8l16 16c6.4 6.4 9.6 12.8 16 19.2 3.2 6.4 9.6 12.8 12.8 19.2 3.2 9.6 6.4 16 9.6 22.4 3.2 9.6 9.6 16 12.8 25.6l9.6 19.2c6.4 12.8 12.8 28.8 16 44.8v3.2C742.4 457.6 608 646.4 608 864c0 28.8 3.2 57.6 6.4 83.2 0 0-3.2 0-6.4 3.2zM512 64c105.6 0 201.6 35.2 275.2 96-80 60.8-172.8 96-275.2 96-102.4 0-198.4-35.2-275.2-96C310.4 99.2 406.4 64 512 64zM64 512c0-22.4 3.2-44.8 6.4-64C240 515.2 352 678.4 352 864c0 22.4 0 41.6-3.2 64C182.4 864 64 700.8 64 512zm611.2 416c-3.2-22.4-3.2-41.6-3.2-64 0-185.6 112-348.8 281.6-416 3.2 22.4 6.4 41.6 6.4 64 0 188.8-118.4 352-284.8 416zM512 416c-54.4 0-96 41.6-96 96s41.6 96 96 96 96-41.6 96-96-41.6-96-96-96zm0 128c-19.2 0-32-12.8-32-32s12.8-32 32-32 32 12.8 32 32-12.8 32-32 32z"/></svg>