<svg class="icon" width="200" height="200" viewBox="0 0 1024 1024" xmlns="http://www.w3.org/2000/svg"><path d="M512 896a384.384 384.384 0 0 1-384-384 384.448 384.448 0 0 1 384-384 384.448 384.448 0 0 1 384 384 384.448 384.448 0 0 1-384 384zm0-338.752l137.344 137.344A31.616 31.616 0 0 0 672 704a32 32 0 0 0 22.656-9.408A32 32 0 0 0 704 671.936a32 32 0 0 0-9.344-22.656L557.312 511.936l137.344-137.344a32 32 0 0 0 0-45.312A32 32 0 0 0 672 319.936a32 32 0 0 0-22.592 9.344L512.064 466.688 374.72 329.28a32 32 0 0 0-22.656-9.344 32 32 0 0 0-22.592 9.344 32 32 0 0 0-9.408 22.656 32 32 0 0 0 9.408 22.656l137.344 137.344L329.472 649.28a32 32 0 0 0-9.408 22.656 32 32 0 0 0 9.408 22.656A31.488 31.488 0 0 0 352.064 704a31.616 31.616 0 0 0 22.656-9.408l137.344-137.344z"/></svg>