<svg class="icon" width="200" height="200" viewBox="0 0 1024 1024" xmlns="http://www.w3.org/2000/svg"><path d="M512.036 1024a508.909 508.909 0 0 1-199.314-40.23 510.17 510.17 0 0 1-162.743-109.713A510.17 510.17 0 0 1 40.265 711.314 508.543 508.543 0 0 1 .037 512a508.342 508.342 0 0 1 40.228-199.314A510.17 510.17 0 0 1 149.98 149.944 510.17 510.17 0 0 1 312.722 40.23 508.909 508.909 0 0 1 512.036 0a508.817 508.817 0 0 1 199.313 40.23 509.567 509.567 0 0 1 162.743 109.714 509.549 509.549 0 0 1 109.714 162.742A507.812 507.812 0 0 1 1024.035 512a507.903 507.903 0 0 1-40.229 199.314 509.311 509.311 0 0 1-109.714 162.743A510.17 510.17 0 0 1 711.349 983.77a508.817 508.817 0 0 1-199.313 40.228zm-20.682-350.135a15.14 15.14 0 0 1 9.527 3.456l104.229 87.15a14.885 14.885 0 0 0 9.636 3.547 15.433 15.433 0 0 0 4.681-.732 15.013 15.013 0 0 0 9.82-10.678l120.137-481.92a15.122 15.122 0 0 0-4.828-15.03A14.885 14.885 0 0 0 734.81 256a14.446 14.446 0 0 0-5.778 1.17L247.04 458.734a14.921 14.921 0 0 0-9.143 11.575 15.214 15.214 0 0 0 5.211 13.805l104.996 87.772a14.976 14.976 0 0 0 9.564 3.456 14.757 14.757 0 0 0 9.033-3.054l256.713-193.207-217.435 218.277a14.629 14.629 0 0 0-4.389 10.587v113.371a14.885 14.885 0 0 0 9.253 13.824 15.598 15.598 0 0 0 5.778 1.152 14.629 14.629 0 0 0 10.496-4.37l53.504-53.577a14.94 14.94 0 0 1 10.697-4.48z"/></svg>