<svg class="icon" width="200" height="200" viewBox="0 0 1024 1024" xmlns="http://www.w3.org/2000/svg"><path d="M665.43 750.763l15.36 13.88a161.678 161.678 0 0 0 68.152 34.589c10.24 2.503 20.594 4.892 30.379 8.76 11.947 4.609 20.252 13.768 25.031 25.26l2.446 7.224 3.869 14.905c-1.707 24.804-15.588 43.634-37.263 51.2-25.6 8.875-51.2 1.707-67.128-22.755-4.495-6.827-5.974-15.815-7.794-24.007a178.46 178.46 0 0 0-15.19-43.122 163.499 163.499 0 0 0-36.693-47.445c-6.03-5.462-6.656-13.71-1.365-19.172 5.177-5.518 13.653-5.12 20.195.683zm-253.1-636.985l15.02.682c15.189.968 30.321 3.243 45.34 5.917 14.393 2.617 28.729 5.689 42.666 10.24 16.157 5.29 32.086 11.719 47.503 19 13.653 6.43 27.022 14.052 39.822 22.415 20.139 13.141 39.196 28.217 56.32 46.137 8.192 8.76 16.44 17.579 24.007 27.022 22.756 28.729 41.188 60.587 53.874 96.54 7.054 19.798 12.23 40.221 15.758 61.042 1.877 11.606 2.503 23.552 3.015 35.271.17 4.267.228 8.534.285 12.8 0 6.827-34.134-5.916-65.65 13.199-28.615 17.35-51.712 48.64-48.356 86.073l1.081 7.509 1.422 6.827a42.325 42.325 0 0 0-8.021 7.11 188.075 188.075 0 0 1-15.19 15.816c-9.67 8.76-20.65 15.587-32.426 20.195a114.745 114.745 0 0 1-15.246 5.12l-4.153.797-8.363 1.82a68.608 68.608 0 0 0-34.873 21.22c-16.327 18.204-24.234 43.918-21.39 69.575 2.845 25.714 16.043 48.47 35.84 61.61l-.796.57c-4.95 2.047-8.42 4.039-12.118 5.063-19.456 5.404-38.969 10.752-58.595 15.872a83.377 83.377 0 0 1-17.636 2.446c-22.642.967-45.34 2.503-67.925 1.99-14.962-.34-30.037-3.242-44.942-5.972-11.72-2.162-23.325-5.974-35.1-8.534a14.62 14.62 0 0 0-9.672.797c-33.45 18.489-66.674 37.66-100.352 55.921a23.495 23.495 0 0 1-26.567-1.706 30.606 30.606 0 0 1-11.207-27.193c1.422-16.157 3.982-32.029 5.916-48.071 1.991-16.555 3.983-33.223 5.575-49.892.228-1.99-1.422-4.55-2.787-6.258l-29.184-34.986a643.413 643.413 0 0 1-14.222-17.92 304.526 304.526 0 0 1-43.236-80.327 343.097 343.097 0 0 1-17.067-66.56 309.02 309.02 0 0 1-2.844-73.16c1.65-18.773 5.575-37.375 9.273-55.921 4.892-24.349 14.222-46.877 24.974-68.665a344.52 344.52 0 0 1 81.18-104.676c23.723-20.48 48.925-38.457 77.085-50.403 17.806-7.566 35.556-15.702 53.76-21.447 15.758-5.007 32.2-7.339 48.356-10.354 14.904-2.845 29.866-4.267 44.828-4.551h15.019zM959.83 675.1v-.056a47.787 47.787 0 0 1 7.224 27.079 52.68 52.68 0 0 1-41.756 52.28c-16.612 2.674-32.768 7.396-48.242 13.881a173.511 173.511 0 0 0-53.362 37.604 18.204 18.204 0 0 1-8.078 5.12c-6.6 1.707-12.06-.91-14.848-6.087-2.844-5.063-1.65-10.468 2.73-15.53 9.558-11.037 20.14-21.448 27.99-33.565 7.908-12.118 13.88-25.6 19.172-39.083 4.323-11.036 5.46-23.21 9.557-34.304 6.656-18.034 20.366-28.558 39.595-33.166a56.263 56.263 0 0 1 60.017 25.827zm-254.465-78.506a14.165 14.165 0 0 1 2.219 14.108l-1.991 3.072-11.947 11.833c-15.701 17.124-28.274 36.181-35.043 58.425-3.414 11.492-5.746 23.381-9.444 34.873a49.38 49.38 0 0 1-30.151 32.313c-7.111 2.787-14.791 3.982-22.244 5.802-25.656-.512-49.72-19.342-54.613-44.032A53.02 53.02 0 0 1 557.91 662.3c8.704-8.533 20.423-12.97 33.11-14.79 9.5-1.31 18.83-4.154 27.875-7.282 16.555-5.69 31.858-13.938 45.568-24.69 6.998-5.518 13.597-11.606 19.911-17.92 6.372-6.258 16.043-6.998 20.992-1.024zm49.21-103.367a56.661 56.661 0 0 1 54.783 47.502c3.414 22.755 11.776 43.975 25.43 62.805 7.907 10.923 17.294 20.878 26.567 30.948 5.689 6.087 6.826 14.222 1.763 19.342-5.518 5.575-13.426 5.12-20.195-.74-9.956-8.42-19.513-17.464-30.208-24.803a167.253 167.253 0 0 0-67.698-26.397 54.898 54.898 0 0 1-45.91-48.355 54.272 54.272 0 0 1 35.784-56.036c6.371-2.048 13.084-2.901 19.683-4.266z"/></svg>