<svg class="icon" width="200" height="200" viewBox="0 0 1024 1024" xmlns="http://www.w3.org/2000/svg"><path d="M563.302 273.357l282.47 112.998a28.262 28.262 0 0 1 19.354 26.778v480.256a28.262 28.262 0 0 1-28.262 28.211h-282.47a28.262 28.262 0 0 1-28.263-28.262V300.134c0-19.302 18.893-32.87 37.171-26.777zm19.303 65.945v525.824h225.997V433.51l-225.946-94.259zm-37.171-235.468L206.49 216.832a28.262 28.262 0 0 0-19.354 26.829v649.728c0 15.565 12.646 28.211 28.262 28.211h338.944a28.262 28.262 0 0 0 28.263-28.262V130.662a28.262 28.262 0 0 0-37.171-26.828zM526.13 169.83v695.296H243.66V263.987l282.47-94.157zM130.662 865.126H921.6a28.262 28.262 0 0 1 0 56.474H130.662a28.262 28.262 0 1 1 0-56.474zm197.735-451.993h112.947q28.262 0 28.262 28.262v-.051q0 28.262-28.262 28.262H328.397q-28.263 0-28.263-28.262v.051q0-28.262 28.263-28.262zm0 141.26h112.947q28.262 0 28.262 28.263v-.051q0 28.262-28.262 28.262H328.397q-28.263 0-28.263-28.262v.051q0-28.262 28.263-28.262zm338.995 0h56.474q28.262 0 28.262 28.263v-.051q0 28.262-28.262 28.262h-56.474q-28.262 0-28.262-28.262v.051q0-28.262 28.262-28.262z"/></svg>