<svg class="icon" width="200" height="200" viewBox="0 0 1024 1024" xmlns="http://www.w3.org/2000/svg"><path d="M343.04 573.44a102.4 102.4 0 0 1 102.4 102.349V829.44a102.4 102.4 0 0 1-102.4 102.4h-153.6a102.4 102.4 0 0 1-102.4-102.4V675.789a102.4 102.4 0 0 1 102.4-102.349h153.6zm460.8 0a102.4 102.4 0 0 1 102.4 102.349V829.44a102.4 102.4 0 0 1-102.4 102.4h-153.6a102.4 102.4 0 0 1-102.4-102.4V675.789a102.4 102.4 0 0 1 102.4-102.349h153.6zm-460.8 51.2h-153.6a51.2 51.2 0 0 0-50.842 45.158l-.358 6.042v153.6a51.2 51.2 0 0 0 45.21 50.842l5.99.358h153.6c26.214 0 47.872-19.814 50.842-45.21l.358-5.99V675.789a51.2 51.2 0 0 0-45.21-50.79l-5.99-.359zm460.8 0h-153.6a51.2 51.2 0 0 0-50.842 45.158l-.358 5.99V829.44a51.2 51.2 0 0 0 45.21 50.842l5.99.358h153.6c26.214 0 47.872-19.814 50.842-45.21l.358-5.99V675.789a51.2 51.2 0 0 0-45.21-50.79l-5.99-.359zm-6.502-508.518l105.37 105.472a99.328 99.328 0 0 1 0 140.492l-105.37 105.472a99.43 99.43 0 0 1-140.596 0l-105.42-105.472a99.38 99.38 0 0 1 0-140.492l105.472-105.472a99.43 99.43 0 0 1 140.544 0zM343.04 112.64a102.4 102.4 0 0 1 102.4 102.4v153.549a102.4 102.4 0 0 1-102.4 102.4h-153.6a102.4 102.4 0 0 1-102.4-102.4V215.04a102.4 102.4 0 0 1 102.4-102.4h153.6zm350.771 31.744l-4.659 4.096L583.68 253.952c-19.354 19.456-20.736 50.074-4.096 71.117l4.096 4.608 105.472 105.472c19.456 19.456 50.074 20.787 71.117 4.198l4.659-4.198L870.4 329.728c19.456-19.405 20.838-50.022 4.096-71.066l-4.096-4.608L764.928 148.48l-4.608-4.147c-19.456-15.36-47.104-15.36-66.509 0zM343.04 163.84h-153.6a51.2 51.2 0 0 0-50.842 45.21l-.358 5.99v153.549a51.2 51.2 0 0 0 45.21 50.841l5.99.41h153.6a51.2 51.2 0 0 0 50.842-45.21l.358-5.99v-153.6a51.2 51.2 0 0 0-45.21-50.842l-5.99-.358z"/></svg>