<svg class="icon" width="200" height="200" viewBox="0 0 1024 1024" xmlns="http://www.w3.org/2000/svg"><path d="M1014.954 735.687h-.569a68.776 68.776 0 0 0-74.521-32.994 64.452 64.452 0 0 0-29.013 13.084 17.464 17.464 0 0 0-2.844-22.755 228.798 228.798 0 0 1-19.341-21.616 423.52 423.52 0 0 0 36.976-109.848 467.608 467.608 0 1 0-766.888 257.24l2.275 134.31a70.369 70.369 0 0 0 35.839 60.3 64.68 64.68 0 0 0 35.27 9.67 68.833 68.833 0 0 0 34.7-9.101l147.337-81.917a477.847 477.847 0 0 0 139.372-4.551 447.868 447.868 0 0 0 122.306-40.39c3.413 5.69 6.826 11.947 10.24 18.204a229.822 229.822 0 0 1 18.772 54.611 103.42 103.42 0 0 0 9.102 30.15 67.297 67.297 0 0 0 83.623 29.012 68.605 68.605 0 0 0 46.647-64.281l-5.12-19.342-2.844-8.533a51.937 51.937 0 0 0-11.377-18.772 9.955 9.955 0 0 0 9.67 1.137 21.73 21.73 0 0 0 10.24-6.826 223.052 223.052 0 0 1 66.557-47.785 281.532 281.532 0 0 1 60.3-17.635A67.07 67.07 0 0 0 1024 770.502a61.096 61.096 0 0 0-9.045-34.815zm-437.458-33.563a75.488 75.488 0 0 0-42.665 19.342 71.108 71.108 0 0 0-21.048 67.126 77.707 77.707 0 0 0 12.515 27.874 367.146 367.146 0 0 1-114.342.57l-19.341-2.845-118.893 65.988-2.276-116.674-21.048-17.066a353.266 353.266 0 0 1 178.567-630.417 294.047 294.047 0 0 1 38.683-2.332 352.697 352.697 0 0 1 261.11 114.967 356.85 356.85 0 0 1 87.605 297.062 71.051 71.051 0 0 0-45.51-18.204c-9.101 1.707-17.065 3.414-25.03 5.689a70.88 70.88 0 0 0-45.509 54.611 69.174 69.174 0 0 0 23.893 65.42 17.692 17.692 0 0 0-25.6 2.844l-25.598 23.892a231.756 231.756 0 0 1-59.162 32.426 202.118 202.118 0 0 1-36.408 9.727zm312.876 43.234c-5.12 13.653-6.257 29.581-11.946 43.234a288.017 288.017 0 0 1-23.323 50.06 369.763 369.763 0 0 1-35.27 42.665 16.554 16.554 0 0 0-3.413 19.91 33.734 33.734 0 0 0-10.809-6.257 206.1 206.1 0 0 0-38.114-11.377 193.414 193.414 0 0 1-50.06-20.48 157.235 157.235 0 0 1-34.7-23.892l-18.773-17.066-.57-1.138v-.569a17.464 17.464 0 0 0-23.323-1.137 51.824 51.824 0 0 0 12.515-23.324c3.414-10.24 5.689-21.048 8.533-31.856a123.615 123.615 0 0 1 3.982-13.653 200.013 200.013 0 0 1 45.51-77.935l14.79-15.36 3.413-4.55a20.82 20.82 0 0 0-3.413-18.204 65.533 65.533 0 0 0 32.994 15.36 91.019 91.019 0 0 1 11.947 2.844 198.591 198.591 0 0 1 74.521 32.425 288.301 288.301 0 0 1 25.599 20.48c4.55 3.413 9.102 7.395 13.653 11.377 0 .569.569.569.569 1.138a17.066 17.066 0 0 0 21.048 2.844 57.854 57.854 0 0 0-15.36 24.234z"/></svg>