<svg class="icon" width="200" height="200" viewBox="0 0 1024 1024" xmlns="http://www.w3.org/2000/svg"><path d="M768 166.4a51.2 51.2 0 0 1 51.2 51.2v588.8a51.2 51.2 0 0 1-51.2 51.2H256a51.2 51.2 0 0 1-51.2-51.2V217.6a51.2 51.2 0 0 1 51.2-51.2h512zm0 25.6H256a25.6 25.6 0 0 0-25.536 23.68l-.064 1.92v588.8a25.6 25.6 0 0 0 23.68 25.536L256 832h512a25.6 25.6 0 0 0 25.536-23.68l.064-1.92V217.6a25.6 25.6 0 0 0-23.68-25.536L768 192z"/><path d="M320 256h384a25.6 25.6 0 0 1 25.6 25.6v460.8A25.6 25.6 0 0 1 704 768H320a25.6 25.6 0 0 1-25.6-25.6V281.6A25.6 25.6 0 0 1 320 256z"/><path d="M503.334 348.98a12.8 12.8 0 0 1 18.432 17.676l-1.1 1.165-97.447 89.6a12.8 12.8 0 0 1-16.051 1.024l-1.28-1.024-56.154-51.623a12.8 12.8 0 0 1 16.077-19.865l1.255 1.024 47.475 43.648 88.793-81.626zM563.2 396.8h89.6a12.8 12.8 0 0 1 0 25.6h-89.6a12.8 12.8 0 0 1 0-25.6zm0 204.8h89.6a12.8 12.8 0 0 1 0 25.6h-89.6a12.8 12.8 0 0 1 0-25.6zm-134.4-64a70.4 70.4 0 1 1 0 140.8 70.4 70.4 0 0 1 0-140.8zm0 25.6a44.8 44.8 0 1 0 0 89.6 44.8 44.8 0 0 0 0-89.6z"/></svg>