<svg class="icon" width="200" height="200" viewBox="0 0 1024 1024" xmlns="http://www.w3.org/2000/svg"><path d="M284.387 1024a61.149 61.149 0 0 1-56.883-56.883 61.149 61.149 0 0 1 56.883-56.882h170.647v-56.883A281.512 281.512 0 0 1 170.622 568.94V398.292A167.462 167.462 0 0 1-.026 227.644V113.879A113.765 113.765 0 0 1 113.739.114h796.356a114.163 114.163 0 0 1 113.765 113.765v113.765a167.576 167.576 0 0 1-170.648 170.648v170.647A281.682 281.682 0 0 1 568.8 853.352v56.883h170.647a61.149 61.149 0 0 1 56.883 56.882A61.149 61.149 0 0 1 739.447 1024zm0-455.06a167.462 167.462 0 0 0 170.647 170.647H568.8A167.576 167.576 0 0 0 739.447 568.94V113.88h-455.06zm568.825-284.413a61.149 61.149 0 0 0 56.883-56.883V113.879h-56.883zM113.74 227.644a61.149 61.149 0 0 0 56.883 56.883V113.879H113.74zm338.337 337.882a56.883 56.883 0 0 1-40.386-17.064 77.417 77.417 0 0 1-4.949-6.257l-74.687-73.948a58.19 58.19 0 0 1-8.361-70.193 94.198 94.198 0 0 1 8.361-10.807 59.613 59.613 0 0 1 40.387-16.496 58.817 58.817 0 0 1 40.387 16.496l39.817 39.817L612.884 266.61a57.395 57.395 0 0 1 40.386-16.44 56.883 56.883 0 0 1 39.818 16.44 69.852 69.852 0 0 1 11.945 17.633 57.451 57.451 0 0 1-11.945 63.197l-50.796 50.568L497.81 542.034a18.146 18.146 0 0 1-4.949 6.257 55.802 55.802 0 0 1-40.386 17.065z"/></svg>