<svg class="icon" width="200" height="200" viewBox="0 0 1024 1024" xmlns="http://www.w3.org/2000/svg"><path d="M796.444 113.778a56.889 56.889 0 0 1 56.89 56.889v682.78a56.889 56.889 0 0 1-88.52 47.275L543.63 752.697a56.889 56.889 0 0 0-63.26 0L259.186 900.722a56.889 56.889 0 0 1-88.52-47.218V170.667a56.889 56.889 0 0 1 56.89-56.89h568.888zM529.351 248.377a39.253 39.253 0 0 0-52.508 17.806l-21.903 44.43a56.889 56.889 0 0 1-42.837 31.119l-49.038 7.11a39.253 39.253 0 0 0-21.732 66.902l35.499 34.588a56.889 56.889 0 0 1 16.327 50.347l-8.363 48.81a39.253 39.253 0 0 0 56.89 41.359l43.804-23.097a56.889 56.889 0 0 1 52.963 0l43.862 23.097a39.253 39.253 0 0 0 56.889-41.358l-8.363-48.81a56.889 56.889 0 0 1 16.327-50.348l35.499-34.588a39.253 39.253 0 0 0-21.732-66.901l-49.038-7.111a56.889 56.889 0 0 1-42.837-31.119l-21.903-44.373a39.253 39.253 0 0 0-17.806-17.863z"/></svg>