<svg class="icon" width="200" height="200" viewBox="0 0 1024 1024" xmlns="http://www.w3.org/2000/svg"><path d="M128.096 960.016a63.984 63.984 0 0 1-63.984-63.984V128.224a63.984 63.984 0 0 1 63.984-63.984h127.968V32.248A31.992 31.992 0 0 1 288.056.256a31.992 31.992 0 0 1 31.992 31.992V64.24h383.904V32.248A31.992 31.992 0 0 1 735.944.256a31.992 31.992 0 0 1 31.992 31.992V64.24h127.968a63.984 63.984 0 0 1 63.984 63.984v767.808a63.984 63.984 0 0 1-63.984 63.984zm0-63.984h767.808V320.176H128.096zm767.808-639.84V128.224H767.936v31.992a31.992 31.992 0 0 1-31.992 31.992 31.992 31.992 0 0 1-31.992-31.992v-31.992H320.048v31.992a31.992 31.992 0 0 1-31.992 31.992 31.992 31.992 0 0 1-31.992-31.992v-31.992H128.096v127.968zM639.968 704.08a63.984 63.984 0 0 1 63.984-63.984 63.984 63.984 0 0 1 63.984 63.984 63.984 63.984 0 0 1-63.984 63.984 63.984 63.984 0 0 1-63.984-63.984zm-191.952 0A63.984 63.984 0 0 1 512 640.096a63.984 63.984 0 0 1 63.984 63.984A63.984 63.984 0 0 1 512 768.064a63.984 63.984 0 0 1-63.984-63.984zm-191.952 0a63.984 63.984 0 0 1 63.984-63.984 63.984 63.984 0 0 1 63.984 63.984 63.984 63.984 0 0 1-63.984 63.984 63.984 63.984 0 0 1-63.984-63.984zm383.904-191.952a63.984 63.984 0 0 1 63.984-63.984 63.984 63.984 0 0 1 63.984 63.984 63.984 63.984 0 0 1-63.984 63.984 63.984 63.984 0 0 1-63.984-63.984zm-191.952 0A63.984 63.984 0 0 1 512 448.144a63.984 63.984 0 0 1 63.984 63.984A63.984 63.984 0 0 1 512 576.112a63.984 63.984 0 0 1-63.984-63.984zm-191.952 0a63.984 63.984 0 0 1 63.984-63.984 63.984 63.984 0 0 1 63.984 63.984 63.984 63.984 0 0 1-63.984 63.984 63.984 63.984 0 0 1-63.984-63.984z"/></svg>