<svg class="icon" width="200" height="166.78" viewBox="0 0 1228 1024" xmlns="http://www.w3.org/2000/svg"><path d="M583.68 993.28c-10.24 0-30.72 0-40.96-10.24L81.92 512l460.8-460.8c20.48-20.48 51.2-20.48 71.68 0s20.48 51.2 0 71.68L225.28 512 614.4 901.12c20.48 20.48 20.48 51.2 0 71.68-10.24 10.24-20.48 20.48-30.72 20.48z"/><path d="M1075.2 993.28c-10.24 0-30.72 0-40.96-10.24L573.44 512l460.8-460.8c20.48-20.48 51.2-20.48 71.68 0s20.48 51.2 0 71.68L727.04 512l389.12 389.12c20.48 20.48 20.48 51.2 0 71.68-10.24 10.24-30.72 20.48-40.96 20.48z"/></svg>