<svg class="icon" width="200" height="200" viewBox="0 0 1024 1024" xmlns="http://www.w3.org/2000/svg"><path d="M865.28 1024H158.72C71.68 1024 0 952.32 0 865.28V261.12C0 174.08 71.68 102.4 158.72 102.4H870.4c81.92 0 153.6 71.68 153.6 158.72V870.4c0 81.92-71.68 153.6-158.72 153.6zM158.72 204.8c-30.72 0-56.32 25.6-56.32 56.32V870.4c0 25.6 25.6 51.2 56.32 51.2H870.4c30.72 0 56.32-25.6 56.32-56.32V261.12C921.6 230.4 896 204.8 865.28 204.8H158.72z"/><path d="M358.4 307.2c-30.72 0-51.2-20.48-51.2-51.2V51.2c0-30.72 20.48-51.2 51.2-51.2s51.2 20.48 51.2 51.2V256c0 30.72-20.48 51.2-51.2 51.2zm307.2 0c-30.72 0-51.2-20.48-51.2-51.2V51.2c0-30.72 20.48-51.2 51.2-51.2s51.2 20.48 51.2 51.2V256c0 30.72-20.48 51.2-51.2 51.2zM204.8 409.6h256V512h-256zm358.4 0h256V512h-256zM204.8 614.4h256v102.4h-256zm358.4 0h256v102.4h-256z"/></svg>