<svg class="icon" width="200" height="200" viewBox="0 0 1024 1024" xmlns="http://www.w3.org/2000/svg"><path d="M504.576 895.872a23.744 23.744 0 0 0 17.152-6.976 21.76 21.76 0 0 0 6.4-16.128v-428.8a82.304 82.304 0 0 1 25.024-59.2l204.8-214.656 2.88-3.136a22.272 22.272 0 0 0 4.48-24.704 24.704 24.704 0 0 0-22.016-14.4H151.424a21.312 21.312 0 0 0-21.12 12.8 22.08 22.08 0 0 0 3.072 24.256l2.88 2.88 2.432 3.136.96 1.216 198.4 208.896a81.408 81.408 0 0 1 27.072 60.608V808.32a22.464 22.464 0 0 0 12.224 20.352h.896l113.664 63.488a29.952 29.952 0 0 0 12.8 2.88m0 64a93.824 93.824 0 0 1-42.496-10.112l-115.2-64.384A86.592 86.592 0 0 1 300.8 808V441.856a17.216 17.216 0 0 0-6.976-13.888L91.008 214.144l-2.88-3.776A85.248 85.248 0 0 1 71.36 115.84a85.376 85.376 0 0 1 80.064-51.968h591.872a89.024 89.024 0 0 1 80.64 51.968 86.464 86.464 0 0 1-15.616 94.528l-3.456 3.776-206.336 215.872a19.2 19.2 0 0 0-6.4 14.08v427.776a86.848 86.848 0 0 1-87.552 88zM864 831.872H736a32 32 0 1 1 0-64h128a32 32 0 0 1 0 64zm64-128H736a32 32 0 0 1 0-64h192a32 32 0 0 1 0 64zm0-128H736a32 32 0 1 1 0-64h192a32 32 0 1 1 0 64z"/></svg>