<svg class="icon" width="200" height="200" viewBox="0 0 1024 1024" xmlns="http://www.w3.org/2000/svg"><path d="M503.333 1023.342c-17.177 0-33.112-3.947-48.389-11.914l-131.863-73.461a99.044 99.044 0 0 1-52.336-88.08V431.563a20.686 20.686 0 0 0-8.04-15.861L31.064 171.418l-3.362-3.947C-.804 138.963-7.383 96.64 8.553 59.582A97.728 97.728 0 0 1 99.847.01h676.35c39.764 0 75.58 23.17 92.1 59.572a98.313 98.313 0 0 1-17.835 107.889l-4.02 3.947L610.71 418.333a21.198 21.198 0 0 0-7.31 15.935V922.69c.732 56.283-44.368 100.652-100.067 100.652zM313.798 354.156c23.829 18.931 37.717 47.658 37.79 78.138v418.251c0 7.31 3.29 14.62 9.94 17.908l131.865 72.145a22.513 22.513 0 0 0 20.54 0 20.832 20.832 0 0 0 9.94-17.908V434.926c0-30.48 13.304-58.915 37.133-78.139l231.127-244.869a20.467 20.467 0 0 0 1.973-21.197 19.955 19.955 0 0 0-17.908-11.257H99.92a18.859 18.859 0 0 0-17.908 11.257 20.174 20.174 0 0 0 1.389 21.197l230.396 242.238zm442.445 157.52c-21.929 0-39.91-15.35-39.91-34.136 0-18.712 17.981-34.062 39.91-34.062H983.35c21.928 0 39.983 15.35 39.983 34.062.657 18.786-17.324 34.136-39.91 34.136h-227.18zm0 136.469c-21.929 0-39.91-15.35-39.91-34.136s17.981-34.135 39.91-34.135H983.35c21.928 0 39.983 15.35 39.983 34.135.657 18.786-17.324 34.136-39.91 34.136h-227.18zm0 136.395c-21.929 0-39.91-15.35-39.91-34.062 0-18.786 17.981-34.136 39.91-34.136h154.084c21.929 0 39.91 15.35 39.91 34.136 0 18.712-17.323 34.062-39.91 34.062H756.243z"/></svg>