<svg class="icon" width="200" height="200" viewBox="0 0 1024 1024" xmlns="http://www.w3.org/2000/svg"><path d="M672 256a32 32 0 0 0-32 32 128 128 0 0 1-256 0 32 32 0 0 0-64 0 192 192 0 0 0 384 0 32 32 0 0 0-32-32zm226.432-57.6A142.208 142.208 0 0 0 753.024 64h-486.4a140.8 140.8 0 0 0-140.032 134.4L65.088 797.632a139.2 139.2 0 0 0 39.104 112A159.04 159.04 0 0 0 210.496 960h604.096a137.856 137.856 0 0 0 106.24-50.368 171.392 171.392 0 0 0 39.168-112zm-26.816 670.272A73.408 73.408 0 0 1 814.592 896H210.496a97.792 97.792 0 0 1-60.992-31.616 75.264 75.264 0 0 1-21.056-57.6v-2.496L190.272 204.8v-1.856A76.8 76.8 0 0 1 266.432 128h486.4a78.72 78.72 0 0 1 81.6 74.944v1.984L896 800.576a107.008 107.008 0 0 1-24.384 68.096z"/></svg>