<svg class="icon" width="200" height="200" viewBox="0 0 1024 1024" xmlns="http://www.w3.org/2000/svg"><path d="M512 153.6c118.656 0 223.846 57.805 289.075 149.082 41.767 58.444 67.149 117.81 69.197 197.312l.128 10.406H512V153.6z"/><path d="M512 153.6c197.94 0 358.4 160.46 358.4 358.4S709.94 870.4 512 870.4 153.6 709.94 153.6 512 314.06 153.6 512 153.6zm0 25.6c-183.808 0-332.8 148.992-332.8 332.8S328.192 844.8 512 844.8 844.8 695.808 844.8 512 695.808 179.2 512 179.2z"/><path d="M512 321.6c105.152 0 190.4 85.248 190.4 190.4S617.152 702.4 512 702.4 321.6 617.152 321.6 512 406.848 321.6 512 321.6zm0 25.6c-91.008 0-164.8 73.78-164.8 164.8 0 91.008 73.78 164.8 164.8 164.8 91.008 0 164.8-73.78 164.8-164.8 0-91.008-73.78-164.8-164.8-164.8z"/><path d="M512 153.6c118.656 0 223.846 57.805 289.075 149.082 41.767 58.444 67.149 117.81 69.197 197.312l.128 10.406H512V153.6zm23.898 24.755V486.49h309.798l-.41-6.541c-4.992-61.543-25.062-106.202-58.035-155.277l-5.606-8.102c-57.229-80.077-145.447-130.432-243.482-138.061l-2.265-.154z"/><path d="M511.206 460.8a50.406 50.406 0 1 1 0 100.8 50.406 50.406 0 0 1 0-100.8zm0 23.898a26.496 26.496 0 1 0 0 53.004 26.496 26.496 0 0 0 0-53.004z"/></svg>