<svg class="icon" width="200" height="200" viewBox="0 0 1024 1024" xmlns="http://www.w3.org/2000/svg"><path d="M800 960H224a32 32 0 0 1-32-32V256H96a32 32 0 0 1-32-32 32 32 0 0 1 32-32h832a32 32 0 0 1 32 32 32 32 0 0 1-32 32h-96v672a32 32 0 0 1-32 32zm-32-64V256H256v640zM576 736V416a32 32 0 0 1 32-32 32 32 0 0 1 32 32v320a32 32 0 0 1-32 32 32 32 0 0 1-32-32zm-192 0V416a32 32 0 0 1 32-32 32 32 0 0 1 32 32v320a32 32 0 0 1-32 32 32 32 0 0 1-32-32zm-96-608a32 32 0 0 1-32-32 32 32 0 0 1 32-32h448a32 32 0 0 1 32 32 32 32 0 0 1-32 32z"/></svg>