<svg class="icon" width="200" height="200" viewBox="0 0 1024 1024" xmlns="http://www.w3.org/2000/svg"><path d="M205.767 967.111a160.256 160.256 0 0 1-108.089-51.2 141.653 141.653 0 0 1-39.822-113.778l62.578-608.71A143.19 143.19 0 0 1 262.656 56.888H757.02a144.668 144.668 0 0 1 147.912 136.533l62.577 608.711a174.364 174.364 0 0 1-39.822 113.778 139.947 139.947 0 0 1-108.089 51.2zm22.756-768l-56.89 614.4c0 11.378 0 22.756 11.379 28.445a29.355 29.355 0 0 0 22.755 11.377h613.604a43.179 43.179 0 0 0 22.755-11.377c11.378-5.69 11.378-17.067 11.378-28.445l-62.578-614.4a31.858 31.858 0 0 0-34.133-28.444H262.428a36.466 36.466 0 0 0-34.076 28.444zM284.5 341.333a53.817 53.817 0 0 1 56.89-56.889 53.703 53.703 0 0 1 56.888 56.89A113.778 113.778 0 0 0 512.057 455.11a113.778 113.778 0 0 0 113.778-113.778 53.817 53.817 0 0 1 56.889-56.889 53.703 53.703 0 0 1 56.888 56.89 228.068 228.068 0 0 1-227.555 227.555A228.238 228.238 0 0 1 284.33 341.333z"/></svg>