<svg class="icon" width="200" height="200" viewBox="0 0 1024 1024" xmlns="http://www.w3.org/2000/svg"><path d="M658.603 251.96a56.889 56.889 0 0 1 56.661 51.656l55.41 544.484a56.889 56.889 0 0 1-51.428 61.895l-5.177.227H170.667a56.889 56.889 0 0 1-56.89-56.889l.228-5.233 55.41-544.484a56.889 56.889 0 0 1 56.661-51.655h432.527zM799.46 113.779a56.889 56.889 0 0 1 56.66 51.655l55.41 544.54a56.889 56.889 0 0 1-51.427 61.839l-5.234.227h-30.321l-42.952-466.887c-6.144-66.958-63.146-118.215-131.3-118.215l-347.306-.057 7.282-21.447a56.889 56.889 0 0 1 56.661-51.655H799.46zM574.464 398.222c-18.204 0-32.996 14.564-32.996 32.484 0 53.874-44.26 97.564-98.872 97.564s-98.816-43.69-98.816-97.621a32.711 32.711 0 0 0-32.996-32.427c-18.204 0-32.939 14.564-32.939 32.484 0 89.77 73.785 162.588 164.75 162.588 91.023 0 164.808-72.818 164.808-162.588a32.711 32.711 0 0 0-32.996-32.484z"/></svg>