<svg class="icon" width="200" height="200" viewBox="0 0 1024 1024" xmlns="http://www.w3.org/2000/svg"><path d="M950.857 219.429L1024 1024H0l73.143-804.571h877.714zm-66.78 73.142H139.85L80.02 950.857h863.89l-59.831-658.286z"/><path d="M512 0a256 256 0 0 1 255.634 241.957L768 256h-73.143a182.857 182.857 0 0 0-365.348-11.995L329.143 256H256A256 256 0 0 1 512 0zM365.714 559.177v73.143h292.572v-73.143zm0 146.286v73.143h292.572v-73.143z"/><path d="M475.429 888.32h73.142V595.749H475.43zm-85.651-548.718l122.953 120.686 117.907-120.174 52.224 51.2-169.107 172.398-175.25-171.886z"/></svg>