<svg class="icon" width="200" height="200" viewBox="0 0 1024 1024" xmlns="http://www.w3.org/2000/svg"><path d="M800.93 0c47.697.216 88.657 28.618 102.777 75.13l81.974 224.094 1.078 3.233 1.078 4.797c6.09 20.48 9.377 42.685 9.162 64.727 0 77.393-38.266 148.48-100.083 185.614-26.085 15.63-57.02 23.768-91.944 23.93-57.721 0-111.023-27.541-147.24-74.914-35.948 47.05-88.604 74.59-145.409 75.129-57.344-.54-110.107-27.972-146.054-74.914-36.218 47.32-89.52 75.022-146.864 75.237-34.277 0-64.673-7.599-90.543-22.743C66.075 522.563 26.947 451.26 26.947 372.952c0-22.205 3.18-44.41 9.594-65.968l1.24-5.335L126.06 72.812C139.533 28.295 177.044 0 225.496 0h575.38zm.054 107.628l-.485.161-572.524-.053-1.294 3.934-85.692 221.992-1.078 4.312a120.832 120.832 0 0 0-4.85 26.085l-.324 8.893c0 40.636 19.51 76.26 48.559 93.237 8.677 5.12 20.264 8.03 35.732 8.03 20.48-.053 40.26-9.107 55.89-26.192l5.712-6.737a107.79 107.79 0 0 1 165.565-6.845l5.605 6.737c16.276 21.235 38.157 32.499 59.553 32.714 20.157-.215 39.613-9.162 55.135-26.085l5.659-6.79a107.79 107.79 0 0 1 165.672-6.683l11.264 13.473c15.522 17.031 35.14 25.87 55.458 25.87 15.952-.054 27.971-3.234 36.864-8.516 28.618-17.246 47.804-52.816 47.804-94.154a113.826 113.826 0 0 0-2.64-24.899l-3.773-14.444-80.303-219.567-1.51-4.527zm-410.248 107.95h242.527q40.421 0 40.421 40.422 0 40.421-40.42 40.421H390.736q-40.421 0-40.421-40.421t40.42-40.421zm444.632 431.159a53.895 53.895 0 0 1 53.518 47.589l.377 6.306v161.684a161.684 161.684 0 0 1-152.199 161.415l-9.485.269H296.42a161.684 161.684 0 0 1-161.415-152.199l-.27-9.485V700.632a53.895 53.895 0 0 1 107.413-6.306l.377 6.306v161.684a53.895 53.895 0 0 0 47.59 53.517l6.305.378h431.16a53.895 53.895 0 0 0 53.517-47.59l.378-6.305V700.632a53.895 53.895 0 0 1 53.894-53.895z"/></svg>