<svg class="icon" width="200" height="200" viewBox="0 0 1024 1024" xmlns="http://www.w3.org/2000/svg"><path d="M512 460.8a25.344 25.344 0 0 1 25.42 22.016l.18 2.893V717.49A25.267 25.267 0 0 1 512 742.4a25.344 25.344 0 0 1-25.42-22.016l-.18-2.893V485.71A25.267 25.267 0 0 1 512 460.8zm15.693-173.824l2.406 2.125 153.6 153.6a25.6 25.6 0 0 1-33.792 38.323l-2.406-2.125L512 343.424 376.5 478.899a25.6 25.6 0 0 1-33.793 2.125l-2.406-2.125a25.6 25.6 0 0 1-2.125-33.792l2.125-2.406 153.6-153.6a25.6 25.6 0 0 1 33.792-2.125z"/></svg>