<svg class="icon" width="200" height="200" viewBox="0 0 1024 1024" xmlns="http://www.w3.org/2000/svg"><path d="M510.822 310.17a198.758 198.758 0 0 0-198.656 198.656 198.758 198.758 0 0 0 198.656 198.758 198.758 198.758 0 0 0 198.656-198.656A198.758 198.758 0 0 0 510.822 310.17zm0 318.566c-65.024 0-119.808-54.784-119.808-119.91 0-65.024 54.784-119.808 119.808-119.808 65.076 0 119.86 54.784 119.86 119.808 0 65.075-54.784 119.91-119.808 119.91zM365.62 26.368c-10.24 0-20.48 3.43-30.72 6.86a599.652 599.652 0 0 0-143.513 81.665 93.9 93.9 0 0 0-23.962 108.902c10.24 27.239 10.24 57.856-3.38 81.664-13.72 23.808-41.01 40.858-68.402 44.237-44.39 3.38-75.162 34.048-81.972 74.854C3.43 451.79 0 482.406 0 509.645c0 27.187 3.43 54.477 6.81 81.664a90.573 90.573 0 0 0 82.022 74.854c30.72 3.43 54.682 20.48 68.352 44.288 13.67 23.808 17.1 54.426 3.43 81.664-17.1 40.858-6.86 85.095 27.341 112.333a599.757 599.757 0 0 0 143.463 81.664c37.632 13.62 82.022 0 109.414-34.048a89.242 89.242 0 0 1 71.68-37.376c30.771 0 58.112 13.568 75.264 37.376a92.57 92.57 0 0 0 105.83 34.048c51.405-20.48 99.687-48.026 143.514-81.715 30.976-27.136 40.704-71.27 23.962-108.851-10.24-27.239-10.24-57.856 3.379-81.716 13.721-23.808 41.011-40.857 68.403-44.236 44.39-3.43 75.162-33.997 81.971-74.855 3.43-27.238 6.861-57.856 6.861-85.094s-3.43-54.426-6.86-81.715a90.573 90.573 0 0 0-81.972-74.855 88.474 88.474 0 0 1-68.403-44.185c-13.62-23.808-17.05-54.477-3.38-81.767 17.101-37.376 6.81-84.992-23.91-108.851-40.96-33.997-92.262-61.286-143.513-81.664-37.581-13.62-82.023 0-109.364 34.048a89.242 89.242 0 0 1-71.73 37.376c-30.72 0-58.113-13.568-75.214-37.376-13.619-30.72-44.39-44.288-71.73-44.288zm-3.43 888.32h-3.38c-44.441-20.48-85.503-40.858-123.084-71.526-3.38-3.328-3.38-13.568 0-16.999 23.961-51.046 20.531-108.902-6.759-153.088-27.392-47.616-75.212-78.336-129.843-85.094-6.86 0-13.721-3.43-13.721-10.24-3.38-23.808-6.81-44.237-6.81-68.096 0-23.808 3.43-47.616 6.81-71.424 0-6.81 6.86-10.24 13.721-10.24 54.58-6.81 102.4-37.479 129.843-85.095 27.29-47.616 30.72-102.092 6.81-153.088-3.43-6.86-3.43-13.619 3.43-17.1 37.581-30.618 78.592-50.996 122.983-67.994 6.81-3.482 13.67 3.38 17.1 6.758a167.066 167.066 0 0 0 136.705 71.527c54.681 0 105.881-23.86 136.704-68.096 3.379-3.43 10.188-10.24 16.998-6.81a385.126 385.126 0 0 1 119.654 71.475c3.38 3.38 3.38 10.24 3.38 16.999-23.91 51.046-20.48 108.902 6.81 153.139 27.391 47.616 75.263 78.234 129.842 85.094 6.912 0 13.722 3.38 13.722 10.24 3.38 23.808 6.81 44.237 6.81 68.045 0 23.757-3.43 47.616-6.81 71.424 0 6.81-6.81 10.24-13.722 10.24-54.63 6.81-102.45 37.376-129.843 85.043-27.29 47.616-30.72 102.144-6.81 153.19 3.431 6.81 3.431 13.569-3.379 17-37.632 30.617-78.643 51.046-123.084 68.095-6.759 3.38-13.62-3.43-17.05-6.86a167.066 167.066 0 0 0-136.704-71.425c-54.63 0-105.882 23.808-136.653 68.045-6.86 3.38-10.24 6.81-13.67 6.81v.051z"/></svg>