<svg class="icon" width="200" height="200" viewBox="0 0 1024 1024" xmlns="http://www.w3.org/2000/svg"><path d="M332.303 954.898a602.72 602.72 0 0 1-143.834-81.258 92.903 92.903 0 0 1-27.385-111.843 86.057 86.057 0 0 0-3.455-81.258 89.576 89.576 0 0 0-68.59-43.892 90.6 90.6 0 0 1-82.154-74.605 647.636 647.636 0 0 1-6.91-81.002 240.96 240.96 0 0 1 13.82-84.714 87.145 87.145 0 0 1 82.155-74.604 94.95 94.95 0 0 0 68.59-43.892 95.975 95.975 0 0 0 3.135-81.259A93.095 93.095 0 0 1 191.86 88.248 599.073 599.073 0 0 1 335.694 6.99a103.717 103.717 0 0 1 30.84-6.975A77.931 77.931 0 0 1 438.323 44.1a91.368 91.368 0 0 0 75.244 37.11 93.223 93.223 0 0 0 70.893-41.973A103.908 103.908 0 0 1 663.991.015a83.178 83.178 0 0 1 29.944 5.503 553.39 553.39 0 0 1 144.986 86.121 91.752 91.752 0 0 1 23.93 108.067 85.29 85.29 0 0 0 3.454 81.579 87.72 87.72 0 0 0 68.334 43.764 91.176 91.176 0 0 1 82.41 74.349 652.627 652.627 0 0 1 6.399 81.578 703.238 703.238 0 0 1-6.398 84.458 87.849 87.849 0 0 1-82.41 74.604 93.16 93.16 0 0 0-68.335 43.892 95.143 95.143 0 0 0-3.455 81.259 93.48 93.48 0 0 1-23.93 108.323 608.863 608.863 0 0 1-143.833 81.258 91.304 91.304 0 0 1-30.264 4.863 91.944 91.944 0 0 1-75.82-38.838 91.944 91.944 0 0 0-75.5-37.11 89.576 89.576 0 0 0-71.789 37.11 103.14 103.14 0 0 1-79.53 39.222 87.593 87.593 0 0 1-29.881-5.119zM100.556 385.77a23.226 23.226 0 0 0-23.61 20.987l-1.151 6.398-2.303 5.758a185.55 185.55 0 0 0-9.47 62.256 586.916 586.916 0 0 0 6.014 71.213 26.68 26.68 0 0 0 24.186 20.347l.896.383h.896a152.92 152.92 0 0 1 117.025 75.5 148.889 148.889 0 0 1 6.398 139.484 29.432 29.432 0 0 0 8.318 35.126 550.83 550.83 0 0 0 126.814 71.853 38.39 38.39 0 0 0 7.806 1.152 40.245 40.245 0 0 0 29.112-14.396 153.56 153.56 0 0 1 121.568-62h.576a155.735 155.735 0 0 1 127.39 63.6v.383a28.6 28.6 0 0 0 23.674 11.901 26.297 26.297 0 0 0 8.318-1.28 551.406 551.406 0 0 0 124.767-70.381 28.728 28.728 0 0 0 6.398-32.887l-.576-1.728-.896-1.727a160.342 160.342 0 0 1 8.062-136.348 158.614 158.614 0 0 1 116.13-75.244h2.879a23.418 23.418 0 0 0 23.61-20.091 646.933 646.933 0 0 0 6.078-74.988 584.933 584.933 0 0 0-6.079-71.47 26.361 26.361 0 0 0-23.93-20.73h-.895a153.56 153.56 0 0 1-118.177-75.756 149.528 149.528 0 0 1-5.758-140.762 28.089 28.089 0 0 0-5.183-30.264l-.896-.64-.575-.512a489.918 489.918 0 0 0-126.495-75.5 23.098 23.098 0 0 0-7.806-1.472 40.245 40.245 0 0 0-29.112 14.397 155.67 155.67 0 0 1-120.48 66.862h-.832a154.263 154.263 0 0 1-127.07-63.343l-4.031-5.503-2.624-6.014c-2.047-4.607-8.957-6.399-12.412-6.399a87.529 87.529 0 0 0-9.79 2.88 548.399 548.399 0 0 0-125.087 70.381 28.664 28.664 0 0 0-6.398 32.887l.576 1.728.896 1.727a158.358 158.358 0 0 1-7.806 135.964 159.382 159.382 0 0 1-116.13 75.5h-1.407zm219.334 94.503a191.95 191.95 0 0 1 191.95-191.949 191.95 191.95 0 0 1 191.949 191.95 191.95 191.95 0 0 1-191.95 191.948 191.95 191.95 0 0 1-191.82-192.077zm63.983 0A127.966 127.966 0 0 0 511.84 608.238a127.966 127.966 0 0 0 127.966-127.966A127.966 127.966 0 0 0 511.84 352.306a127.966 127.966 0 0 0-127.838 127.838z"/></svg>