<svg class="icon" width="200" height="200" viewBox="0 0 1024 1024" xmlns="http://www.w3.org/2000/svg"><path d="M292.238 967.111a72.76 72.76 0 0 1-63.203-36.75L10.012 549.205a74.297 74.297 0 0 1 0-74.638L229.035 93.412a73.273 73.273 0 0 1 63.203-36.75h439.524a73.273 73.273 0 0 1 63.203 36.75l219.023 381.155a74.297 74.297 0 0 1 0 74.695L794.965 930.418a72.76 72.76 0 0 1-63.203 36.75zM119.751 512l196.267 341.333h391.907L904.25 512 707.925 170.667H316.018zm193.422 0a199.111 199.111 0 0 1 199.111-199.111A199.111 199.111 0 0 1 711.396 512a199.111 199.111 0 0 1-199.112 199.111A199.111 199.111 0 0 1 312.89 512zm113.778 0a85.333 85.333 0 0 0 85.333 85.333A85.333 85.333 0 0 0 597.618 512a85.333 85.333 0 0 0-85.334-85.333A85.333 85.333 0 0 0 426.667 512z"/></svg>