<svg class="icon" width="200" height="200" viewBox="0 0 1024 1024" xmlns="http://www.w3.org/2000/svg"><path d="M568.434 89.145l284.444 162.531a113.778 113.778 0 0 1 57.344 98.816v323.016a113.778 113.778 0 0 1-57.344 98.816L568.434 934.855a113.778 113.778 0 0 1-112.868 0L171.122 772.324a113.778 113.778 0 0 1-57.344-98.816V350.492a113.778 113.778 0 0 1 57.344-98.816L455.566 89.145a113.778 113.778 0 0 1 112.868 0zM512 341.333c-95.232 0-172.43 76.402-172.43 170.667S416.768 682.667 512 682.667c95.232 0 172.43-76.402 172.43-170.667S607.232 341.333 512 341.333z"/></svg>