<svg class="icon" width="200" height="200" viewBox="0 0 1024 1024" xmlns="http://www.w3.org/2000/svg"><path d="M810.342 334.848c16.384 29.184 45.824 46.592 78.592 46.592 27.392 0 49.818 22.938 49.818 51.302v158.67c0 28.16-22.426 51.2-49.818 51.2-32.87 0-62.208 17.458-78.592 46.694a94.72 94.72 0 0 0 0 93.286 52.07 52.07 0 0 1-18.278 69.99L658.688 931.84a49.152 49.152 0 0 1-67.994-18.637 89.344 89.344 0 0 0-78.592-46.745c-32.768 0-62.208 17.408-78.592 46.643a49.51 49.51 0 0 1-43.264 25.6 48.589 48.589 0 0 1-24.73-6.861l-133.58-79.258a50.637 50.637 0 0 1-23.245-31.078 51.763 51.763 0 0 1 4.967-38.912 94.72 94.72 0 0 0 0-93.286 89.446 89.446 0 0 0-78.592-46.644c-27.392 0-49.818-23.04-49.818-51.25v-158.72c0-28.16 22.426-51.2 49.818-51.2 32.768 0 62.208-17.46 78.592-46.695a94.72 94.72 0 0 0 0-93.287 51.968 51.968 0 0 1 18.227-69.939l133.53-79.309a48.998 48.998 0 0 1 67.993 18.74 89.446 89.446 0 0 0 157.184 0 49.05 49.05 0 0 1 68.096-18.842l133.376 79.36c23.808 14.131 32 45.517 18.278 69.99a94.72 94.72 0 0 0 0 93.287zM512 750.899A239.258 239.258 0 0 0 750.95 512 239.411 239.411 0 0 0 512 273.05 239.36 239.36 0 0 0 273.05 512 239.36 239.36 0 0 0 512 750.95zm0-108.493A130.611 130.611 0 0 1 381.594 512 130.611 130.611 0 0 1 512 381.594 130.611 130.611 0 0 1 642.406 512 130.56 130.56 0 0 1 512 642.406"/></svg>