<svg class="icon" width="200" height="200" viewBox="0 0 1024 1024" xmlns="http://www.w3.org/2000/svg"><path d="M512 146.286a365.714 365.714 0 1 1 0 731.428 365.714 365.714 0 0 1 0-731.428zm0 73.143a292.571 292.571 0 1 0 0 585.142 292.571 292.571 0 0 0 0-585.142zm0 84.48a36.571 36.571 0 0 1 35.986 29.988l.585 6.583v150.528l128.147 74.825a36.571 36.571 0 0 1 15.945 44.032l-2.78 5.998a36.571 36.571 0 0 1-44.032 15.945l-5.997-2.78-146.286-85.43a36.571 36.571 0 0 1-17.554-25.235l-.585-6.363V340.48A36.571 36.571 0 0 1 512 303.909z"/></svg>