<svg class="icon" width="200" height="200" viewBox="0 0 1024 1024" xmlns="http://www.w3.org/2000/svg"><path d="M511.659 237.91l345.543 227.782 7.11 4.153v436.338c0 31.061-22.755 56.946-51.996 60.53l-6.826.398H629.476V663.61H394.524v303.445l-176.07.057c-29.81 0-54.898-23.552-58.312-53.874l-.398-7.11V466.374L511.716 237.91zM530.09 60.927L535.666 64l411.022 270.791c20.537 13.54 26.567 41.757 13.54 63.033a43.236 43.236 0 0 1-55.069 17.18l-5.689-3.185-387.584-255.375L124.473 410.34a43.008 43.008 0 0 1-56.889-8.704l-3.925-5.462a46.763 46.763 0 0 1 8.42-58.88l5.233-3.982 411.08-269.426a42.724 42.724 0 0 1 41.642-3.015z"/></svg>