<svg class="icon" width="200" height="200" viewBox="0 0 1024 1024" xmlns="http://www.w3.org/2000/svg"><path d="M830.484 967.118H193.4a77.133 77.133 0 0 1-56.882-22.753 78.043 78.043 0 0 1-22.753-56.883V540.5A114.163 114.163 0 0 1 0 426.734a119.453 119.453 0 0 1 45.506-91.012L449.372 22.868A85.324 85.324 0 0 1 511.942.115a85.324 85.324 0 0 1 62.571 22.753l403.866 312.854a118.827 118.827 0 0 1 45.506 91.012A114.106 114.106 0 0 1 910.12 540.499v346.983a78.043 78.043 0 0 1-22.753 56.883 77.872 77.872 0 0 1-54.494 22.753zm-716.72-540.384H227.53v426.619h568.825V426.734H910.12L511.942 119.569zM625.708 796.47h-227.53a53.242 53.242 0 0 1-41.296-15.529 53.868 53.868 0 0 1-15.586-41.126V569.168a54.038 54.038 0 0 1 15.586-41.354 53.242 53.242 0 0 1 41.296-15.529h227.53a53.526 53.526 0 0 1 41.297 15.53 54.038 54.038 0 0 1 15.586 41.353v170.647a53.868 53.868 0 0 1-15.586 41.126 53.754 53.754 0 0 1-37.543 15.643c-1.251-.114-2.502-.114-3.754-.114zM455.06 682.705h113.765v-56.882H455.06z"/></svg>