<svg class="icon" width="200" height="200" viewBox="0 0 1024 1024" xmlns="http://www.w3.org/2000/svg"><path d="M511.846 25.6c-24.166 0-46.95 9.882-63.744 28.058L53.094 428.032c-36.25 39.014-36.25 98.304-2.304 134.963l6.042 6.554 4.915 4.608a47.514 47.514 0 0 0 30.208 10.905h49.664v296.96c0 63.744 48.691 116.327 109.261 116.327h521.472l7.782-.307c56.628-4.25 101.12-54.58 101.99-115.303l-.05-297.728 49.664.051c13.312 0 25.907-5.632 35.123-15.513l6.041-6.503a99.072 99.072 0 0 0 0-132.659L573.338 51.302a85.76 85.76 0 0 0-61.44-25.702zm0 105.472l370.688 351.59-49.305.052c-27.034 0-48.896 22.937-48.896 51.2v348.16C784.23 889.65 778.29 896 772.352 896H250.88c-5.888 0-11.469-6.042-11.469-13.978V533.914l-.358-5.94c-2.816-25.497-23.45-45.26-48.538-45.26h-49.51l370.841-351.642zm92.058 350.208h-184.32c-37.325 0-67.738 30.413-67.738 67.738v385.33c0 37.274 49.562 43.009 159.898 43.009l37.12-.307c84.378-1.536 122.778-9.882 122.778-42.701V549.018c0-37.325-30.413-67.738-67.738-67.738zm0 51.2l3.328.358c7.475 1.536 13.21 8.244 13.21 16.18v369.97l-1.383.308a248.115 248.115 0 0 1-17.92 2.662c-23.398 2.663-55.654 4.148-89.395 4.148-33.69 0-65.997-1.485-89.395-4.148l-12.647-1.74-6.656-1.23v-369.97c0-9.063 7.527-16.538 16.538-16.538h184.32z"/></svg>