<svg class="icon" width="200" height="200" viewBox="0 0 1024 1024" xmlns="http://www.w3.org/2000/svg"><path d="M256 281.6h512a25.6 25.6 0 0 1 25.6 25.6v307.2A25.6 25.6 0 0 1 768 640H256a25.6 25.6 0 0 1-25.6-25.6V307.2a25.6 25.6 0 0 1 25.6-25.6z"/><path d="M543.654 361.549a12.8 12.8 0 0 1 22.08-1.971l.858 1.408 97.395 185.152h22.95a12.8 12.8 0 0 1 12.711 11.302l.09 1.498a12.8 12.8 0 0 1-11.316 12.71l-1.484.09h-30.682a12.8 12.8 0 0 1-10.522-5.504l-.806-1.344-88.96-169.088-78.22 168.524a12.8 12.8 0 0 1-21.889 2.266l-.87-1.357-40.115-70.925-36.736 70.528a12.8 12.8 0 0 1-9.78 6.797l-1.574.103h-38.246a12.8 12.8 0 0 1-1.498-25.524l1.498-.076h30.464l44.057-84.57a12.8 12.8 0 0 1 21.594-1.766l.896 1.382 39.462 69.76 78.643-169.395z"/><path d="M832 192a51.2 51.2 0 0 1 51.2 51.2v435.2a51.2 51.2 0 0 1-51.2 51.2H192a51.2 51.2 0 0 1-51.2-51.2V243.2A51.2 51.2 0 0 1 192 192h640zm0 25.6H192a25.6 25.6 0 0 0-25.536 23.68l-.064 1.92v435.2a25.6 25.6 0 0 0 23.68 25.536L192 704h640a25.6 25.6 0 0 0 25.536-23.68l.064-1.92V243.2a25.6 25.6 0 0 0-23.68-25.536L832 217.6zM396.8 806.4h230.4q12.8 0 12.8 12.8T627.2 832H396.8q-12.8 0-12.8-12.8t12.8-12.8z"/></svg>