<svg class="icon" width="200" height="200" viewBox="0 0 1024 1024" xmlns="http://www.w3.org/2000/svg"><path d="M113.778 967.111a56.889 56.889 0 0 1-56.89-56.889V170.667a56.889 56.889 0 1 1 113.779 0v682.666H967.11a56.889 56.889 0 1 1 0 113.778zM250.31 765.156a56.889 56.889 0 0 1-10.98-79.645l217.999-287.8a56.889 56.889 0 0 1 73.955-15.02l159.29 91.592 212.252-281.031a56.889 56.889 0 1 1 90.453 68.437l-242.46 321.08a56.889 56.889 0 0 1-73.615 15.133l-159.516-91.59-187.733 247.864a56.889 56.889 0 0 1-79.645 10.98z"/></svg>