<svg class="icon" width="200" height="192.12" viewBox="0 0 1066 1024" xmlns="http://www.w3.org/2000/svg"><path d="M917.323 0H146.027C63.168 0 .005 72.15.005 157.403v533.2c0 85.205 63.179 157.274 146.027 157.274h771.29c82.849 0 146.027-72.069 146.027-157.274v-533.2C1063.35 72.149 1000.187 0 917.323 0zM146.027 106.667h771.29c20.566 0 39.36 21.466 39.36 50.736v533.2c0 29.189-18.773 50.608-39.36 50.608h-771.29c-20.587 0-39.36-21.419-39.36-50.608v-533.2c0-29.27 18.8-50.736 39.36-50.736zM799.365 921.84c27.142 0 49.11 22.08 49.11 49.275 0 26.714-21.206 48.49-47.68 49.248l-1.43.021H263.984c-27.136 0-49.104-22.08-49.104-49.27 0-26.72 21.205-48.495 47.68-49.253l1.424-.021h535.381zm17.403-676.416a49.013 49.013 0 0 1 46.304-17.061 49.152 49.152 0 0 1 37.696 31.866 49.376 49.376 0 0 1-7.68 47.206l-1.072 1.312-175.915 210.122c-40.762 48.795-110.128 51.542-154.053 6.336l-1.392-1.461-154.379-164.8c-3.381-3.59-5.44-3.595-8.922.944l-.534.715-148.629 203.84a48.992 48.992 0 0 1-67.717 9.317c-20.928-15.424-26.208-44.448-12.027-66.645l.837-1.275 148.288-203.381c39.302-54.214 112.768-59.974 158.843-12.518l1.387 1.451 154.426 164.853c3.168 3.392 4.891 3.52 8.038-.026l.57-.662 175.931-210.133z"/></svg>