<svg class="icon" width="200" height="200" viewBox="0 0 1024 1024" xmlns="http://www.w3.org/2000/svg"><path d="M905.472 950.656L759.744 805.184a382.272 382.272 0 0 1-247.68 90.88 384.448 384.448 0 0 1-384-384 384.512 384.512 0 0 1 384-384 384.512 384.512 0 0 1 384 384 382.592 382.592 0 0 1-90.88 247.744l145.408 145.344a32 32 0 0 1 0 45.376 32 32 0 0 1-22.528 9.28 32 32 0 0 1-22.592-9.152zM192 512a320.448 320.448 0 0 0 320 320 320 320 0 0 0 320-320 320 320 0 0 0-320-320 320.512 320.512 0 0 0-320 320z"/></svg>