<svg class="icon" width="200" height="200" viewBox="0 0 1024 1024" xmlns="http://www.w3.org/2000/svg"><path d="M860.16 266.24c72.059 0 130.744 57.252 133.048 128.748l.052 2.17.02 2.202v404.48c0 72.786-58.414 131.927-130.918 133.105l-2.202.015H184.32c-72.786 0-131.927-58.414-133.105-130.918l-.015-2.202V220.16c0-72.786 58.414-131.927 130.918-133.105l2.202-.015h128a51.2 51.2 0 0 1 31.38 10.742l1.398 1.126L545.894 266.24H860.16zM153.6 368.64v435.2a30.72 30.72 0 0 0 29.568 30.7l1.152.02h675.84a30.72 30.72 0 0 0 30.7-29.568l.02-1.152V399.36a30.72 30.72 0 0 0-29.568-30.7l-1.152-.02H153.6zm140.186-179.2H184.32a30.72 30.72 0 0 0-30.7 29.568l-.02 1.152v46.08h232.346l-92.16-76.8zM409.6 491.52h327.68a30.72 30.72 0 0 1 0 61.44H409.6a30.72 30.72 0 0 1 0-61.44zm0 158.72h327.68a30.72 30.72 0 0 1 0 61.44H409.6a30.72 30.72 0 0 1 0-61.44zM307.2 491.52q30.72 0 30.72 30.72t-30.72 30.72q-30.72 0-30.72-30.72t30.72-30.72zm0 158.72q30.72 0 30.72 30.72t-30.72 30.72q-30.72 0-30.72-30.72t30.72-30.72z"/></svg>