<svg class="icon" width="200" height="200" viewBox="0 0 1024 1024" xmlns="http://www.w3.org/2000/svg"><path d="M907.833 379.278a56.889 56.889 0 0 1 55.182 70.656L858.795 867.1a56.889 56.889 0 0 1-55.183 43.122H219.705a56.889 56.889 0 0 1-55.182-43.122L60.303 449.991a56.889 56.889 0 0 1 55.181-70.656h792.349zm-513.138-265.5c25.657 0 62.18 17.863 80.725 39.14l28.047 32.426c18.033 21.845 54.613 39.196 80.725 39.196h206.791c26.112 0 51.769 19.57 56.889 44.146l9.557 44.203H175.332l13.71-144.327c2.844-30.151 26.624-54.784 52.736-54.784z"/></svg>