<svg class="icon" width="200" height="200" viewBox="0 0 1024 1024" xmlns="http://www.w3.org/2000/svg"><path d="M620.096 137.984a216.064 216.064 0 0 1 205.12 180.224h-60.16l97.088 144.448 97.152-144.448h-67.008A283.904 283.904 0 0 0 626.944 66.496a35.392 35.392 0 0 0-36.864 35.712 36.928 36.928 0 0 0 30.016 35.776zm-150.4-73.024H131.968a35.456 35.456 0 0 0-34.176 37.248v321.728a35.456 35.456 0 0 0 34.176 37.248h337.728a35.456 35.456 0 0 0 34.176-37.248V102.208a35.456 35.456 0 0 0-34.176-37.248zm-32.832 324.736H164.8V136.448h272.128v253.248zm-32.832 494.528a216 216 0 0 1-209.216-216.128h64l-97.024-144.448L64.96 668.096h64a284.8 284.8 0 0 0 268.288 287.616 35.968 35.968 0 0 0 6.784-71.488zm489.6-323.264H555.84a35.456 35.456 0 0 0-34.176 37.248v323.264a35.392 35.392 0 0 0 34.176 37.184h337.728a35.392 35.392 0 0 0 34.112-37.184V598.208a36.288 36.288 0 0 0-34.048-37.248zm-32.896 324.736H588.672V633.92h272.064z"/></svg>