<svg class="icon" width="200" height="200" viewBox="0 0 1024 1024" xmlns="http://www.w3.org/2000/svg"><path d="M640 870.4a25.6 25.6 0 0 0 20.992 25.19l4.608.41h204.8a25.6 25.6 0 0 0 25.19-20.992l.41-4.608V153.6a25.6 25.6 0 0 0-20.992-25.19L870.4 128H665.6a25.6 25.6 0 0 0-4.608 50.79l4.608.41h179.2v665.6H665.6a25.6 25.6 0 0 0-25.19 20.992L640 870.4zM102.4 499.61a25.6 25.6 0 0 0 25.6 25.6h463.411l-97.536 97.536-2.918 3.532a25.6 25.6 0 0 0 39.168 32.666l141.21-141.21 2.918-3.584a25.6 25.6 0 0 0-2.919-32.614l-141.21-141.26-3.583-2.92a25.6 25.6 0 0 0-32.666 2.92l-2.918 3.583a25.6 25.6 0 0 0 2.918 32.666l97.536 97.485H128a25.6 25.6 0 0 0-25.19 20.992z"/></svg>