<svg class="icon" width="200" height="200" viewBox="0 0 1024 1024" xmlns="http://www.w3.org/2000/svg"><path d="M.031 511.943a511.943 511.943 0 1 1 511.943 511.943A509.725 509.725 0 0 1 .031 511.943zm113.765 0a398.178 398.178 0 1 0 398.178-398.178 395.789 395.789 0 0 0-398.178 398.178zM617.378 734.24l-105.46-72.298-105.461 72.298a28.441 28.441 0 0 1-44.027-31l32.878-130.83-100.796-86.633a29.067 29.067 0 0 1 17.065-51.194l128.27-7.338 44.823-123.663a28.441 28.441 0 0 1 54.096 0l45.108 123.663 128.27 7.338a29.067 29.067 0 0 1 17.065 51.194L628.413 572.41l32.878 130.83a29.01 29.01 0 0 1-27.873 36.234 27.588 27.588 0 0 1-15.984-5.233z"/></svg>