<svg class="icon" width="200" height="200" viewBox="0 0 1024 1024" xmlns="http://www.w3.org/2000/svg"><path d="M934.4 256H768c-47.104 0-84.992-38.4-84.992-84.992V0L934.4 256z"/><path d="M682.496 0h-506.88c-22.528 0-44.544 8.704-60.416 25.088C99.328 40.96 90.112 62.976 90.112 85.504V939.52c0 46.592 37.888 84.48 84.48 84.48H849.92c46.592 0 84.48-37.888 84.48-84.48V256L682.496 0zM314.368 358.4c29.696 0 53.76 25.6 53.76 57.344s-24.064 57.344-53.76 57.344-53.76-25.6-53.76-57.344C260.096 384 284.16 358.4 314.368 358.4zm-83.456 341.504l186.88-186.368 82.944 95.232 159.232-179.712 135.168 270.848H230.912z"/></svg>