<svg class="icon" width="200" height="193.94" viewBox="0 0 1056 1024" xmlns="http://www.w3.org/2000/svg"><path d="M192 960A128 128 0 0 1 64 832V256a128 128 0 0 1 128-128h704a128 128 0 0 1 128 128v576a128 128 0 0 1-128 128zm-64-704v576a64 64 0 0 0 64 64h704a64 64 0 0 0 64-64V256a64 64 0 0 0-64-64H192a64 64 0 0 0-64 64zm708.672 496.384l-164.608-275.2-164.608 275.2a31.36 31.36 0 0 1-23.488 15.296 32 32 0 0 1-26.56-9.088L352.064 652.928 246.72 758.592a32 32 0 0 1-45.248 0 32 32 0 0 1 0-45.312l128-128.32a32 32 0 0 1 45.248 0l99.072 99.136 170.944-285.504a33.024 33.024 0 0 1 54.784 0l192 320.896a32 32 0 0 1-11.008 44.032A32 32 0 0 1 864 768.064a32 32 0 0 1-27.328-15.68zM256 416a96 96 0 0 1 96-96 96 96 0 0 1 96 96 96 96 0 0 1-96 96 96 96 0 0 1-96-96zm64 0a32 32 0 0 0 32 32 32 32 0 0 0 32-32 32 32 0 0 0-32-32 32 32 0 0 0-32 32z"/></svg>