<svg class="icon" width="200" height="200" viewBox="0 0 1024 1024" xmlns="http://www.w3.org/2000/svg"><path d="M715.8 423.447L495.778 643.491a33.745 33.745 0 0 1-24.32 10.147 34.657 34.657 0 0 1-24.297-9.96L326.097 522.425a34.28 34.28 0 1 1 48.524-48.523l96.838 96.86L667.183 375.04a34.28 34.28 0 0 1 48.523 0c13.498 13.382 13.498 35.095.093 48.407zM512 0c282.764 0 512 229.236 512 512s-229.236 512-512 512S0 794.764 0 512 229.236 0 512 0zm0 69.818C267.8 69.818 69.818 267.8 69.818 512S267.8 954.182 512 954.182 954.182 756.2 954.182 512 756.2 69.818 512 69.818z"/></svg>