<svg class="icon" width="200" height="200" viewBox="0 0 1024 1024" xmlns="http://www.w3.org/2000/svg"><path d="M512 0c282.752 0 512 229.248 512 512s-229.248 512-512 512S0 794.752 0 512 229.248 0 512 0zm0 42.667C252.8 42.667 42.667 252.8 42.667 512S252.8 981.333 512 981.333 981.333 771.2 981.333 512 771.2 42.667 512 42.667zm216.32 298.88c9.813 8.874 10.667 24.064 1.792 33.92l-286.25 317.866a23.893 23.893 0 0 1-12.289 7.296 24.021 24.021 0 0 1-21.333-4.352l-2.901-2.688-113.067-125.568a23.979 23.979 0 0 1 32.47-35.072l3.2 2.944 95.487 106.112L694.4 343.34a23.979 23.979 0 0 1 33.92-1.792z"/></svg>