<svg class="icon" width="200" height="200" viewBox="0 0 1024 1024" xmlns="http://www.w3.org/2000/svg"><path d="M549.9 537.088l-1.369.55-2.547 1.216-1.203.666c-7.77 4.8-13.056 13.722-13.056 22.784v136.282l.41 9.05c4.057 40.473 31.539 74.15 74.175 102.4a346.227 346.227 0 0 0 49.165 26.854 334.043 334.043 0 0 0 12.442 5.312l3.776 1.497c2.995 1.152 5.171 1.959 6.4 2.381l4.646 1.178a48.384 48.384 0 0 0 22.106-.986l3.789-1.344c.96-.346 2.022-.755 3.225-1.216a345.153 345.153 0 0 0 16.192-6.758 353.254 353.254 0 0 0 49.14-26.573c46.284-30.247 74.662-66.445 74.662-109.287V562.291l-.09-1.536-.333-2.726-.268-1.472c-2.138-8.82-8.973-16.615-17.562-19.507l-128.128-43.853-4.518-1.19-.986-.205a47.808 47.808 0 0 0-21.274 1.203l-128.793 44.07z"/><path d="M843.866 393.498l-2.01-5.863C803.072 249.55 649.446 154.19 485.018 165.683c-187.252 13.12-330.637 158.72-319.975 326.106l.947 10.752.653 5.58.794 5.658c10.688 71.552 49.305 134.63 112.614 184.09l1.293.985.602 8.832c4.224 58.33 11.545 87.578 25.51 97.562l.986.627c12.659 7.296 35.904-.678 91.404-29.85l17.357-9.241 24.307 3.827 18.01 2.496 1.408.128 3.494.013 5.018.077a14.72 14.72 0 0 0 .717-29.44l-3.328-.051h-4.173L416 737.254l-1.754-.128a14.797 14.797 0 0 0-7.296 1.754l-9.996 5.35c-21.082 11.213-38.336 19.815-51.661 25.754l-5.875 2.56-5.287 2.163-4.646 1.754a98.712 98.712 0 0 1-5.773 1.894l-.973.243-.589-1.408c-4.262-10.97-8.64-39.564-11.212-77.235l-.615-9.613a14.72 14.72 0 0 0-5.811-10.88l-6.515-4.928-4.826-3.84c-57.28-46.464-90.79-104.998-97.881-171.033l-.896-10.112-.256-4.48c-6.72-148.839 123.57-278.144 292.94-290.01 150.81-10.56 291.559 76.352 326.682 201.331 9.062 25.83 13.44 47.77 13.44 67.072a14.72 14.72 0 1 0 29.44 0c0-21.107-4.25-44.25-12.774-69.964z"/><path d="M549.9 537.088l-1.369.55-2.547 1.216-1.203.666c-7.77 4.8-13.056 13.722-13.056 22.784v136.282l.41 9.05c4.057 40.473 31.539 74.15 74.175 102.4a346.227 346.227 0 0 0 49.165 26.854 334.043 334.043 0 0 0 12.442 5.312l3.776 1.497c2.995 1.152 5.171 1.959 6.4 2.381l4.646 1.178a48.384 48.384 0 0 0 22.106-.986l3.789-1.344c.96-.346 2.022-.755 3.225-1.216a345.153 345.153 0 0 0 16.192-6.758 353.254 353.254 0 0 0 49.14-26.573c46.284-30.247 74.662-66.445 74.662-109.287V562.291l-.09-1.536-.333-2.726-.268-1.472c-2.138-8.82-8.973-16.615-17.562-19.507l-128.128-43.853-4.518-1.19-.986-.205a47.808 47.808 0 0 0-21.274 1.203l-128.793 44.07zm145.409-20.096l2.88.717 127.18 43.584.18.153a4.211 4.211 0 0 1 .601.845l.09.704v138.1c0 32.153-23.258 61.849-63.053 87.859a328.077 328.077 0 0 1-45.568 24.614 329.099 329.099 0 0 1-11.52 4.89l-8.256 3.161-.665.243a21.9 21.9 0 0 1-9.255.333l-2.662-.665-.768-.333-3.533-1.357-7.142-2.893a313.405 313.405 0 0 1-7.847-3.405 321.037 321.037 0 0 1-45.53-24.857c-36.863-24.423-59.711-52.416-62.783-82.944l-.359-7.77.013-135.68.602-.717.102-.102.858-.41L686.4 517.414a21.248 21.248 0 0 1 7.296-.627l1.613.205z"/><path d="M756.122 603.11a12.8 12.8 0 0 1 19.161 16.896l-1.062 1.216-83.43 83.43a12.8 12.8 0 0 1-16.897 1.063l-1.203-1.062-46.989-46.989a12.8 12.8 0 0 1 16.896-19.174l1.204 1.075 37.939 37.926 74.38-74.368zM400.128 413.568a27.06 27.06 0 1 0 54.106 0 27.06 27.06 0 0 0-54.119 0zm174.31 0a27.06 27.06 0 1 0 54.119 0 27.06 27.06 0 0 0-54.119 0z"/></svg>