<svg class="icon" width="200" height="200" viewBox="0 0 1024 1024" xmlns="http://www.w3.org/2000/svg"><path d="M474.191 22.756c243.03-16.953 470.813 123.448 528.213 327.68 14.223 40.39 21.618 76.856 21.618 109.795a56.889 56.889 0 0 1-113.38 6.656l-.398-6.656c0-18.716-4.892-42.837-16.27-75.491-43.008-152.747-219.99-261.86-411.875-248.434-216.121 15.132-379.279 177.834-367.73 358.798 6.542 96.484 60.871 180.508 161.223 245.134a56.889 56.889 0 0 1 25.657 54.841l-1.365 7.111-8.022 31.232 60.302-35.954a56.889 56.889 0 0 1 29.867-8.078l7.85.683 45.512 6.656c46.82 6.485 25.941 4.95 46.706 5.461a56.889 56.889 0 1 1-2.902 113.778c-22.414-.569.91 1.422-40.505-3.982l-45.795-6.486-124.245 74.184a67.698 67.698 0 0 1-26.226 8.476l-8.022.341c-15.928 0-31.573-4.721-46.023-14.506a75.662 75.662 0 0 1-30.72-73.273l1.48-7.737 20.764-80.84-10.07-7.622C72.272 728.292 14.246 630.329 2.242 518.599L.819 502.556C-14.94 255.204 198.792 42.098 474.134 22.812zm386.39 640.967a28.444 28.444 0 0 1 45.51 33.792l-3.071 4.096-101.832 113.777a28.444 28.444 0 0 1-38.4 3.755l-3.982-3.755-68.835-76.8a28.444 28.444 0 0 1 38.627-41.528l3.755 3.527 47.559 53.19 80.668-90.054zm-78.735-149.504a54.101 54.101 0 0 1 24.064-1.366l5.405 1.366 198.087 67.811c6.77 2.276 12.515 8.989 14.222 16.043l.512 4.21v214.47c0 132.438-212.821 205.313-212.821 205.313a54.044 54.044 0 0 1-24.064 1.308l-5.405-1.308s-199.338-68.267-212.195-196.153l-.626-13.028V602.283c0-6.998 4.551-14.507 10.809-18.375l3.925-1.878 198.087-67.811zm14.734 55.011l-170.723 58.425v185.23c0 33.85 25.031 68.665 70.883 101.32l10.127 6.94c20.48 13.596 42.723 25.486 65.024 35.499l14.79 6.314 9.9 3.869 12.629-4.95 12.174-5.233a470.585 470.585 0 0 0 65.195-35.215c48.355-31.573 76.458-65.251 80.213-97.28l.455-7.395-.114-189.042-170.61-58.425zM341.356 398.222a56.889 56.889 0 1 0 113.777 0 56.889 56.889 0 1 0-113.777 0zm227.555 0a56.889 56.889 0 1 0 113.778 0 56.889 56.889 0 1 0-113.778 0z"/></svg>