<svg class="icon" width="200" height="200" viewBox="0 0 1024 1024" xmlns="http://www.w3.org/2000/svg"><path d="M512 42.667C771.2 42.667 981.333 252.8 981.333 512S771.2 981.333 512 981.333 42.667 771.2 42.667 512 252.8 42.667 512 42.667zM512 128a384 384 0 1 0 0 768 384 384 0 0 0 0-768zm0 595.541a53.333 53.333 0 1 1 0 106.667 53.333 53.333 0 0 1 0-106.667zm25.43-488.192a170.539 170.539 0 0 1 141.738 168.278c0 54.613-32.341 97.706-82.944 131.413a339.499 339.499 0 0 1-40.235 23.04l-4.736 2.133v68.054a42.667 42.667 0 0 1-37.674 42.368l-4.992.298a42.667 42.667 0 0 1-42.368-37.717l-.299-4.95v-96.725a42.667 42.667 0 0 1 24.576-38.656l12.544-4.821 8.192-3.499c12.928-5.76 25.856-12.629 37.632-20.48 29.312-19.584 44.97-40.405 44.97-60.501a85.248 85.248 0 0 0-163.114-34.816l-2.56 6.4a42.667 42.667 0 0 1-80.47-28.33 170.581 170.581 0 0 1 189.74-111.489z"/></svg>