<svg class="icon" width="200" height="200" viewBox="0 0 1024 1024" xmlns="http://www.w3.org/2000/svg"><path d="M512 1024a512 512 0 1 1 512-512 512.576 512.576 0 0 1-512 512zm0-960a448 448 0 1 0 448 448A448.512 448.512 0 0 0 512 64zm-64 704a64 64 0 1 1 64 64 64 64 0 0 1-64-64zm30.08-160a153.6 153.6 0 0 1 79.808-134.848 582.4 582.4 0 0 0 58.752-50.112 86.72 86.72 0 0 0 15.488-96.64A119.552 119.552 0 0 0 515.712 256a136.576 136.576 0 0 0-132.8 101.504 32 32 0 0 1-39.168 22.72 32 32 0 0 1-22.656-39.232A200 200 0 0 1 519.872 192 180.672 180.672 0 0 1 691.2 302.144a151.424 151.424 0 0 1-29.696 166.4 670.208 670.208 0 0 1-64.64 55.232c-38.848 30.08-54.976 42.496-54.976 84.224a32 32 0 1 1-64 0z"/></svg>