<svg class="icon" width="200" height="200" viewBox="0 0 1024 1024" xmlns="http://www.w3.org/2000/svg"><path d="M336.232 1015.745l-160.243-95.096a60.795 60.795 0 0 1-27.902-37.31 62.395 62.395 0 0 1 5.952-46.683 113.527 113.527 0 0 0 0-111.991A107.191 107.191 0 0 0 59.775 668.7 60.795 60.795 0 0 1 .004 607.235V416.786a60.795 60.795 0 0 1 59.77-61.403 107.255 107.255 0 0 0 94.265-55.995 113.59 113.59 0 0 0 0-111.99 62.363 62.363 0 0 1 21.886-83.898l160.21-95.128a58.683 58.683 0 0 1 45.533-6.08 58.843 58.843 0 0 1 35.997 28.574 107.32 107.32 0 0 0 94.328 56.092 107.287 107.287 0 0 0 94.264-56.092 58.78 58.78 0 0 1 36.03-28.797 58.715 58.715 0 0 1 45.628 6.08L847.9 103.34a62.49 62.49 0 0 1 21.918 83.961 113.847 113.847 0 0 0 0 111.991 107.32 107.32 0 0 0 94.329 55.931 60.795 60.795 0 0 1 59.739 61.563V607.14a60.795 60.795 0 0 1-59.74 61.402 107.16 107.16 0 0 0-94.328 55.996 113.75 113.75 0 0 0 0 111.99 62.459 62.459 0 0 1-21.918 83.994l-159.986 95.096a58.78 58.78 0 0 1-45.5 6.047 59.1 59.1 0 0 1-36.03-28.445 107.16 107.16 0 0 0-94.328-56.06 107.223 107.223 0 0 0-94.264 55.964 59.451 59.451 0 0 1-51.9 30.717 58.811 58.811 0 0 1-29.661-8.095zm-110.935-503.67A287.176 287.176 0 0 0 511.96 798.706a287.016 287.016 0 0 0 286.632-286.6A287.208 287.208 0 0 0 511.96 225.441a287.176 287.176 0 0 0-286.664 286.664zm126.677 0a160.275 160.275 0 0 1 159.987-159.987 160.275 160.275 0 0 1 159.987 159.986A159.987 159.987 0 0 1 511.96 672.061a160.275 160.275 0 0 1-159.987-159.859z"/></svg>