<svg class="icon" width="200" height="100" viewBox="0 0 2048 1024" xmlns="http://www.w3.org/2000/svg"><path d="M1934.222 0A113.778 113.778 0 0 1 2048 113.778v796.444A113.778 113.778 0 0 1 1934.222 1024H113.778A113.778 113.778 0 0 1 0 910.222V113.778A113.778 113.778 0 0 1 113.778 0h1820.444zm-263.11 478.663H1315.1v61.44h236.374l-94.208 51.143v28.103H1277.44v62.18h179.769v61.44c0 25.941-10.809 35.555-46.365 38.57l-40.618 2.959 21.049 68.835 42.04-3.697c74.696-5.917 90.625-25.942 90.625-90.34v-77.767h182.727v-62.18h-179.77l144.214-83.626v-57.117zM637.894 170.667a637.326 637.326 0 0 1-58.71 171.804v-44.43h-65.308V183.182l-70.314-2.844v117.76h-76.06v71.68h76.117v139.207c-38.4 11.833-75.378 20.707-102.23 28.9l13.767 74.012c22.471-5.917 54.386-14.052 88.463-25.145v149.56c0 25.885-5.803 28.844-32.598 31.859l-36.295 2.901 21.789 71.85 31.175-3.697c65.251-8.135 86.243-16.327 86.243-79.246V564.565c20.31-6.656 38.457-12.572 55.182-19.228l-8.76-73.33c-13.768 5.177-29.696 10.354-46.422 15.53V369.836h50.062c-10.865 19.968-22.47 36.977-36.238 54.784l50.745 56.32 16.669-25.202v390.94h69.632v-45.17h331.32v-68.095h-148.65v-88.178H967.11v-67.357H847.474v-79.189H967.11v-65.934H847.474v-79.93h132.722v-66.673h-121.8c-9.443-33.28-21.788-78.507-29.752-99.954l-65.992 9.671c6.543 20.708 16.669 59.961 24.69 90.283h-109.51a1183.858 1183.858 0 0 0 30.435-102.172l-70.372-13.312zm828.757 5.916v53.305h-157.354v-50.347l-69.575-2.958v53.305h-156.615v64.455h156.615v39.936h42.78c-5.12 11.89-10.183 22.983-15.246 32.597h-176.925v64.399h139.208c-44.203 65.194-102.97 122.88-170.383 172.544l29.753 73.273a1150.976 1150.976 0 0 0 92.786-79.93v249.515h66.73V523.833c22.472-28.103 43.52-59.221 63.09-92.558h380.644v-64.342h-347.307l19.57-45.17-55.125-13.311V294.4h157.354v42.155h68.893V294.4h152.291v-64.569h-152.291v-50.347l-68.836-2.958zM777.16 645.291v88.12H664.747v-88.177h112.355zm0-146.603v79.19H664.747v-79.19h112.355zm0-145.863v79.929H664.747v-79.93h112.355z"/></svg>