<svg class="icon" width="200" height="200" viewBox="0 0 1024 1024" xmlns="http://www.w3.org/2000/svg"><path d="M527.394 598.562a172.032 172.032 0 0 1 129.98 58.402L529.51 781.21 399.223 654.985a172.134 172.134 0 0 1 128.171-56.423zm0-179.814c103.288 0 196.267 42.598 261.257 110.694l-65.605 63.727a266.103 266.103 0 0 0-195.652-84.514 266.172 266.172 0 0 0-193.877 82.67l-65.673-63.624c64.888-67.072 157.184-108.953 259.55-108.953zm0-179.815c154.453 0 293.752 62.635 392.397 163.09l-65.536 63.692c-81.852-84.275-197.973-136.874-326.86-136.874-128 0-243.474 51.95-325.223 135.27l-65.639-63.625c98.543-99.567 237.227-161.553 390.861-161.553z"/></svg>