<svg class="icon" width="200" height="200" viewBox="0 0 1024 1024" xmlns="http://www.w3.org/2000/svg"><path d="M771.456 192c26.125 0 49.229 16.538 57.011 40.832l17.562 55.667c13.427 43.52 20.134 68.48 20.134 74.88 0 49.613-27.136 95.373-70.822 119.437-18.74 9.805-41.088 15.002-64.602 15.002-40.179 0-77.286-16.973-104.499-47.796l-7.296-8.486-7.296 8.512a129.536 129.536 0 0 1-45.568 34.816 143.014 143.014 0 0 1-56.256 12.954c-39.86 0-77.606-17.408-103.514-47.77l-7.296-8.512-7.321 8.512c-24.653 29.926-63.027 47.77-102.669 47.77-22.08 0-41.331-4.11-58.803-12.57l-6.349-3.648c-43.366-24.128-70.272-69.376-70.272-118.208 0-7.654 12.595-51.123 37.786-130.406C199.13 208.614 222.259 192 248.448 192h523.008z"/><path d="M830.195 452.48v303.846c0 39.642-29.44 72.192-68.403 75.738l-4.915.294-494.016 1.882c-19.584 0-38.08-7.987-51.955-22.31a75.392 75.392 0 0 1-21.12-46.861l-.218-5.914V456.243h29.862v302.925c0 12.416 4.685 24.026 13.184 32.806 7.284 7.501 16.372 11.968 26.023 12.967l4.173.217 493.58-1.868c23.168-.64 41.767-18.893 43.764-42.688l.179-4.263V452.48h29.862z"/><path d="M771.456 192c26.125 0 49.229 16.538 57.011 40.832l17.562 55.667c13.427 43.52 20.134 68.48 20.134 74.88 0 49.613-27.136 95.373-70.822 119.437-18.74 9.805-41.088 15.002-64.602 15.002-40.179 0-77.286-16.973-104.499-47.796l-7.296-8.486-7.296 8.512a129.536 129.536 0 0 1-45.568 34.816 143.014 143.014 0 0 1-56.256 12.954c-39.86 0-77.606-17.408-103.514-47.77l-7.296-8.512-7.321 8.512c-24.653 29.926-63.027 47.77-102.669 47.77-22.08 0-41.331-4.11-58.803-12.57l-6.349-3.648c-43.366-24.128-70.272-69.376-70.272-118.208 0-7.654 12.595-51.123 37.786-130.406C199.13 208.614 222.259 192 248.448 192h523.008zm0 29.094H248.448c-13.094 0-24.666 8.308-28.544 20.48l-17.203 55.092c-11.687 38.067-18.522 62.118-19.187 66.24l-.052.486c0 36.262 18.88 70.029 49.946 89.792l10.112 6.016c13.184 6.387 27.904 9.523 45.504 9.523a104.435 104.435 0 0 0 75.75-32.768l4.007-4.57 7.296-8.511c11.149-12.992 31.027-13.85 43.34-2.586l2.51 2.598 7.347 8.564c20.25 23.73 49.6 37.273 79.846 37.286a112.5 112.5 0 0 0 44.16-10.15 100.954 100.954 0 0 0 31.206-22.388l4.25-4.812 7.296-8.512c11.136-12.98 31.014-13.85 43.328-2.599l2.509 2.599 7.014 8.179c21.594 24.46 50.47 37.67 81.856 37.67 18.688 0 36.186-4.057 49.895-11.225a107.507 107.507 0 0 0 55.654-94.106c0-4.07-13.26-50.048-36.326-121.894a29.696 29.696 0 0 0-24.986-20.212l-3.52-.192zm-131.2 301.71c12.493-4.007 23.36 8.332 18.496 19.404l-1.19 2.176-90.573 139.43a15.142 15.142 0 0 1-17.92 5.824l-2.394-1.139-93.9-55.078-63.284 82.265c-4.39 5.722-12.275 7.386-18.611 4.301l-2.291-1.382a14.31 14.31 0 0 1-4.403-18.125l1.408-2.24 71.398-92.774a15.18 15.18 0 0 1 17.1-4.928l2.548 1.19 92.902 54.502 60.48-93.094-33.69 10.829a15.104 15.104 0 0 1-17.791-6.848l-1.063-2.407c-2.304-6.784.807-14.028 7.04-17.33l2.47-1.025 73.28-23.552z"/></svg>