<?xml version="1.0" standalone="no"?><!DOCTYPE svg PUBLIC "-//W3C//DTD SVG 1.1//EN" "http://www.w3.org/Graphics/SVG/1.1/DTD/svg11.dtd"><svg t="1622622610720" class="icon" viewBox="0 0 1024 1024" version="1.1" xmlns="http://www.w3.org/2000/svg" p-id="8148" xmlns:xlink="http://www.w3.org/1999/xlink" width="32" height="32"><defs><style type="text/css"></style></defs><path d="M1024 227.612444a170.666667 170.666667 0 0 0-170.666667-170.666666 170.666667 170.666667 0 0 0-170.666666 170.666666 170.268444 170.268444 0 0 0 113.777777 160.142223v351.857777a113.777778 113.777778 0 0 1-113.777777 113.777778 113.777778 113.777778 0 0 1-113.777778-113.777778v-455.111111a227.896889 227.896889 0 0 0-227.555556-227.555555 227.555556 227.555556 0 0 0-227.555555 227.555555v351.800889a170.666667 170.666667 0 0 0-113.777778 160.199111 170.666667 170.666667 0 0 0 170.666667 170.666667 170.666667 170.666667 0 0 0 170.666666-170.666667 170.666667 170.666667 0 0 0-113.777777-160.199111V284.501333a113.777778 113.777778 0 0 1 113.777777-113.777777 113.777778 113.777778 0 0 1 113.777778 113.777777v455.111111a227.555556 227.555556 0 0 0 227.555556 227.555556 227.555556 227.555556 0 0 0 227.555555-227.555556V387.754667a170.666667 170.666667 0 0 0 113.777778-160.142223z m-853.333333 625.777778a56.888889 56.888889 0 0 1-56.888889-56.888889 56.888889 56.888889 0 0 1 56.888889-56.888889 56.888889 56.888889 0 0 1 56.888889 56.888889 56.888889 56.888889 0 0 1-56.888889 56.888889z m682.666666-568.888889a56.888889 56.888889 0 0 1-56.888889-56.888889 56.888889 56.888889 0 0 1 56.888889-56.888888 56.888889 56.888889 0 0 1 56.888889 56.888888 56.888889 56.888889 0 0 1-56.888889 56.888889z" p-id="8149"></path></svg>