<svg class="icon" width="200" height="200" viewBox="0 0 1024 1024" xmlns="http://www.w3.org/2000/svg"><path d="M870.4 179.2a76.8 76.8 0 0 1 76.8 76.8v153.6a25.6 25.6 0 0 1-25.6 25.6 76.8 76.8 0 0 0 0 153.6 25.6 25.6 0 0 1 25.6 25.6V768a76.8 76.8 0 0 1-76.8 76.8H153.6A76.8 76.8 0 0 1 76.8 768V614.4a25.6 25.6 0 0 1 25.6-25.6 76.8 76.8 0 0 0 0-153.6 25.6 25.6 0 0 1-25.6-25.6V256a76.8 76.8 0 0 1 76.8-76.8zm0 51.2H153.6A25.6 25.6 0 0 0 128 256v130.56l7.168 1.638a128.102 128.102 0 0 1 94.976 115.405L230.4 512c0 59.392-40.448 109.312-95.232 123.802L128 637.389V768a25.6 25.6 0 0 0 20.992 25.19l4.608.41h716.8A25.6 25.6 0 0 0 896 768V637.44l-7.168-1.638a128.102 128.102 0 0 1-94.976-115.405L793.6 512c0-59.392 40.448-109.312 95.232-123.802l7.168-1.69V256a25.6 25.6 0 0 0-20.992-25.19l-4.608-.41zm-248.013 128a22.682 22.682 0 0 1 22.323 22.938 22.528 22.528 0 0 1-6.912 15.872l-65.996 63.59h96.716a22.63 22.63 0 1 1 0 45.107H534.682v44.595h133.836a22.63 22.63 0 1 1 0 45.159H534.682v46.95a22.784 22.784 0 1 1-45.312 0v-46.95H355.43a22.63 22.63 0 1 1 0-45.159h133.837v-44.544H355.482a22.63 22.63 0 1 1 0-45.158h96.768l-66.048-63.693a22.528 22.528 0 0 1-.512-31.897c8.704-8.96 23.04-9.165 32.05-.512l76.033 73.318c6.297 6.144 8.192 14.95 5.837 22.784h24.78a22.426 22.426 0 0 1 5.837-22.784l76.032-73.318a22.682 22.682 0 0 1 16.128-6.298z"/></svg>