<svg class="icon" width="200" height="200" viewBox="0 0 1024 1024" xmlns="http://www.w3.org/2000/svg"><path d="M384 704a32 32 0 0 1 3.744 63.776L384 768H192v64h672a32 32 0 0 1 31.776 28.256L896 864v128a32 32 0 0 1-28.256 31.776L864 1024H640a32 32 0 0 1-3.744-63.776L640 960h192v-64H160a32 32 0 0 1-31.776-28.256L128 864V736a32 32 0 0 1 28.256-31.776L160 704h224zM512 0c159.04 0 288 126.08 288 281.6C800 437.12 630.816 704 512 704S224 437.12 224 281.6C224 126.08 352.96 0 512 0zm0 64c-124.032 0-224 97.76-224 217.6 0 45.728 18.624 103.488 45.952 159.2l8.448 16.64C393.088 553.984 467.36 640 512 640s118.912-86.016 169.6-182.56l8.448-16.64C717.376 385.088 736 327.328 736 281.6 736 161.76 636.032 64 512 64zm0 96a128 128 0 1 1 0 256 128 128 0 0 1 0-256zm0 64a64 64 0 1 0 0 128 64 64 0 0 0 0-128z"/></svg>