<svg class="icon" width="200" height="183.35" viewBox="0 0 1117 1024" xmlns="http://www.w3.org/2000/svg"><path d="M558.545 256a23.273 23.273 0 0 1 22.9 19.084l.373 4.189v447.534c0 151.413-125.16 273.92-279.273 273.92S23.273 878.22 23.273 726.807c0-109.288 65.862-206.662 165.795-250.321a23.273 23.273 0 0 1 18.618 42.635C124.463 555.473 69.818 636.323 69.818 726.807c0 125.487 104.076 227.375 232.727 227.375 125.254 0 227.235-96.629 232.495-217.507l.233-9.868V279.273A23.273 23.273 0 0 1 558.545 256zm256-232.727c153.926 0 279.273 117.946 279.273 264.145 0 110.22-71.96 207.453-178.502 246.458a23.273 23.273 0 1 1-15.965-43.752c88.623-32.443 147.922-112.547 147.922-202.706 0-119.854-103.89-217.6-232.728-217.6s-232.727 97.746-232.727 217.6a23.273 23.273 0 1 1-46.545 0c0-146.2 125.347-264.145 279.272-264.145z"/></svg>