<svg class="icon" width="200" height="200" viewBox="0 0 1024 1024" xmlns="http://www.w3.org/2000/svg"><path d="M587.75 309.12a111.104 111.104 0 0 0-57.42 16.128 106.06 106.06 0 0 0-52.506 91.7v184.831c0 21.735-11.904 41.319-31.488 53.248-11.213 6.298-23.808 9.78-37.12 9.78-37.811 0-67.917-28.698-67.917-63.719 0-10.496 2.79-20.992 7.68-30.106 7.706-14.694 22.426-25.19 40.627-30.796 2.1-.692 3.508-.692 4.89-.692 11.904 0 20.992-9.804 20.992-22.425 0-12.595-9.088-22.4-20.992-22.4-4.89 0-10.496.717-17.51 2.816a111.642 111.642 0 0 0-63.002 49.69 107.853 107.853 0 0 0-14.003 53.247c0 59.495 49.715 107.802 110.617 107.802 20.301 0 39.936-5.606 57.421-16.794a106.06 106.06 0 0 0 52.506-91.724V416.947c0-21.709 11.904-41.293 31.513-53.197 11.213-6.323 23.808-9.804 37.12-9.804 37.812 0 68.608 28.697 68.608 63.718 0 10.496-2.816 20.992-7.68 30.106-7.73 14.003-22.425 25.19-40.627 30.796-2.099.692-3.507.692-4.915.692-11.904 0-20.992 9.804-20.992 22.425 0 12.595 9.088 22.4 20.992 22.4 4.915 0 9.805-.691 17.51-2.816a111.642 111.642 0 0 0 63.028-49.69c9.088-16.127 14.003-34.303 14.003-53.222-.717-60.928-50.432-109.235-111.335-109.235zM442.42 777.805a25.6 25.6 0 0 1 19.353 25.216l-.205 2.918-.563 2.944-46.72 185.754a25.6 25.6 0 0 1-50.202-9.549l.563-2.944 46.695-185.754a25.6 25.6 0 0 1 31.078-18.585zm197.734 127.078l.972 2.816 20.224 71.015a25.6 25.6 0 0 1-48.281 16.819l-.973-2.816-20.224-70.989a25.6 25.6 0 0 1 48.282-16.845zm-51.226-179.968l.973 2.816 29.645 104.115a25.6 25.6 0 0 1-48.256 16.845l-.999-2.816-29.619-104.14a25.6 25.6 0 0 1 48.256-16.845zM249.984 596.838a25.6 25.6 0 0 1-12.16 29.39l-2.637 1.28-2.816.972-177.305 50.432a25.6 25.6 0 0 1-16.845-48.23l2.816-.999 177.305-50.432a25.6 25.6 0 0 1 31.642 17.587zm629.94-6.17l2.943.564 110.49 27.776a25.6 25.6 0 0 1-6.63 50.432l-2.919-.205-2.944-.563L870.4 640.87a25.6 25.6 0 0 1 9.549-50.201zM726.476 552.09l2.944.563 65.971 16.589a25.6 25.6 0 0 1-6.63 50.432l-2.919-.23-2.944-.564-65.971-16.563a25.6 25.6 0 0 1 9.549-50.227zM48.666 381.67l2.944.564 163.148 41.01a25.6 25.6 0 0 1-6.63 50.433l-2.918-.205-2.944-.563-163.15-41.011a25.6 25.6 0 0 1 9.55-50.228zm957.952-.179a25.6 25.6 0 0 1-12.135 29.363l-2.637 1.28-2.816.973-179.2 50.995a25.6 25.6 0 0 1-16.844-48.256l2.816-.972 179.2-50.996a25.6 25.6 0 0 1 31.641 17.613zM270.77 257.075l2.253 1.971 90.317 87.552a25.6 25.6 0 0 1-33.383 38.733l-2.252-1.971-90.317-87.552a25.6 25.6 0 0 1 33.382-38.707zM394.52 41.907l.999 2.816 54.477 191.411a25.6 25.6 0 0 1-48.256 16.845l-.999-2.816-54.476-191.411a25.6 25.6 0 0 1 48.256-16.845zm237.953-20.096a25.6 25.6 0 0 1 19.379 25.216l-.23 2.919-.564 2.944-27.033 107.57a25.6 25.6 0 0 1-50.228-9.548l.564-2.918L601.42 40.397a25.6 25.6 0 0 1 31.053-18.586zM100.429 171.93a62.362 62.362 0 1 0 124.723 0 62.362 62.362 0 1 0-124.723 0zm673.485 0a62.362 62.362 0 1 0 124.723 0 62.362 62.362 0 1 0-124.723 0zM100.429 845.414a62.362 62.362 0 1 0 124.723 0 62.362 62.362 0 1 0-124.723 0zm648.55-24.934a87.296 87.296 0 1 0 174.592 0 87.296 87.296 0 1 0-174.592 0z"/></svg>