<svg class="icon" width="200" height="200" viewBox="0 0 1024 1024" xmlns="http://www.w3.org/2000/svg"><path d="M513.664 1018.336a496.32 496.32 0 0 1-89.472-8.16 28.352 28.352 0 1 1 10.272-55.744 436.64 436.64 0 0 0 300.256-52.96l.224-.128A449.184 449.184 0 0 0 946.112 627.52a445.12 445.12 0 0 0 11.84-171.616 442.88 442.88 0 0 0-57.216-168.512 446.816 446.816 0 0 0-106.432-124.48 28.288 28.288 0 0 1-4.192-39.872 28.48 28.48 0 0 1 40-4.192c48.224 38.944 87.392 84.736 119.744 140.032a501.28 501.28 0 0 1 51.168 383.296 505.664 505.664 0 0 1-237.632 308.256 493.92 493.92 0 0 1-249.728 67.904zm-332.32-133.472a28.384 28.384 0 0 1-19.392-7.616c-37.344-34.752-66.176-71.808-88.128-113.28a501.312 501.312 0 0 1-50.848-382.72 505.696 505.696 0 0 1 237.76-308.32C344.48 24.544 440.96 1.504 539.456 6.304a28.384 28.384 0 1 1-2.752 56.608c-87.616-4.288-173.216 16.16-247.616 59.104a449.28 449.28 0 0 0-211.2 273.856 445.024 445.024 0 0 0 45.952 341.184c18.976 35.968 44.16 68.256 76.896 98.752a28.288 28.288 0 0 1-19.392 49.056zM513.664 1024a503.68 503.68 0 0 1-90.496-8.256 33.92 33.92 0 0 1-27.392-39.584c1.664-8.96 6.72-16.704 14.208-21.856 7.488-5.152 16.544-7.072 25.504-5.44a430.944 430.944 0 0 0 296.352-52.288l.32-.16A443.52 443.52 0 0 0 940.608 626.08c14.912-55.68 18.88-112.672 11.712-169.472a437.216 437.216 0 0 0-56.512-166.4A441.184 441.184 0 0 0 790.72 167.296a33.984 33.984 0 0 1-5.024-47.84 34.24 34.24 0 0 1 47.968-5.024c48.8 39.36 88.416 85.696 121.12 141.568a506.944 506.944 0 0 1 51.744 387.616 511.36 511.36 0 0 1-240.288 311.68A499.552 499.552 0 0 1 513.664 1024zm-84.384-64.384a22.624 22.624 0 0 0-22.304 18.592 22.592 22.592 0 0 0 18.24 26.4 488.736 488.736 0 0 0 170.272 1.12 488.256 488.256 0 0 0 165.024-60.192 500.096 500.096 0 0 0 248.224-496 493.6 493.6 0 0 0-63.776-187.84c-32-54.656-70.72-99.936-118.464-138.464a22.816 22.816 0 0 0-32 3.36c-7.872 9.728-6.336 24 3.392 31.872a452.352 452.352 0 0 1 107.776 126.08 450.688 450.688 0 0 1 45.952 344.48 454.88 454.88 0 0 1-213.824 277.28l-.16.032A442.432 442.432 0 0 1 433.44 960a23.136 23.136 0 0 0-4.16-.384zm-247.936-69.12c-8.64 0-16.928-3.2-23.264-9.12-37.76-35.168-66.976-72.64-89.248-114.656a506.944 506.944 0 0 1-51.36-386.944A511.36 511.36 0 0 1 257.856 68C342.688 19.072 440.16-4.224 539.808.64a34.08 34.08 0 0 1 32.384 35.616 34.112 34.112 0 0 1-35.712 32.32C449.984 64.352 365.44 84.544 292 126.912a443.744 443.744 0 0 0-133.504 117.056 441.472 441.472 0 0 0-75.072 153.376 439.392 439.392 0 0 0 45.44 337.056c18.688 35.36 43.456 67.2 75.776 97.216 6.656 6.208 10.496 14.624 10.784 23.68.32 9.088-2.912 17.76-9.152 24.384a34.24 34.24 0 0 1-24.928 10.816zM513.984 11.36a499.84 499.84 0 0 0-250.432 66.496 500.064 500.064 0 0 0-248.256 496A493.44 493.44 0 0 0 78.72 761.152l.128.192c21.664 40.896 50.112 77.44 86.976 111.744a22.72 22.72 0 0 0 32.16-1.088 22.496 22.496 0 0 0-1.12-32.032c-33.248-30.944-58.784-63.744-78.08-100.256a448.448 448.448 0 0 1-58.4-171.488A450.656 450.656 0 0 1 72.416 394.4a452.8 452.8 0 0 1 76.992-157.248 455.04 455.04 0 0 1 136.896-120.064C361.6 73.632 448.32 52.928 536.96 57.28a22.72 22.72 0 0 0 23.84-21.536 22.72 22.72 0 0 0-21.632-23.776c-8.416-.384-16.832-.608-25.216-.608zm-28.096 402.784L388 310.048c-13.056-13.024-10.88-34.688 2.176-47.712 13.056-13.024 34.816-10.848 47.872 2.176l97.888 104.096c13.056 12.992 10.88 34.688-2.176 47.68-15.232 10.88-34.816 10.88-47.872-2.144zm24.352 15.68c-10.464 0-20.608-3.936-28.352-11.68l-.128-.128-97.856-104c-14.72-14.816-13.728-39.744 2.24-55.68 14.816-14.784 39.904-13.792 55.904 2.176l.128.128 97.824 104c14.752 14.784 13.76 39.744-2.24 55.68l-.32.32-.384.288a46.304 46.304 0 0 1-26.816 8.896zm-20.256-19.616c10.56 10.432 26.56 11.136 40.064 1.76 11.072-11.36 11.968-29.28 1.856-39.36l-.128-.128-97.824-104c-11.392-11.328-29.568-12.288-39.744-2.144-11.392 11.36-12.384 29.536-2.176 39.68l.128.16 97.824 104zm.256-41.6l104.416-97.6c13.056-13.024 34.816-10.848 47.872 2.176 10.88 13.024 10.88 32.512-2.176 45.536l-104.416 97.6a34.24 34.24 0 0 1-47.872 0c-13.056-13.024-10.88-34.72 2.176-47.712zM512 431.68c-10.624 0-20.576-4.064-27.936-11.424a36 36 0 0 1-10.368-28.224 43.2 43.2 0 0 1 12.544-27.52l.128-.096 104.32-97.536c14.848-14.72 39.872-13.696 55.84 2.24l.352.384a39.2 39.2 0 0 1-2.528 53.152l-.128.128-104.32 97.536c-7.392 7.328-17.28 11.36-27.904 11.36zm-17.792-59.072a31.744 31.744 0 0 0-9.152 20.16 24.864 24.864 0 0 0 7.04 19.488A27.968 27.968 0 0 0 512 420.352c7.584 0 14.656-2.88 19.904-8.096l.128-.128 104.352-97.536a27.936 27.936 0 0 0 1.92-37.664c-11.392-11.168-29.472-12.096-39.616-1.984l-.128.128-104.352 97.536zM803.488 93.12l147.936 28.16c17.408 4.352 30.432 21.728 26.08 39.04v2.208c-4.352 17.344-21.76 30.336-39.136 26.016L790.4 160.384c-17.408-4.352-30.432-21.696-26.08-39.04v-2.176c4.352-17.344 21.76-30.368 39.136-26.016zm141.76 99.68a31.776 31.776 0 0 1-7.616-.96L789.6 163.648a40.544 40.544 0 0 1-23.168-16 33.088 33.088 0 0 1-5.504-26.752v-2.176l.096-.416c5.024-20 24.8-33.024 43.2-28.48l148.032 28.16c9.28 2.336 17.728 8.16 23.168 16.032 5.696 8.192 7.648 17.696 5.504 26.752v2.176l-.096.384c-2.336 9.28-8.192 17.696-16.064 23.136-6.048 4.16-12.8 6.304-19.52 6.336zm-154.08-35.776L939.2 185.248a26.56 26.56 0 0 0 21.696-4.384c6.4-4.448 11.2-11.264 13.216-18.784V160l.096-.416a26.368 26.368 0 0 0-4.384-21.632 33.632 33.632 0 0 0-19.136-13.248L802.656 96.48c-14.72-3.68-30.624 6.912-34.88 23.168v2.144l-.128.416a26.368 26.368 0 0 0 4.384 21.632c4.512 6.496 11.488 11.328 19.136 13.248zM61.696 808.8l147.936 28.192c17.408 4.352 30.464 21.696 26.112 39.04v2.176c-4.352 17.344-21.76 30.368-39.168 26.016l-147.904-28.16c-17.408-4.352-30.464-21.696-26.112-39.04v-2.176c2.176-17.376 21.76-30.4 39.136-26.048zm141.6 99.648a31.2 31.2 0 0 1-7.456-.896l-148-28.224c-19.968-4.96-33.024-24.48-28.704-42.72l.032-2.208c1.152-9.056 6.592-17.536 14.944-23.264 8.64-5.888 18.944-7.968 28.32-5.664l148.032 28.224c9.28 2.336 17.728 8.16 23.168 16 5.696 8.224 7.68 17.696 5.504 26.752v2.176l-.096.416c-4.352 17.312-19.744 29.44-35.744 29.44zm-153.92-35.744l148.032 28.224c14.72 3.68 30.624-6.912 34.912-23.136v-2.176l.096-.416a26.368 26.368 0 0 0-4.384-21.632 33.632 33.632 0 0 0-19.136-13.248L60.864 812.096a28.608 28.608 0 0 0-22.88 4.64 27.04 27.04 0 0 0-12.032 18.304v2.368l-.096.416c-3.712 14.784 7.072 30.72 23.552 34.88zm623.584-387.04H353.216a29.696 29.696 0 0 1-30.464-30.336V448.8c0-17.344 13.056-30.336 30.464-30.336H672.96c17.408 0 30.464 12.992 30.464 30.336v6.528a29.696 29.696 0 0 1-30.464 30.336zm0 5.696H353.216c-20.608 0-36.16-15.488-36.16-36.032V448.8c0-20.544 15.552-36.032 36.16-36.032H672.96c20.608 0 36.16 15.52 36.16 36.032v6.528c0 20.544-15.552 36.032-36.16 36.032zm-319.744-67.232a23.936 23.936 0 0 0-24.8 24.672v6.528c0 14.304 10.432 24.672 24.8 24.672H672.96a23.936 23.936 0 0 0 24.8-24.672V448.8a23.936 23.936 0 0 0-24.8-24.672H353.216zm128.32 295.776V479.168c0-17.344 13.056-30.368 30.464-30.368h6.528c17.408 0 30.464 13.024 30.464 30.4v242.88a29.696 29.696 0 0 1-30.464 30.336h-8.704a32.864 32.864 0 0 1-28.288-32.512zm36.992 38.176l-9.504-.032a38.72 38.72 0 0 1-33.152-38.144V479.168c0-20.544 15.52-36.032 36.128-36.032h6.528c20.608 0 36.16 15.488 36.16 36.032v242.88c0 20.544-15.552 36.032-36.16 36.032zm-8.288-11.328h8.288a23.936 23.936 0 0 0 24.768-24.704v-242.88a23.936 23.936 0 0 0-24.768-24.704H512a23.936 23.936 0 0 0-24.768 24.704v240.736c0 13.312 9.856 24.8 23.04 26.88zm162.72-109.28H353.216a29.696 29.696 0 0 1-30.464-30.336v-6.528c0-17.344 13.056-30.336 30.464-30.336H672.96c17.408 0 30.464 12.992 30.464 30.336v6.528a29.696 29.696 0 0 1-30.464 30.336zm0 5.696H353.216c-20.608 0-36.16-15.52-36.16-36.032v-6.528c0-20.544 15.552-36.032 36.16-36.032H672.96c20.608 0 36.16 15.488 36.16 36.032v6.528c0 20.512-15.552 36.032-36.16 36.032zm-319.744-67.232a23.936 23.936 0 0 0-24.8 24.672v6.528c0 14.304 10.432 24.672 24.8 24.672H672.96a23.936 23.936 0 0 0 24.8-24.672v-6.528a23.936 23.936 0 0 0-24.8-24.672H353.216z"/></svg>