<svg class="icon" width="200" height="200" viewBox="0 0 1024 1024" xmlns="http://www.w3.org/2000/svg"><path d="M645.018 256.154c80.64 0 146.278 61.747 146.278 138.29 0 57.703-37.683 108.622-93.491 129.025a12.211 12.211 0 0 1-8.371-22.912c46.438-16.973 77.49-58.906 77.49-106.112 0-62.746-54.425-113.92-121.906-113.92-67.482 0-121.908 51.174-121.908 113.92v230.041c0 79.284-65.536 143.412-146.278 143.412-80.717 0-146.278-64.128-146.278-143.412 0-57.216 34.483-108.21 86.835-131.072a12.186 12.186 0 0 1 9.728 22.324c-43.571 19.046-72.192 61.363-72.192 108.748 0 65.69 54.528 119.04 121.907 119.04 65.613 0 119.04-50.585 121.78-113.868l.127-5.172V390.17v4.275c0-76.544 65.664-138.291 146.279-138.291z"/></svg>