<svg class="icon" width="200" height="200" viewBox="0 0 1024 1024" xmlns="http://www.w3.org/2000/svg"><path d="M512 563.2a25.344 25.344 0 0 0 25.42-22.016l.18-2.893V306.51A25.267 25.267 0 0 0 512 281.6a25.344 25.344 0 0 0-25.42 22.016l-.18 2.893V538.29c0 13.747 11.469 24.909 25.6 24.909zm15.693 173.824l2.406-2.125 153.6-153.6a25.6 25.6 0 0 0-33.792-38.323l-2.406 2.125L512 680.576 376.5 545.101a25.6 25.6 0 0 0-33.793-2.125l-2.406 2.125a25.6 25.6 0 0 0-2.125 33.792l2.125 2.406 153.6 153.6a25.6 25.6 0 0 0 33.792 2.125z"/></svg>