<svg class="icon" width="200" height="200" viewBox="0 0 1024 1024" xmlns="http://www.w3.org/2000/svg"><path d="M160 896a32 32 0 0 1-32-32V672a32 32 0 0 1 32-32 32 32 0 0 1 32 32v160h704V672a32 32 0 0 1 32-32 32 32 0 0 1 32 32v192a32 32 0 0 1-32 32zm356.736-271.36a28.992 28.992 0 0 1-6.4-4.864L329.408 438.528a32 32 0 0 1 0-45.12 32 32 0 0 1 45.184 0l137.472 137.28V96.064a32 32 0 0 1 32-32 32 32 0 0 1 32 32v434.624l137.216-137.28a32 32 0 0 1 45.44 0 32 32 0 0 1 0 45.12L577.472 619.776a33.92 33.92 0 0 1-6.4 4.736 32 32 0 0 1-27.392 15.616 32 32 0 0 1-26.88-15.488z"/></svg>