<svg class="icon" width="200" height="200" viewBox="0 0 1024 1024" xmlns="http://www.w3.org/2000/svg"><path d="M487.834 792.064a35.584 35.584 0 0 0 50.432 0l160.256-160.358a35.584 35.584 0 0 0-50.176-50.279l-99.687 99.687V86.784a35.584 35.584 0 1 0-71.168 0v594.33l-99.686-99.687a35.43 35.43 0 0 0-50.176 0 35.635 35.635 0 0 0-.154 50.279l160.359 160.41zm449.382-148.02a35.584 35.584 0 0 0-35.584 35.636v200.96a21.197 21.197 0 0 1-21.197 21.197H143.36a21.197 21.197 0 0 1-21.094-21.197V679.526a35.584 35.584 0 0 0-71.117 0v229.325c0 35.277 28.62 63.847 63.897 63.898h793.805c35.328-.051 63.898-28.672 63.898-64v-229.12a35.584 35.584 0 0 0-35.584-35.533v-.051z"/></svg>