<svg class="icon" width="200" height="200" viewBox="0 0 1024 1024" xmlns="http://www.w3.org/2000/svg"><path d="M113.778 0h796.444Q1024 0 1024 113.778v796.444Q1024 1024 910.222 1024H113.778Q0 1024 0 910.222V113.778Q0 0 113.778 0z" fill-opacity=".2"/><path d="M910.222 0A113.778 113.778 0 0 1 1024 113.778v796.444A113.778 113.778 0 0 1 910.222 1024H113.778A113.778 113.778 0 0 1 0 910.222V113.778A113.778 113.778 0 0 1 113.778 0h796.444zm0 56.889H113.778a56.889 56.889 0 0 0-56.49 50.233l-.4 6.656v796.444a56.889 56.889 0 0 0 50.234 56.49l6.656.4h796.444a56.889 56.889 0 0 0 56.49-50.234l.4-6.656V113.778a56.889 56.889 0 0 0-50.234-56.49l-6.656-.4z"/><path d="M298.325 842.297l28.559-3.641c66.844-8.078 81.863-16.213 81.863-73.5v-159.46h126.862v-64.683H408.747V473.43H546.93v-63.943h-72.818l11.15-102.855h45.056v-63.203H409.486c-8.249-27.25-16.498-55.865-22.528-72.761l-68.323 8.817 17.977 63.944H214.244v63.146h49.55c3.754 29.412 7.51 71.339 10.524 102.97h-79.644v63.885h144.213v67.584H203.72v64.683h135.168v126.407c0 25.714-7.51 31.573-34.531 35.271l-29.298 3.641 23.324 71.282zm243.314 11.036c76.63-110.25 89.373-187.392 89.373-367.445h75.093v351.289H777.5V485.83h75.833v-69.006H631.012V305.892c69.12-8.079 148.707-27.193 200.533-47.048l-23.325-71.281c-63.772 23.495-160.654 43.349-247.011 51.427v231.538c0 108.658-5.006 177.038-25.714 236.658l-1.707 4.494-8.135-12.8a1009.038 1009.038 0 0 0-63.601-85.106l-50.29 35.271c20.252 25.714 57.799 76.402 72.078 105.814l49.493-41.87-2.503 6.826c-13.141 33.394-31.63 64.683-57.458 99.726l68.267 33.792zM407.211 409.486h-66.845a4782.478 4782.478 0 0 0-11.264-102.855h90.17c-2.276 31.573-6.828 71.282-12.061 102.855zM225.508 802.588c32.256-43.292 70.542-113.152 93.127-166.74l-60.075-23.553c-18.034 54.386-56.32 117.59-87.893 157.98l54.84 32.37z"/></svg>