<svg class="icon" width="200" height="200" viewBox="0 0 1024 1024" xmlns="http://www.w3.org/2000/svg"><path d="M512 1024a512 512 0 1 1 512-512 512.597 512.597 0 0 1-512 512zm-44.8-288v89.6h89.6V736zM512 288.085h4.267A83.115 83.115 0 0 1 595.2 371.03c0 10.582-3.413 19.03-24.832 51.2l-42.07 61.782A287.83 287.83 0 0 0 467.2 650.667h89.6v-8.534a252.928 252.928 0 0 1 55.723-122.88l30.122-43.349c6.23-9.387 11.264-17.067 15.616-24.576a155.307 155.307 0 0 0 26.283-79.787 172.8 172.8 0 0 0-345.6 0H428.8l.427-8.533A82.944 82.944 0 0 1 512 288.085z"/></svg>