<svg class="icon" width="200" height="200" viewBox="0 0 1024 1024" xmlns="http://www.w3.org/2000/svg"><path d="M169.984 960A109.44 109.44 0 0 1 63.872 846.016v-668.48a113.536 113.536 0 0 1 106.112-113.6h268.032a74.432 74.432 0 0 1 49.728 26.88l87.296 107.008h342.976a108.8 108.8 0 0 1 105.856 113.6V846.08a108.8 108.8 0 0 1-105.856 113.984zm-41.92-782.528v668.48a42.56 42.56 0 0 0 41.92 44.8H918.08a42.496 42.496 0 0 0 41.92-44.8V311.296a42.56 42.56 0 0 0-41.92-44.8H546.176l-19.2-23.36-85.568-105.024a52.928 52.928 0 0 0-6.4-5.504H170.112A47.232 47.232 0 0 0 128 177.6zm384 494.528v-96h-96a32 32 0 0 1-32-32 32 32 0 0 1 32-32h96v-96a32 32 0 0 1 32-32 32 32 0 0 1 32 32v96h96a32 32 0 0 1 32 32 32 32 0 0 1-32 32H576v96a32 32 0 0 1-32 32 32 32 0 0 1-32-32z"/></svg>