<svg class="icon" width="200" height="200" viewBox="0 0 1024 1024" xmlns="http://www.w3.org/2000/svg"><path d="M512 659.2c-230.4 0-422.4-153.6-480-377.6-6.4-32 12.8-70.4 44.8-76.8 32-6.4 70.4 12.8 76.8 44.8C198.4 416 345.6 531.2 512 531.2S825.6 416 870.4 249.6c6.4-32 44.8-57.6 76.8-44.8 32 6.4 57.6 44.8 44.8 76.8-51.2 224-249.6 377.6-480 377.6z"/><path d="M576 524.8v256c0 32-25.6 64-64 64-32 0-64-32-64-64v-256c44.8 6.4 83.2 6.4 128 0zm-204.8-19.2L192 678.4c-25.6 25.6-64 25.6-89.6 0s-25.6-64 0-89.6L256 435.2c38.4 25.6 76.8 51.2 115.2 70.4zm550.4 172.8c-12.8 12.8-32 19.2-44.8 19.2-19.2 0-32-6.4-44.8-19.2L659.2 505.6c38.4-19.2 76.8-38.4 108.8-70.4l153.6 153.6c25.6 25.6 25.6 64 0 89.6z"/></svg>