<svg class="icon" width="200" height="200" viewBox="0 0 1024 1024" xmlns="http://www.w3.org/2000/svg"><path d="M382.656 601.152c19.168 0 34.688 15.52 34.688 34.688v347.968c0 19.168-15.52 34.688-34.688 34.688H34.688A34.688 34.688 0 0 1 0 983.808V635.84c0-19.168 15.52-34.688 34.688-34.688h347.968zm527.168 0c19.168 0 34.688 15.52 34.688 34.688v347.968c0 19.168-15.52 34.688-34.688 34.688H564.16a34.688 34.688 0 0 1-34.688-34.688V635.84c0-19.168 15.52-34.688 34.688-34.688h345.664zm-561.856 69.376H69.376V949.12h278.592V670.528zm527.168 0H598.848V949.12h276.288V670.528zM761.536 11.04l245.92 245.888c13.536 13.568 13.536 35.52 0 49.056L761.568 551.872a34.688 34.688 0 0 1-49.056 0L466.624 305.984a34.688 34.688 0 0 1 0-49.056L712.512 11.04a34.688 34.688 0 0 1 49.056 0zm-378.88 61.792c19.168 0 34.688 15.52 34.688 34.688v347.968c0 19.168-15.52 34.688-34.688 34.688H34.688A34.688 34.688 0 0 1 0 455.488V107.52c0-19.168 15.52-34.688 34.688-34.688h347.968zM737.024 84.64l-196.8 196.8 196.8 196.864 196.832-196.832-196.8-196.832zm-389.056 57.568H69.376V420.8h278.592V142.208z"/></svg>