<svg class="icon" width="200" height="200" viewBox="0 0 1024 1024" xmlns="http://www.w3.org/2000/svg"><path d="M512 0c282.77 0 512 229.23 512 512s-229.23 512-512 512S0 794.77 0 512 229.23 0 512 0zm248.54 339.858a36.571 36.571 0 0 0-51.713 0L471.808 576.841l-56.905-56.905-3.438-3.035a36.571 36.571 0 0 0-48.274 54.747l82.761 82.761 3.438 3.072a36.571 36.571 0 0 0 48.274-3.072L760.539 391.57l3.036-3.437a36.571 36.571 0 0 0-3.036-48.275zM328.776 435.42a36.571 36.571 0 0 0-44.544 57.308l1.463 1.463 3.438 3.035a36.571 36.571 0 0 0 48.274-54.747l-1.463-1.463-3.438-3.036z"/></svg>