<svg class="icon" width="200" height="200" viewBox="0 0 1024 1024" xmlns="http://www.w3.org/2000/svg"><path d="M356.672 311.04a45.696 45.696 0 0 0-45.696 45.696v621.312c0 25.216 20.48 45.632 45.696 45.632h621.312a45.632 45.632 0 0 0 45.696-45.632V356.736a45.696 45.696 0 0 0-45.696-45.696zm45.696 91.392h529.92v529.92h-529.92v-529.92zM507.776 14.336a45.696 45.696 0 1 0-64.64 64.576l13.44 13.44H340.16A338.432 338.432 0 0 0 2.176 430.4c0 98.56 43.008 192.256 117.824 256.448a45.696 45.696 0 1 0 59.52-69.312A246.784 246.784 0 0 1 93.568 430.4a247.04 247.04 0 0 1 246.656-246.656h116.224l-13.312 13.312a45.696 45.696 0 0 0 64.64 64.64l91.2-91.328a45.76 45.76 0 0 0 0-64.64z"/></svg>