<svg class="icon" width="200" height="200" viewBox="0 0 1024 1024" xmlns="http://www.w3.org/2000/svg"><path d="M537.6 76.8a256 256 0 0 1 36.864 509.389A25.088 25.088 0 0 1 563.2 588.8c-212.787 0-384 149.811-384 332.8a25.6 25.6 0 1 1-51.2 0c0-167.834 121.549-309.76 290.458-362.24A256 256 0 0 1 537.6 76.8zM896 870.4a25.6 25.6 0 1 1 0 51.2H691.2a25.6 25.6 0 1 1 0-51.2H896zm0-102.4a25.6 25.6 0 1 1 0 51.2H691.2a25.6 25.6 0 1 1 0-51.2H896zm0-102.4a25.6 25.6 0 1 1 0 51.2H691.2a25.6 25.6 0 1 1 0-51.2H896zM537.6 128a204.8 204.8 0 1 0 0 409.6 204.8 204.8 0 0 0 0-409.6z"/></svg>