<svg class="icon" width="200" height="200" viewBox="0 0 1024 1024" xmlns="http://www.w3.org/2000/svg"><path d="M512 102.4a332.8 332.8 0 0 1 331.827 307.2h.973a76.8 76.8 0 0 1 76.8 76.8V640a76.8 76.8 0 0 1-76.8 76.8h-11.213c-27.136 59.443-101.376 106.24-199.629 128l5.99-1.434.052 1.434a76.8 76.8 0 0 1-69.427 76.442l-7.373.358H460.8a76.8 76.8 0 0 1 0-153.6h102.4c24.422 0 46.182 11.418 60.262 29.184l-.563-2.355 12.288-2.919c65.69-16.486 114.995-44.953 140.032-77.363A76.749 76.749 0 0 1 716.8 640V486.4a76.8 76.8 0 0 1 76.8-76.8l-1.126.051a281.6 281.6 0 0 0-560.948 0A76.749 76.749 0 0 1 307.2 486.4V640a76.8 76.8 0 0 1-76.8 76.8h-51.2a76.8 76.8 0 0 1-76.8-76.8V486.4a76.8 76.8 0 0 1 76.8-76.8h.973A332.8 332.8 0 0 1 512 102.4zm51.2 716.8H460.8a25.6 25.6 0 1 0 0 51.2h102.4a25.6 25.6 0 1 0 0-51.2zM230.4 460.8h-51.2a25.6 25.6 0 0 0-25.6 25.6V640a25.6 25.6 0 0 0 25.6 25.6h51.2A25.6 25.6 0 0 0 256 640V486.4a25.6 25.6 0 0 0-25.6-25.6zm614.4 0h-51.2a25.6 25.6 0 0 0-25.6 25.6V640a25.6 25.6 0 0 0 25.6 25.6h51.2a25.6 25.6 0 0 0 25.6-25.6V486.4a25.6 25.6 0 0 0-25.6-25.6z"/></svg>