<svg class="icon" width="200" height="200" viewBox="0 0 1024 1024" xmlns="http://www.w3.org/2000/svg"><path d="M521.425.326c223.302 0 404.318 181.015 404.318 404.294 0 306.13-326.33 617.495-404.318 617.495-77.986 0-404.317-311.366-404.317-617.495C117.108 181.34 298.124.326 521.425.326zm0 69.818c-184.738 0-334.498 149.737-334.498 334.476 0 119.575 60.02 255.86 157.975 380.392 40.355 51.293 84.596 96.885 124.625 129.63 17.618 14.382 33.49 25.483 46.08 32.465l2.863 1.56 2.955 1.489 2.956-1.49 2.886-1.56c12.567-6.98 28.44-18.082 46.057-32.488 40.029-32.721 84.27-78.313 124.625-129.629 97.978-124.509 157.975-260.794 157.975-380.37 0-184.738-149.76-334.475-334.499-334.475zM512 244.364a151.273 151.273 0 1 1 0 302.545 151.273 151.273 0 0 1 0-302.545zm0 69.818a81.455 81.455 0 1 0 0 162.909 81.455 81.455 0 0 0 0-162.91z"/></svg>