<svg class="icon" width="200" height="200" viewBox="0 0 1024 1024" xmlns="http://www.w3.org/2000/svg"><path d="M853.333 170.667a113.778 113.778 0 0 1 113.778 113.777v455.112a113.778 113.778 0 0 1-113.778 113.777H170.667A113.778 113.778 0 0 1 56.889 739.556V284.444a113.778 113.778 0 0 1 113.778-113.777h682.666zm-568.889 199.11a142.222 142.222 0 1 0 0 284.445 142.222 142.222 0 0 0 0-284.444zM696.89 568.89H554.667a42.667 42.667 0 1 0 0 85.333h142.222a42.667 42.667 0 1 0 0-85.333zM284.444 426.667a85.333 85.333 0 1 1 0 170.666 85.333 85.333 0 0 1 0-170.666zm526.223-56.89h-256a42.667 42.667 0 0 0 0 85.334h256a42.667 42.667 0 1 0 0-85.333z"/></svg>