<svg class="icon" width="200" height="200" viewBox="0 0 1024 1024" xmlns="http://www.w3.org/2000/svg"><path d="M762.573 268.928l1.472 468.48-516.685-.512-7.718-461.978 522.93-6.003zm-81.984 119.22l-357.517-7.092-.346 241.958 357.53-.524.346-234.343z"/><path d="M712.973 137.6c38.49 0 69.696 31.283 69.696 69.875v602.202c0 38.579-31.207 69.862-69.696 69.862H294.95c-38.49 0-69.683-31.283-69.683-69.862V207.475c0-38.592 31.194-69.875 69.683-69.875zm47.155 603.546h-512.32v67.584a46.771 46.771 0 0 0 13.734 33.203 46.554 46.554 0 0 0 33.178 13.606h418.496a46.554 46.554 0 0 0 33.19-13.606 46.758 46.758 0 0 0 13.722-33.203v-67.584zm-256.166 15.18a41.958 41.958 0 0 1 41.856 41.984 41.907 41.907 0 0 1-41.856 41.959 41.907 41.907 0 0 1-41.856-41.971 41.907 41.907 0 0 1 41.856-41.972zm0 22.605c-10.676 0-19.328 8.666-19.328 19.367 0 10.7 8.652 19.379 19.328 19.379a19.366 19.366 0 0 0 0-38.746zm256.166-504.345h-512.32v443.968h512.333V274.586zm-46.912-114.394H294.707a46.54 46.54 0 0 0-33.177 13.606 46.758 46.758 0 0 0-13.735 33.204v44.979h512.333V207a46.758 46.758 0 0 0-13.722-33.203 46.54 46.54 0 0 0-33.19-13.606zm-159.54 31.066a11.277 11.277 0 0 1 0 22.604H454.26a11.277 11.277 0 0 1 0-22.604z"/><path d="M688.896 366.771v266.701h-377.46v-266.7h377.46zm-21.709 22.016H333.146v222.669h334.041V388.774z"/><path d="M437.427 445.67c11.981 0 21.696 9.856 21.696 22.016 0 12.148-9.715 22.004-21.696 22.004s-21.696-9.856-21.696-22.016 9.715-22.016 21.696-22.016zm-.294 54.528c23.974 0 43.392 12.314 43.392 27.52 0 15.194-19.418 27.508-43.392 27.508-23.962 0-43.392-12.314-43.392-27.52 0-15.194 19.43-27.52 43.392-27.52zm0 22.016c-7.731 0-14.682 1.856-19.175 4.71l-.704.462-.448.32.448.32.704.473c4.48 2.855 11.444 4.71 19.175 4.71 7.744 0 14.694-1.855 19.2-4.71l.691-.473.435-.32-.435-.32-.704-.461c-4.48-2.855-11.443-4.71-19.187-4.71zm82.355-60.39l82.048-.384-.102 21.824-82.048.384zm-.192 43.66l49.216-.23-.102 21.824-49.23.244z"/></svg>