<svg class="icon" width="200" height="200" viewBox="0 0 1024 1024" xmlns="http://www.w3.org/2000/svg"><path d="M726.471 374.329c31.061 0 56.661 23.154 59.904 53.02l.341 6.486V850.66c0 30.72-23.495 55.978-53.646 59.164l-6.599.398h-609.28c-31.118 0-56.661-23.21-59.96-53.077l-.342-6.485V433.835c0-30.72 23.495-55.979 53.703-59.165l6.542-.398h609.337zM271.19 493.34c-83.228 0-150.698 66.617-150.698 148.879 0 82.204 67.47 148.821 150.698 148.821 83.172 0 150.642-66.617 150.642-148.821 0-82.262-67.47-148.879-150.642-148.879zm0 49.608c55.467 0 100.41 44.43 100.41 99.27 0 54.785-44.943 99.215-100.41 99.215a99.84 99.84 0 0 1-100.522-99.157c0-54.841 44.942-99.272 100.465-99.272zm302.934 129.024H510.52a28.444 28.444 0 0 0-27.99 23.324l-.455 5.12v2.674a28.444 28.444 0 0 0 23.325 27.99l5.12.454h63.602a28.444 28.444 0 0 0 27.989-23.324l.455-5.12v-2.674a28.444 28.444 0 0 0-28.444-28.444zm280.405-520.534l111.388 497.664a48.868 48.868 0 0 1-37.717 58.254l-67.186 14.848V350.151a49.323 49.323 0 0 0-50.119-48.526h-705.65c-8.817 0-7.054-8.59 4.153-10.866l684.943-175.9c27.136-5.69 53.703 10.297 60.188 36.58zM694.67 552.846H510.52a28.444 28.444 0 0 0-27.988 23.325l-.456 5.12v2.673a28.444 28.444 0 0 0 23.325 27.99l5.12.455h184.15a28.444 28.444 0 0 0 27.989-23.325l.455-5.12v-2.673a28.444 28.444 0 0 0-28.445-28.445z"/></svg>