<svg class="icon" width="200" height="200" viewBox="0 0 1024 1024" xmlns="http://www.w3.org/2000/svg"><path d="M273.23 967.111A280.69 280.69 0 0 1 .162 676.978V204.8A141.369 141.369 0 0 1 136.696 56.889h614.4a280.86 280.86 0 0 1 273.067 290.133V819.2a144.782 144.782 0 0 1-136.534 147.911zM113.94 204.8v472.178a170.667 170.667 0 0 0 159.29 176.355h614.4c11.377 0 22.755-11.377 22.755-34.133V347.022a170.667 170.667 0 0 0-159.289-176.355h-614.4c-11.378 0-22.756 11.377-22.756 34.133zm512 477.867a53.646 53.646 0 0 1-56.888-56.89 53.817 53.817 0 0 1 56.888-56.888h113.778a53.817 53.817 0 0 1 56.89 56.889 53.646 53.646 0 0 1-56.89 56.889zM170.83 512a167.765 167.765 0 0 1 170.666-170.667A167.765 167.765 0 0 1 512.163 512a167.595 167.595 0 0 1-170.667 170.667A167.595 167.595 0 0 1 170.829 512zm113.777 0a53.646 53.646 0 0 0 56.889 56.889A53.646 53.646 0 0 0 398.385 512a53.817 53.817 0 0 0-56.889-56.889A53.817 53.817 0 0 0 284.607 512zm341.333-56.889a53.646 53.646 0 0 1-56.888-56.889 53.817 53.817 0 0 1 56.888-56.889h170.667a53.817 53.817 0 0 1 56.889 56.89 53.646 53.646 0 0 1-56.889 56.888z"/></svg>