<svg class="icon" width="200" height="200" viewBox="0 0 1024 1024" xmlns="http://www.w3.org/2000/svg"><path d="M864 292.224H160a96 96 0 0 0-96 96V816a96 96 0 0 0 96 96h704a96 96 0 0 0 96-96V388.224a96 96 0 0 0-96-96zm-704 64h704a32 32 0 0 1 32 32V816a32 32 0 0 1-32 32H160a32 32 0 0 1-32-32V388.224a32 32 0 0 1 32-32zM128 512h768a32 32 0 0 1 0 64H128a32 32 0 0 1 0-64zm480 32a32 32 0 0 1 32 32 128 128 0 1 1-256 0 32 32 0 0 1 64 0 64 64 0 0 0 127.84 4.8l.16-4.8a32 32 0 0 1 32-32zm29.12-432H386.88a128 128 0 0 0-128 128v111.168h506.24V240a128 128 0 0 0-128-128zm0 64a64 64 0 0 1 64 64v47.168H322.88V240a64 64 0 0 1 64-64h250.24z"/></svg>