<svg class="icon" width="200" height="200" viewBox="0 0 1024 1024" xmlns="http://www.w3.org/2000/svg"><path d="M989.696 509.504a34.368 34.368 0 0 0-34.304 34.304 411.776 411.776 0 0 1-411.456 411.456A411.776 411.776 0 0 1 132.48 543.808 411.776 411.776 0 0 1 544 132.288a409.6 409.6 0 0 1 308.544 139.904H712.64a34.368 34.368 0 0 0-34.304 34.304A34.368 34.368 0 0 0 712.64 340.8h208.32a33.984 33.984 0 0 0 34.304-34.304V98.112a33.984 33.984 0 0 0-34.304-34.304 34.368 34.368 0 0 0-34.304 34.304v109.696a479.616 479.616 0 0 0-342.848-144 480.512 480.512 0 0 0-480 480 480.512 480.512 0 0 0 480 480 480.512 480.512 0 0 0 480-480 33.984 33.984 0 0 0-34.112-34.304z"/></svg>