<svg class="icon" width="200" height="200" viewBox="0 0 1024 1024" xmlns="http://www.w3.org/2000/svg"><path d="M533.555 102.502a376.986 376.986 0 0 1 369.92 304.384 82.534 82.534 0 0 1 61.235 79.668v61.235a82.432 82.432 0 0 1-82.432 82.483c-1.075 0-2.15 0-3.072-.102A377.856 377.856 0 0 1 626.79 844.8a70.656 70.656 0 0 1-69.53 58.778h-47.154a70.758 70.758 0 0 1 0-141.364h47.104c26.419 0 49.51 14.49 61.644 36.045A330.598 330.598 0 0 0 834.56 614.963a82.33 82.33 0 0 1-34.662-67.174v-61.235c0-36.352 23.45-67.072 55.961-78.132a330.291 330.291 0 0 0-322.304-258.764 330.138 330.138 0 0 0-322.201 258.816 82.534 82.534 0 0 1 55.961 78.13v61.185a82.432 82.432 0 1 1-164.915.051v-61.338c0-38.195 25.907-70.348 61.133-79.667a377.19 377.19 0 0 1 370.022-304.384zm23.552 706.816h-47.104a23.654 23.654 0 0 0-23.552 23.552c0 12.954 10.599 23.552 23.552 23.552h47.104c12.954 0 23.552-10.598 23.552-23.552a23.654 23.654 0 0 0-23.552-23.552zm115.456-207.36c12.954 0 23.552 10.65 23.552 23.604a23.04 23.04 0 0 1-5.017 14.49l.204.204a225.28 225.28 0 0 1-159.027 65.28 225.382 225.382 0 0 1-158.515-64.82l.358-.306a23.245 23.245 0 0 1-4.505-13.824 23.757 23.757 0 0 1 37.53-18.944l.102-.103.819.82a178.38 178.38 0 0 0 124.314 50.175c47.308 0 90.316-18.432 122.368-48.281a19.558 19.558 0 0 1 3.123-3.072l.153-.103a23.296 23.296 0 0 1 14.49-5.12zm-487.68-150.681a35.328 35.328 0 0 0-35.328 35.328v61.235a35.328 35.328 0 1 0 70.656 0v-61.286a35.328 35.328 0 0 0-35.328-35.328zm697.344 0a35.328 35.328 0 0 0-35.328 35.328v61.235a35.328 35.328 0 1 0 70.707 0v-61.286a35.328 35.328 0 0 0-35.328-35.328z"/></svg>