<svg class="icon" width="200" height="114.29" viewBox="0 0 1792 1024" xmlns="http://www.w3.org/2000/svg"><path fill="#fff" d="M128 256h1536v576H128z"/><path d="M1536 1024H0V256A256 256 0 0 1 256 0h1280a256 256 0 0 1 256 256v512a256 256 0 0 1-256 256zM830.272 320a177.472 177.472 0 0 0-137.408 61.952 227.84 227.84 0 0 0-55.296 157.056 231.808 231.808 0 0 0 50.368 158.272 178.56 178.56 0 0 0 140.416 56.96 248.384 248.384 0 0 0 145.152-38.4v-65.6a206.528 206.528 0 0 1-128 44.8 127.296 127.296 0 0 1-96.384-36.16 150.144 150.144 0 0 1-36.416-102.4h290.24v-37.12a216.256 216.256 0 0 0-45.76-146.432A160.576 160.576 0 0 0 830.08 320zm-454.4 60.736c61.952 0 93.376 43.008 93.376 128v235.84h73.088V491.072a198.4 198.4 0 0 0-35.584-127.296 126.784 126.784 0 0 0-103.936-43.712 150.272 150.272 0 0 0-136.128 78.4h-1.472v-68.608H192v414.72h73.472v-236.8a134.4 134.4 0 0 1 31.168-91.136 100.736 100.736 0 0 1 79.68-35.84zm965.248 33.024h1.472a199.424 199.424 0 0 0 6.4 39.744l82.496 291.008h76.8l123.776-414.72h-71.232l-81.024 307.904a176.704 176.704 0 0 0-6.72 38.4h-3.328a215.616 215.616 0 0 0-6.016-38.4l-86.976-307.904h-67.84l-89.6 306.368a181.76 181.76 0 0 0-7.168 38.976h-3.008a218.624 218.624 0 0 0-5.568-37.888l-83.2-307.2h-76.8l124.48 414.72h74.24l89.6-291.712a172.8 172.8 0 0 0 8.64-38.912zm-411.776 83.2H712.576a152.448 152.448 0 0 1 40.32-85.12 103.424 103.424 0 0 1 75.904-32.576 92.352 92.352 0 0 1 73.92 30.784 131.84 131.84 0 0 1 26.624 86.912z"/></svg>