<svg class="icon" width="200" height="114.29" viewBox="0 0 1792 1024" xmlns="http://www.w3.org/2000/svg"><path d="M192 128h1472v832H192z"/><path d="M1536 1024H0V256A256 256 0 0 1 256 0h1280a256 256 0 0 1 256 256v512a256 256 0 0 1-256 256zM992 380.928a241.728 241.728 0 0 0-181.76 69.312 262.4 262.4 0 0 0-66.944 189.248 251.52 251.52 0 0 0 64.768 179.84 228.48 228.48 0 0 0 173.248 68.224 232.448 232.448 0 0 0 177.152-70.4 260.8 260.8 0 0 0 66.048-185.088 261.632 261.632 0 0 0-61.888-184.384A222.656 222.656 0 0 0 992 380.928zm297.024 11.392v70.848h83.2v279.616c0 95.488 43.712 143.936 129.92 143.936a159.168 159.168 0 0 0 75.712-15.296V800a81.6 81.6 0 0 1-50.304 16.192 64.64 64.64 0 0 1-53.824-20.544 112.128 112.128 0 0 1-16.192-68.224V463.168H1577.6V392.32h-120.256V248.832l-85.376 27.136V392.32zm-850.24 59.52c72 0 108.8 49.152 108.8 146.112v278.272h85.056V578.24c0-130.944-54.912-197.312-163.2-197.312a176 176 0 0 0-157.952 91.008h-1.728V160H224v716.224h85.76V601.6a159.04 159.04 0 0 1 36.736-107.392 117.12 117.12 0 0 1 92.288-42.368zm547.776 364.8a143.936 143.936 0 0 1-113.536-48.128 193.536 193.536 0 0 1-42.24-131.648 204.8 204.8 0 0 1 41.792-135.616A142.08 142.08 0 0 1 986.56 451.84a136.512 136.512 0 0 1 112 47.232 210.752 210.752 0 0 1 38.4 135.616 208.896 208.896 0 0 1-38.4 134.976 136.832 136.832 0 0 1-112 47.04z"/></svg>