<svg class="icon" width="200" height="200" viewBox="0 0 1024 1024" xmlns="http://www.w3.org/2000/svg"><path d="M667.328 311.04c25.216 0 45.696 20.48 45.696 45.696v621.312c0 25.216-20.48 45.632-45.696 45.632H46.016A45.632 45.632 0 0 1 .32 978.048V356.736c0-25.216 20.48-45.696 45.696-45.696zm-45.696 91.392H91.712v529.92h529.92v-529.92zM516.224 14.336a45.696 45.696 0 1 1 64.64 64.576l-13.44 13.44h116.352A338.432 338.432 0 0 1 1021.824 430.4c0 98.56-43.008 192.256-117.824 256.448a45.696 45.696 0 1 1-59.52-69.312A246.784 246.784 0 0 0 930.432 430.4a247.04 247.04 0 0 0-246.656-246.656H567.552l13.312 13.312a45.696 45.696 0 0 1-64.64 64.64l-91.2-91.328a45.76 45.76 0 0 1 0-64.64z"/></svg>