<?xml version="1.0" standalone="no"?><!DOCTYPE svg PUBLIC "-//W3C//DTD SVG 1.1//EN" "http://www.w3.org/Graphics/SVG/1.1/DTD/svg11.dtd"><svg t="1558322779405" class="icon" style="" viewBox="0 0 1024 1024" version="1.1" xmlns="http://www.w3.org/2000/svg" p-id="1779" xmlns:xlink="http://www.w3.org/1999/xlink" width="200" height="200"><defs><style type="text/css"></style></defs><path d="M773.12 640H250.88A250.88 250.88 0 0 0 0 890.88v35.2A98.56 98.56 0 0 0 98.56 1024h826.88A98.56 98.56 0 0 0 1024 925.44v-35.2A250.88 250.88 0 0 0 773.12 640zM960 925.44a34.56 34.56 0 0 1-34.56 34.56H98.56a34.56 34.56 0 0 1-34.56-34.56v-35.2A186.88 186.88 0 0 1 250.88 704h522.24A186.88 186.88 0 0 1 960 890.88zM512 576a288 288 0 1 0-288-288A288.64 288.64 0 0 0 512 576z m0-512a224 224 0 1 1-224 224A224 224 0 0 1 512 64z" fill="#B2B2B2" p-id="1780"></path></svg>