<?xml version="1.0" encoding="utf-8"?>
<!-- Generator: Adobe Illustrator 21.0.0, SVG Export Plug-In . SVG Version: 6.00 Build 0)  -->
<svg version="1.1" id="图层_1" xmlns="http://www.w3.org/2000/svg" xmlns:xlink="http://www.w3.org/1999/xlink" x="0px" y="0px"
	 viewBox="0 0 164 35" style="enable-background:new 0 0 164 35;" xml:space="preserve">
<style type="text/css">
	.st0{fill:#2BCC6F;}
	.st1{fill:#FF7733;}
	.st2{fill:#2882FF;}
	.st3{fill:#414247;}
</style>
<g>
	<path class="st0" d="M14.7,5.5C14.6,5.6,3.2,12,0,26.5c0,0,4.2,2.7,6.7,7C3.9,16.5,14.7,5.5,14.7,5.5"/>
	<path class="st1" d="M15.3,11c0,0,2.3-4.4,7.5-7.7c3.8-2.4,7.7-3.2,11.1-3.3c-0.3,1.1-0.6,2-1.4,5.6C32.5,5.6,23.5,5.6,15.3,11"/>
	<path class="st2" d="M11.2,23c-0.4,3.1-0.6,7.5,0.4,12c0.2,0,9.6-3.2,22.3-1.6c-0.1-0.5-3.6-10.8-2.1-23.4c0,0-7.3,0.1-14.9,4.5
		C13.8,16.3,11.7,19.4,11.2,23"/>
</g>
<path class="st3" d="M136.7,8.8h-7.1l0-2.7h0h-2.3h0v2.7h-8.4v0.1h0c0,0.1-0.2,5.4-0.4,9.9c-0.2,3.7-1.6,10.4-1.6,10.4h2.4
	c0.1-0.3,1.4-6.4,1.6-10.3c0-0.6,0-1.1,0.1-1.7h14.7h1.5h0.9V9.9C137.9,9.3,137.4,8.8,136.7,8.8z M120.9,15.2
	c0.1-1.7,0.2-3.4,0.2-4.6h14.4v4.6H120.9z"/>
<g>
	<path class="st3" d="M113.3,8h-9.4V6h-2.4v2h-7.7h0H93h-1.5h0v4.2h2.4l0-2.3h18.2v2.3h2.4v-3C114.4,8.5,113.9,8,113.3,8z"/>
	<path class="st3" d="M110.9,14.2c0.8-0.7,0.2-2-0.8-2h0h-0.2H98.1c0.4-0.8,0.6-1.5,0.7-1.5h-2.6c-0.2,0.6-0.8,1.8-1.1,2.5
		c-0.9,1.7-2.6,3.7-2.6,3.7l2.9,0c0.1-0.1,0.6-0.6,1.2-1.5c0.9,0.6,2.2,1.4,3.9,2.3C98,18.3,95,19,91.4,19.4v1.9
		c4.9-0.5,8.7-1.5,11.6-2.5c3,1.2,6.8,2.3,11.4,2.8v-1.9c-3.3-0.3-6.3-1.1-8.8-1.9C108.2,16.5,109.8,15.2,110.9,14.2z M98.1,14.1
		h9.6c-1.1,0.8-2.6,1.7-4.8,2.6C100.8,15.7,99.2,14.8,98.1,14.1z"/>
	<path class="st3" d="M110.5,21.3H94.2v0.5v1.4v5.9h2.4v0h15.1l0-6.6C111.7,21.8,111.2,21.3,110.5,21.3z M96.6,23.2h12.7v4H96.6
		L96.6,23.2z"/>
</g>
<g>
	<path class="st3" d="M149.2,22h4.1v3.8h2.4l0-3.8h4.1v2H157l0.5,1.9h2.2h2.4v-1.9V12.4c0-0.6-0.5-1.2-1.2-1.2h-1.9l2.4-3.3
		c0.5-0.8,0-1.8-0.9-1.9v0h-0.1h-0.6h-13v1.9h11.6l-2.3,3.3h-0.5h0h-2.3h0h0l-1.8-2.3h-2.6h0l1.8,2.3h-1.5h0h-2.3h0h0v14.6h2.4
		L149.2,22z M149.2,20.1l0-2.7h4.1v2.7H149.2z M155.7,20.1l0-2.7h4.1v2.7H155.7z M159.8,15.5h-4.1l0-2.4h4.1V15.5z M153.3,13.1v2.4
		h-4.1l0-2.4H153.3z"/>
	<path class="st3" d="M147.7,27.2c-0.2,0-0.4-0.1-0.5-0.2l-2.7-3.3l-0.1-10.4h0v-0.7c0-0.6-0.5-1.2-1.2-1.2h-3v1.9h1.8v2.3h0v8.1
		c0,1.8-1.3,5.4-1.3,5.4h2.4c0,0,0.5-1.4,0.9-2.9l1.7,2c0.5,0.6,1.2,0.9,1.9,0.9h15.7v-1.9H147.7z"/>
	<polygon class="st3" points="144.3,10.3 143.1,6 140.6,6 141.8,10.3 	"/>
</g>
<g>
	<polygon class="st3" points="48.5,11.6 48.5,11.6 53.3,21.6 55.9,21.6 51.1,11.6 	"/>
	<path class="st3" d="M63.5,27.2h-1.8V7.9h0V7.9V7.2c0-0.7-0.5-1.2-1.2-1.2H44.8h-2.3h0h0v17.7c0,1.8-1.3,5.4-1.3,5.4h2.4
		c0,0,1.3-3.5,1.3-5.3L44.8,7.9h14.5v19.3h0v1.9h0v0h2.4v0H63L63.5,27.2z"/>
</g>
<g>
	<path class="st3" d="M76,16.1h-2.4c0,5.3,0.8,10.2,1.1,11.6h2.5C75.9,21.3,76,16.1,76,16.1z"/>
	<path class="st3" d="M65.8,27.7h2.5c0.3-1.4,1.1-6.3,1.1-11.6H67C67,16.1,67.1,21.3,65.8,27.7z"/>
	<path class="st3" d="M76.4,14.2v-1.9h-3.7V8.9h0V8.3c2.5-0.4,3.7-0.8,3.7-0.8V5.7c0,0-4.8,1.2-9.8,1.4c0,0,0,1.9,0,1.9
		c1.4-0.1,2.6-0.2,3.7-0.3v3.7h-3.7v1.9h3.7v14.9h2.4V14.2H76.4z"/>
	<polygon class="st3" points="89.1,19.9 86.7,20.2 86.7,7.9 86.7,7.9 86.7,6.1 86.7,6.1 84.3,6.1 84.3,6.1 84.3,20.6 77.6,21.5 
		77.6,23.4 84.3,22.5 84.3,29.1 86.7,29.1 86.7,22.1 89.1,21.8 	"/>
	<polygon class="st3" points="83.4,12.4 81,7.4 78.4,7.4 78.4,7.4 80.8,12.4 	"/>
	<polygon class="st3" points="83.4,18.7 81,13.7 78.4,13.7 78.4,13.7 80.8,18.7 	"/>
</g>
</svg>
